<?xml version="1.0" encoding="utf-8" standalone="no"?>
<!DOCTYPE svg PUBLIC "-//W3C//DTD SVG 1.1//EN"
  "http://www.w3.org/Graphics/SVG/1.1/DTD/svg11.dtd">
<svg xmlns:xlink="http://www.w3.org/1999/xlink" width="158.4pt" height="194.4pt" viewBox="0 0 158.4 194.4" xmlns="http://www.w3.org/2000/svg" version="1.1">
 <metadata>
  <rdf:RDF xmlns:dc="http://purl.org/dc/elements/1.1/" xmlns:cc="http://creativecommons.org/ns#" xmlns:rdf="http://www.w3.org/1999/02/22-rdf-syntax-ns#">
   <cc:Work>
    <dc:type rdf:resource="http://purl.org/dc/dcmitype/StillImage"/>
    <dc:date>2026-05-09T22:42:41.991107</dc:date>
    <dc:format>image/svg+xml</dc:format>
    <dc:creator>
     <cc:Agent>
      <dc:title>Matplotlib v3.8.0, https://matplotlib.org/</dc:title>
     </cc:Agent>
    </dc:creator>
   </cc:Work>
  </rdf:RDF>
 </metadata>
 <defs>
  <style type="text/css">*{stroke-linejoin: round; stroke-linecap: butt}</style>
 </defs>
 <g id="figure_1">
  <g id="patch_1">
   <path d="M 0 194.4 
L 158.4 194.4 
L 158.4 0 
L 0 0 
L 0 194.4 
z
" style="fill: none"/>
  </g>
  <g id="axes_1">
   <g id="patch_2">
    <path d="M 0 194.4 
L 158.4 194.4 
L 158.4 -0 
L 0 -0 
L 0 194.4 
z
" style="fill: none"/>
   </g>
   <g id="PolyCollection_1">
    <defs>
     <path id="mbaf00fcb55" d="M 44 -130.098872 
L 44 -133.751042 
L 44.353769 -133.751042 
L 44.707538 -133.751042 
L 45.061307 -133.751042 
L 45.415075 -133.751042 
L 45.768844 -133.751042 
L 46.122613 -133.751042 
L 46.476382 -133.751042 
L 46.830151 -133.751042 
L 47.18392 -133.751042 
L 47.537688 -133.751042 
L 47.891457 -133.751042 
L 48.245226 -133.751042 
L 48.598995 -133.751042 
L 48.952764 -133.751042 
L 49.306533 -133.751042 
L 49.660302 -133.751042 
L 50.01407 -133.751042 
L 50.367839 -133.751042 
L 50.721608 -133.751042 
L 51.075377 -133.751042 
L 51.429146 -133.751042 
L 51.782915 -133.751042 
L 52.136683 -133.751042 
L 52.490452 -133.751042 
L 52.844221 -133.751042 
L 53.19799 -133.751042 
L 53.551759 -133.751042 
L 53.905528 -133.751042 
L 54.259296 -133.751042 
L 54.613065 -133.751042 
L 54.966834 -133.751042 
L 55.320603 -133.751042 
L 55.674372 -133.751042 
L 56.028141 -133.751042 
L 56.38191 -133.751042 
L 56.735678 -133.751042 
L 57.089447 -133.751042 
L 57.443216 -133.751042 
L 57.796985 -133.751042 
L 58.150754 -133.751042 
L 58.504523 -133.751042 
L 58.858291 -133.751042 
L 59.21206 -133.751042 
L 59.565829 -133.751042 
L 59.919598 -133.751042 
L 60.273367 -133.751042 
L 60.627136 -133.751042 
L 60.980905 -133.751042 
L 61.334673 -133.751042 
L 61.688442 -133.751042 
L 62.042211 -133.751042 
L 62.39598 -133.751042 
L 62.749749 -133.751042 
L 63.103518 -133.751042 
L 63.457286 -133.751042 
L 63.811055 -133.751042 
L 64.164824 -133.751042 
L 64.518593 -133.751042 
L 64.872362 -133.751042 
L 65.226131 -133.751042 
L 65.579899 -133.751042 
L 65.933668 -133.751042 
L 66.287437 -133.751042 
L 66.641206 -133.751042 
L 66.994975 -133.751042 
L 67.348744 -133.751042 
L 67.702513 -133.751042 
L 68.056281 -133.751042 
L 68.41005 -133.751042 
L 68.763819 -133.751042 
L 69.117588 -133.751042 
L 69.471357 -133.751042 
L 69.825126 -133.751042 
L 70.178894 -133.751042 
L 70.532663 -133.751042 
L 70.886432 -133.751042 
L 71.240201 -133.751042 
L 71.59397 -133.751042 
L 71.947739 -133.751042 
L 72.301508 -133.751042 
L 72.655276 -133.751042 
L 73.009045 -133.751042 
L 73.362814 -133.751042 
L 73.716583 -133.751042 
L 74.070352 -133.751042 
L 74.424121 -133.751042 
L 74.777889 -133.751042 
L 75.131658 -133.751042 
L 75.485427 -133.751042 
L 75.839196 -133.751042 
L 76.192965 -133.751042 
L 76.546734 -133.751042 
L 76.900503 -133.751042 
L 77.254271 -133.751042 
L 77.60804 -133.751042 
L 77.961809 -133.751042 
L 78.315578 -133.751042 
L 78.669347 -133.751042 
L 79.023116 -133.751042 
L 79.376884 -133.751042 
L 79.730653 -133.751042 
L 80.084422 -133.751042 
L 80.438191 -133.751042 
L 80.79196 -133.751042 
L 81.145729 -133.751042 
L 81.499497 -133.751042 
L 81.853266 -133.751042 
L 82.207035 -133.751042 
L 82.560804 -133.751042 
L 82.914573 -133.751042 
L 83.268342 -133.751042 
L 83.622111 -133.751042 
L 83.975879 -133.751042 
L 84.329648 -133.751042 
L 84.683417 -133.751042 
L 85.037186 -133.751042 
L 85.390955 -133.751042 
L 85.744724 -133.751042 
L 86.098492 -133.751042 
L 86.452261 -133.751042 
L 86.80603 -133.751042 
L 87.159799 -133.751042 
L 87.513568 -133.751042 
L 87.867337 -133.751042 
L 88.221106 -133.751042 
L 88.574874 -133.751042 
L 88.928643 -133.751042 
L 89.282412 -133.751042 
L 89.636181 -133.751042 
L 89.98995 -133.751042 
L 90.343719 -133.751042 
L 90.697487 -133.751042 
L 91.051256 -133.751042 
L 91.405025 -133.751042 
L 91.758794 -133.751042 
L 92.112563 -133.751042 
L 92.466332 -133.751042 
L 92.820101 -133.751042 
L 93.173869 -133.751042 
L 93.527638 -133.751042 
L 93.881407 -133.751042 
L 94.235176 -133.751042 
L 94.588945 -133.751042 
L 94.942714 -133.751042 
L 95.296482 -133.751042 
L 95.650251 -133.751042 
L 96.00402 -133.751042 
L 96.357789 -133.751042 
L 96.711558 -133.751042 
L 97.065327 -133.751042 
L 97.419095 -133.751042 
L 97.772864 -133.751042 
L 98.126633 -133.751042 
L 98.480402 -133.751042 
L 98.834171 -133.751042 
L 99.18794 -133.751042 
L 99.541709 -133.751042 
L 99.895477 -133.751042 
L 100.249246 -133.751042 
L 100.603015 -133.751042 
L 100.956784 -133.751042 
L 101.310553 -133.751042 
L 101.664322 -133.751042 
L 102.01809 -133.751042 
L 102.371859 -133.751042 
L 102.725628 -133.751042 
L 103.079397 -133.751042 
L 103.433166 -133.751042 
L 103.786935 -133.751042 
L 104.140704 -133.751042 
L 104.494472 -133.751042 
L 104.848241 -133.751042 
L 105.20201 -133.751042 
L 105.555779 -133.751042 
L 105.909548 -133.751042 
L 106.263317 -133.751042 
L 106.617085 -133.751042 
L 106.970854 -133.751042 
L 107.324623 -133.751042 
L 107.678392 -133.751042 
L 108.032161 -133.751042 
L 108.38593 -133.751042 
L 108.739698 -133.751042 
L 109.093467 -133.751042 
L 109.447236 -133.751042 
L 109.801005 -133.751042 
L 110.154774 -133.751042 
L 110.508543 -133.751042 
L 110.862312 -133.751042 
L 111.21608 -133.751042 
L 111.569849 -133.751042 
L 111.923618 -133.751042 
L 112.277387 -133.751042 
L 112.631156 -133.751042 
L 112.984925 -133.751042 
L 113.338693 -133.751042 
L 113.692462 -133.751042 
L 114.046231 -133.751042 
L 114.4 -133.751042 
L 114.4 -133.163865 
L 114.4 -133.163865 
L 114.046231 -133.312109 
L 113.692462 -133.448661 
L 113.338693 -133.573132 
L 112.984925 -133.685132 
L 112.631156 -133.784271 
L 112.277387 -133.870159 
L 111.923618 -133.942406 
L 111.569849 -134.000622 
L 111.21608 -134.044417 
L 110.862312 -134.073401 
L 110.508543 -134.087184 
L 110.154774 -134.085376 
L 109.801005 -134.067588 
L 109.447236 -134.033429 
L 109.093467 -133.982509 
L 108.739698 -133.914439 
L 108.38593 -133.828828 
L 108.032161 -133.725287 
L 107.678392 -133.603426 
L 107.324623 -133.462853 
L 106.970854 -133.303181 
L 106.617085 -133.124018 
L 106.263317 -132.924976 
L 105.909548 -132.705663 
L 105.555779 -132.465689 
L 105.20201 -132.204666 
L 104.848241 -131.922203 
L 104.494472 -131.617909 
L 104.140704 -131.291396 
L 103.786935 -130.942273 
L 103.433166 -130.57015 
L 103.079397 -130.174637 
L 102.725628 -129.755344 
L 102.371859 -129.311882 
L 102.01809 -128.84386 
L 101.664322 -128.350888 
L 101.310553 -127.832577 
L 100.956784 -127.288537 
L 100.603015 -126.718377 
L 100.249246 -126.121707 
L 99.895477 -125.498138 
L 99.541709 -124.84728 
L 99.18794 -124.168743 
L 98.834171 -123.462136 
L 98.480402 -122.72707 
L 98.126633 -121.963155 
L 97.772864 -121.170001 
L 97.419095 -120.347218 
L 97.065327 -119.494416 
L 96.711558 -118.611239 
L 96.357789 -117.701413 
L 96.00402 -116.776596 
L 95.650251 -115.849354 
L 95.296482 -114.932256 
L 94.942714 -114.037869 
L 94.588945 -113.17876 
L 94.235176 -112.367498 
L 93.881407 -111.616649 
L 93.527638 -110.938783 
L 93.173869 -110.346465 
L 92.820101 -109.852264 
L 92.466332 -109.468748 
L 92.112563 -109.208484 
L 91.758794 -109.084039 
L 91.405025 -109.107982 
L 91.051256 -109.29288 
L 90.697487 -109.6513 
L 90.343719 -110.195811 
L 89.98995 -110.938979 
L 89.636181 -111.893373 
L 89.282412 -113.07156 
L 88.928643 -114.486108 
L 88.574874 -116.149584 
L 88.221106 -118.074556 
L 87.867337 -120.273219 
L 87.513568 -122.74088 
L 87.159799 -125.449409 
L 86.80603 -128.368955 
L 86.452261 -131.469664 
L 86.098492 -134.721682 
L 85.744724 -138.095154 
L 85.390955 -141.560229 
L 85.037186 -145.087052 
L 84.683417 -148.64577 
L 84.329648 -152.206528 
L 83.975879 -155.739475 
L 83.622111 -159.214754 
L 83.268342 -162.602515 
L 82.914573 -165.872902 
L 82.560804 -168.996062 
L 82.207035 -171.942141 
L 81.853266 -174.681287 
L 81.499497 -177.183645 
L 81.145729 -179.419362 
L 80.79196 -181.358584 
L 80.438191 -182.971457 
L 80.084422 -184.228129 
L 79.730653 -185.098745 
L 79.376884 -185.553452 
L 79.023116 -185.563636 
L 78.669347 -185.12921 
L 78.315578 -184.278612 
L 77.961809 -183.041519 
L 77.60804 -181.447609 
L 77.254271 -179.52656 
L 76.900503 -177.30805 
L 76.546734 -174.821757 
L 76.192965 -172.097358 
L 75.839196 -169.164533 
L 75.485427 -166.052958 
L 75.131658 -162.792311 
L 74.777889 -159.412272 
L 74.424121 -155.942516 
L 74.070352 -152.412723 
L 73.716583 -148.85257 
L 73.362814 -145.291735 
L 73.009045 -141.759896 
L 72.655276 -138.286731 
L 72.301508 -134.901918 
L 71.947739 -131.635135 
L 71.59397 -128.516059 
L 71.240201 -125.574369 
L 70.886432 -122.839742 
L 70.532663 -120.341857 
L 70.178894 -118.108695 
L 69.825126 -116.14521 
L 69.471357 -114.439759 
L 69.117588 -112.980335 
L 68.763819 -111.754928 
L 68.41005 -110.751531 
L 68.056281 -109.958134 
L 67.702513 -109.362729 
L 67.348744 -108.953308 
L 66.994975 -108.717863 
L 66.641206 -108.644384 
L 66.287437 -108.720863 
L 65.933668 -108.935292 
L 65.579899 -109.275662 
L 65.226131 -109.729965 
L 64.872362 -110.286192 
L 64.518593 -110.932334 
L 64.164824 -111.656384 
L 63.811055 -112.446332 
L 63.457286 -113.290171 
L 63.103518 -114.175891 
L 62.749749 -115.091485 
L 62.39598 -116.024943 
L 62.042211 -116.964257 
L 61.688442 -117.897419 
L 61.334673 -118.813238 
L 60.980905 -119.707644 
L 60.627136 -120.580234 
L 60.273367 -121.430633 
L 59.919598 -122.258467 
L 59.565829 -123.063365 
L 59.21206 -123.844951 
L 58.858291 -124.602851 
L 58.504523 -125.336694 
L 58.150754 -126.046104 
L 57.796985 -126.730708 
L 57.443216 -127.390133 
L 57.089447 -128.024005 
L 56.735678 -128.63195 
L 56.38191 -129.213594 
L 56.028141 -129.768565 
L 55.674372 -130.296488 
L 55.320603 -130.79699 
L 54.966834 -131.269697 
L 54.613065 -131.714236 
L 54.259296 -132.130232 
L 53.905528 -132.517313 
L 53.551759 -132.875105 
L 53.19799 -133.203233 
L 52.844221 -133.501325 
L 52.490452 -133.769007 
L 52.136683 -134.005904 
L 51.782915 -134.211645 
L 51.429146 -134.385854 
L 51.075377 -134.528159 
L 50.721608 -134.638185 
L 50.367839 -134.715559 
L 50.01407 -134.759908 
L 49.660302 -134.770857 
L 49.306533 -134.748033 
L 48.952764 -134.691063 
L 48.598995 -134.599573 
L 48.245226 -134.473189 
L 47.891457 -134.311538 
L 47.537688 -134.114246 
L 47.18392 -133.880939 
L 46.830151 -133.611244 
L 46.476382 -133.304787 
L 46.122613 -132.961195 
L 45.768844 -132.580093 
L 45.415075 -132.161109 
L 45.061307 -131.703868 
L 44.707538 -131.207998 
L 44.353769 -130.673123 
L 44 -130.098872 
z
" style="stroke: #333333; stroke-opacity: 0.3"/>
    </defs>
    <g clip-path="url(#p7488965cc9)">
     <use xlink:href="#mbaf00fcb55" x="0" y="194.4" style="fill: #333333; fill-opacity: 0.3; stroke: #333333; stroke-opacity: 0.3"/>
    </g>
   </g>
   <g id="line2d_1">
    <path d="M 0 60.648958 
L 158.4 60.648958 
" clip-path="url(#p7488965cc9)" style="fill: none; stroke: #000000; stroke-width: 0.5; stroke-linecap: square"/>
   </g>
   <g id="PolyCollection_2">
    <defs>
     <path id="m97c0a7eea5" d="M 44 -70.180954 
L 44 -75.890806 
L 44.353769 -75.890806 
L 44.707538 -75.890806 
L 45.061307 -75.890806 
L 45.415075 -75.890806 
L 45.768844 -75.890806 
L 46.122613 -75.890806 
L 46.476382 -75.890806 
L 46.830151 -75.890806 
L 47.18392 -75.890806 
L 47.537688 -75.890806 
L 47.891457 -75.890806 
L 48.245226 -75.890806 
L 48.598995 -75.890806 
L 48.952764 -75.890806 
L 49.306533 -75.890806 
L 49.660302 -75.890806 
L 50.01407 -75.890806 
L 50.367839 -75.890806 
L 50.721608 -75.890806 
L 51.075377 -75.890806 
L 51.429146 -75.890806 
L 51.782915 -75.890806 
L 52.136683 -75.890806 
L 52.490452 -75.890806 
L 52.844221 -75.890806 
L 53.19799 -75.890806 
L 53.551759 -75.890806 
L 53.905528 -75.890806 
L 54.259296 -75.890806 
L 54.613065 -75.890806 
L 54.966834 -75.890806 
L 55.320603 -75.890806 
L 55.674372 -75.890806 
L 56.028141 -75.890806 
L 56.38191 -75.890806 
L 56.735678 -75.890806 
L 57.089447 -75.890806 
L 57.443216 -75.890806 
L 57.796985 -75.890806 
L 58.150754 -75.890806 
L 58.504523 -75.890806 
L 58.858291 -75.890806 
L 59.21206 -75.890806 
L 59.565829 -75.890806 
L 59.919598 -75.890806 
L 60.273367 -75.890806 
L 60.627136 -75.890806 
L 60.980905 -75.890806 
L 61.334673 -75.890806 
L 61.688442 -75.890806 
L 62.042211 -75.890806 
L 62.39598 -75.890806 
L 62.749749 -75.890806 
L 63.103518 -75.890806 
L 63.457286 -75.890806 
L 63.811055 -75.890806 
L 64.164824 -75.890806 
L 64.518593 -75.890806 
L 64.872362 -75.890806 
L 65.226131 -75.890806 
L 65.579899 -75.890806 
L 65.933668 -75.890806 
L 66.287437 -75.890806 
L 66.641206 -75.890806 
L 66.994975 -75.890806 
L 67.348744 -75.890806 
L 67.702513 -75.890806 
L 68.056281 -75.890806 
L 68.41005 -75.890806 
L 68.763819 -75.890806 
L 69.117588 -75.890806 
L 69.471357 -75.890806 
L 69.825126 -75.890806 
L 70.178894 -75.890806 
L 70.532663 -75.890806 
L 70.886432 -75.890806 
L 71.240201 -75.890806 
L 71.59397 -75.890806 
L 71.947739 -75.890806 
L 72.301508 -75.890806 
L 72.655276 -75.890806 
L 73.009045 -75.890806 
L 73.362814 -75.890806 
L 73.716583 -75.890806 
L 74.070352 -75.890806 
L 74.424121 -75.890806 
L 74.777889 -75.890806 
L 75.131658 -75.890806 
L 75.485427 -75.890806 
L 75.839196 -75.890806 
L 76.192965 -75.890806 
L 76.546734 -75.890806 
L 76.900503 -75.890806 
L 77.254271 -75.890806 
L 77.60804 -75.890806 
L 77.961809 -75.890806 
L 78.315578 -75.890806 
L 78.669347 -75.890806 
L 79.023116 -75.890806 
L 79.376884 -75.890806 
L 79.730653 -75.890806 
L 80.084422 -75.890806 
L 80.438191 -75.890806 
L 80.79196 -75.890806 
L 81.145729 -75.890806 
L 81.499497 -75.890806 
L 81.853266 -75.890806 
L 82.207035 -75.890806 
L 82.560804 -75.890806 
L 82.914573 -75.890806 
L 83.268342 -75.890806 
L 83.622111 -75.890806 
L 83.975879 -75.890806 
L 84.329648 -75.890806 
L 84.683417 -75.890806 
L 85.037186 -75.890806 
L 85.390955 -75.890806 
L 85.744724 -75.890806 
L 86.098492 -75.890806 
L 86.452261 -75.890806 
L 86.80603 -75.890806 
L 87.159799 -75.890806 
L 87.513568 -75.890806 
L 87.867337 -75.890806 
L 88.221106 -75.890806 
L 88.574874 -75.890806 
L 88.928643 -75.890806 
L 89.282412 -75.890806 
L 89.636181 -75.890806 
L 89.98995 -75.890806 
L 90.343719 -75.890806 
L 90.697487 -75.890806 
L 91.051256 -75.890806 
L 91.405025 -75.890806 
L 91.758794 -75.890806 
L 92.112563 -75.890806 
L 92.466332 -75.890806 
L 92.820101 -75.890806 
L 93.173869 -75.890806 
L 93.527638 -75.890806 
L 93.881407 -75.890806 
L 94.235176 -75.890806 
L 94.588945 -75.890806 
L 94.942714 -75.890806 
L 95.296482 -75.890806 
L 95.650251 -75.890806 
L 96.00402 -75.890806 
L 96.357789 -75.890806 
L 96.711558 -75.890806 
L 97.065327 -75.890806 
L 97.419095 -75.890806 
L 97.772864 -75.890806 
L 98.126633 -75.890806 
L 98.480402 -75.890806 
L 98.834171 -75.890806 
L 99.18794 -75.890806 
L 99.541709 -75.890806 
L 99.895477 -75.890806 
L 100.249246 -75.890806 
L 100.603015 -75.890806 
L 100.956784 -75.890806 
L 101.310553 -75.890806 
L 101.664322 -75.890806 
L 102.01809 -75.890806 
L 102.371859 -75.890806 
L 102.725628 -75.890806 
L 103.079397 -75.890806 
L 103.433166 -75.890806 
L 103.786935 -75.890806 
L 104.140704 -75.890806 
L 104.494472 -75.890806 
L 104.848241 -75.890806 
L 105.20201 -75.890806 
L 105.555779 -75.890806 
L 105.909548 -75.890806 
L 106.263317 -75.890806 
L 106.617085 -75.890806 
L 106.970854 -75.890806 
L 107.324623 -75.890806 
L 107.678392 -75.890806 
L 108.032161 -75.890806 
L 108.38593 -75.890806 
L 108.739698 -75.890806 
L 109.093467 -75.890806 
L 109.447236 -75.890806 
L 109.801005 -75.890806 
L 110.154774 -75.890806 
L 110.508543 -75.890806 
L 110.862312 -75.890806 
L 111.21608 -75.890806 
L 111.569849 -75.890806 
L 111.923618 -75.890806 
L 112.277387 -75.890806 
L 112.631156 -75.890806 
L 112.984925 -75.890806 
L 113.338693 -75.890806 
L 113.692462 -75.890806 
L 114.046231 -75.890806 
L 114.4 -75.890806 
L 114.4 -78.511879 
L 114.4 -78.511879 
L 114.046231 -78.743645 
L 113.692462 -78.938334 
L 113.338693 -79.096945 
L 112.984925 -79.220474 
L 112.631156 -79.309919 
L 112.277387 -79.366277 
L 111.923618 -79.390546 
L 111.569849 -79.383721 
L 111.21608 -79.346801 
L 110.862312 -79.280783 
L 110.508543 -79.186664 
L 110.154774 -79.065442 
L 109.801005 -78.918113 
L 109.447236 -78.745674 
L 109.093467 -78.549124 
L 108.739698 -78.329459 
L 108.38593 -78.087676 
L 108.032161 -77.824773 
L 107.678392 -77.541747 
L 107.324623 -77.239595 
L 106.970854 -76.919314 
L 106.617085 -76.581902 
L 106.263317 -76.228356 
L 105.909548 -75.859673 
L 105.555779 -75.476849 
L 105.20201 -75.080884 
L 104.848241 -74.672773 
L 104.494472 -74.253514 
L 104.140704 -73.824104 
L 103.786935 -73.38554 
L 103.433166 -72.93882 
L 103.079397 -72.484941 
L 102.725628 -72.0249 
L 102.371859 -71.559694 
L 102.01809 -71.09032 
L 101.664322 -70.617777 
L 101.310553 -70.14306 
L 100.956784 -69.667167 
L 100.603015 -69.191096 
L 100.249246 -68.715843 
L 99.895477 -68.242406 
L 99.541709 -67.771782 
L 99.18794 -67.304969 
L 98.834171 -66.842963 
L 98.480402 -66.386762 
L 98.126633 -65.937362 
L 97.772864 -65.495762 
L 97.419095 -65.062959 
L 97.065327 -64.639948 
L 96.711558 -64.22774 
L 96.357789 -63.828617 
L 96.00402 -63.447342 
L 95.650251 -63.088962 
L 95.296482 -62.758527 
L 94.942714 -62.461082 
L 94.588945 -62.201675 
L 94.235176 -61.985355 
L 93.881407 -61.817169 
L 93.527638 -61.702163 
L 93.173869 -61.645387 
L 92.820101 -61.651886 
L 92.466332 -61.72671 
L 92.112563 -61.874905 
L 91.758794 -62.10152 
L 91.405025 -62.411601 
L 91.051256 -62.810196 
L 90.697487 -63.302353 
L 90.343719 -63.893119 
L 89.98995 -64.587542 
L 89.636181 -65.39067 
L 89.282412 -66.30755 
L 88.928643 -67.34323 
L 88.574874 -68.502756 
L 88.221106 -69.791178 
L 87.867337 -71.21336 
L 87.513568 -72.765969 
L 87.159799 -74.434287 
L 86.80603 -76.202759 
L 86.452261 -78.055832 
L 86.098492 -79.97795 
L 85.744724 -81.953558 
L 85.390955 -83.967102 
L 85.037186 -86.003028 
L 84.683417 -88.04578 
L 84.329648 -90.079804 
L 83.975879 -92.089545 
L 83.622111 -94.059448 
L 83.268342 -95.973959 
L 82.914573 -97.817523 
L 82.560804 -99.574586 
L 82.207035 -101.229592 
L 81.853266 -102.766987 
L 81.499497 -104.171216 
L 81.145729 -105.426725 
L 80.79196 -106.517959 
L 80.438191 -107.429363 
L 80.084422 -108.145382 
L 79.730653 -108.650463 
L 79.376884 -108.929049 
L 79.023116 -108.966235 
L 78.669347 -108.762026 
L 78.315578 -108.331342 
L 77.961809 -107.689748 
L 77.60804 -106.852812 
L 77.254271 -105.836099 
L 76.900503 -104.655177 
L 76.546734 -103.325612 
L 76.192965 -101.862971 
L 75.839196 -100.28282 
L 75.485427 -98.600726 
L 75.131658 -96.832256 
L 74.777889 -94.992976 
L 74.424121 -93.098453 
L 74.070352 -91.164253 
L 73.716583 -89.205944 
L 73.362814 -87.239091 
L 73.009045 -85.279262 
L 72.655276 -83.342022 
L 72.301508 -81.44294 
L 71.947739 -79.59758 
L 71.59397 -77.821511 
L 71.240201 -76.130298 
L 70.886432 -74.539508 
L 70.532663 -73.064708 
L 70.178894 -71.720611 
L 69.825126 -70.510333 
L 69.471357 -69.428638 
L 69.117588 -68.470102 
L 68.763819 -67.629303 
L 68.41005 -66.900818 
L 68.056281 -66.279224 
L 67.702513 -65.759099 
L 67.348744 -65.335021 
L 66.994975 -65.001566 
L 66.641206 -64.753312 
L 66.287437 -64.584836 
L 65.933668 -64.490715 
L 65.579899 -64.465527 
L 65.226131 -64.50385 
L 64.872362 -64.60026 
L 64.518593 -64.749335 
L 64.164824 -64.945653 
L 63.811055 -65.18379 
L 63.457286 -65.458324 
L 63.103518 -65.763832 
L 62.749749 -66.094892 
L 62.39598 -66.446081 
L 62.042211 -66.811976 
L 61.688442 -67.187155 
L 61.334673 -67.566511 
L 60.980905 -67.947688 
L 60.627136 -68.329746 
L 60.273367 -68.711757 
L 59.919598 -69.092794 
L 59.565829 -69.471927 
L 59.21206 -69.848228 
L 58.858291 -70.220771 
L 58.504523 -70.588626 
L 58.150754 -70.950865 
L 57.796985 -71.306561 
L 57.443216 -71.654785 
L 57.089447 -71.994609 
L 56.735678 -72.325104 
L 56.38191 -72.645344 
L 56.028141 -72.9544 
L 55.674372 -73.251343 
L 55.320603 -73.535246 
L 54.966834 -73.80518 
L 54.613065 -74.060217 
L 54.259296 -74.29943 
L 53.905528 -74.521889 
L 53.551759 -74.726668 
L 53.19799 -74.912838 
L 52.844221 -75.07947 
L 52.490452 -75.225637 
L 52.136683 -75.35041 
L 51.782915 -75.452862 
L 51.429146 -75.532065 
L 51.075377 -75.587089 
L 50.721608 -75.617008 
L 50.367839 -75.620892 
L 50.01407 -75.597815 
L 49.660302 -75.546847 
L 49.306533 -75.467061 
L 48.952764 -75.357528 
L 48.598995 -75.217321 
L 48.245226 -75.045511 
L 47.891457 -74.841171 
L 47.537688 -74.603371 
L 47.18392 -74.331185 
L 46.830151 -74.023683 
L 46.476382 -73.679938 
L 46.122613 -73.299022 
L 45.768844 -72.880007 
L 45.415075 -72.421964 
L 45.061307 -71.923965 
L 44.707538 -71.385083 
L 44.353769 -70.804388 
L 44 -70.180954 
z
" style="stroke: #666666; stroke-opacity: 0.3"/>
    </defs>
    <g clip-path="url(#p7488965cc9)">
     <use xlink:href="#m97c0a7eea5" x="0" y="194.4" style="fill: #666666; fill-opacity: 0.3; stroke: #666666; stroke-opacity: 0.3"/>
    </g>
   </g>
   <g id="line2d_2">
    <path d="M 0 118.509194 
L 158.4 118.509194 
" clip-path="url(#p7488965cc9)" style="fill: none; stroke: #000000; stroke-width: 0.5; stroke-linecap: square"/>
   </g>
   <g id="PolyCollection_3">
    <defs>
     <path id="me4eba5ba12" d="M 44 -8.836364 
L 44 -18.03057 
L 44.353769 -18.03057 
L 44.707538 -18.03057 
L 45.061307 -18.03057 
L 45.415075 -18.03057 
L 45.768844 -18.03057 
L 46.122613 -18.03057 
L 46.476382 -18.03057 
L 46.830151 -18.03057 
L 47.18392 -18.03057 
L 47.537688 -18.03057 
L 47.891457 -18.03057 
L 48.245226 -18.03057 
L 48.598995 -18.03057 
L 48.952764 -18.03057 
L 49.306533 -18.03057 
L 49.660302 -18.03057 
L 50.01407 -18.03057 
L 50.367839 -18.03057 
L 50.721608 -18.03057 
L 51.075377 -18.03057 
L 51.429146 -18.03057 
L 51.782915 -18.03057 
L 52.136683 -18.03057 
L 52.490452 -18.03057 
L 52.844221 -18.03057 
L 53.19799 -18.03057 
L 53.551759 -18.03057 
L 53.905528 -18.03057 
L 54.259296 -18.03057 
L 54.613065 -18.03057 
L 54.966834 -18.03057 
L 55.320603 -18.03057 
L 55.674372 -18.03057 
L 56.028141 -18.03057 
L 56.38191 -18.03057 
L 56.735678 -18.03057 
L 57.089447 -18.03057 
L 57.443216 -18.03057 
L 57.796985 -18.03057 
L 58.150754 -18.03057 
L 58.504523 -18.03057 
L 58.858291 -18.03057 
L 59.21206 -18.03057 
L 59.565829 -18.03057 
L 59.919598 -18.03057 
L 60.273367 -18.03057 
L 60.627136 -18.03057 
L 60.980905 -18.03057 
L 61.334673 -18.03057 
L 61.688442 -18.03057 
L 62.042211 -18.03057 
L 62.39598 -18.03057 
L 62.749749 -18.03057 
L 63.103518 -18.03057 
L 63.457286 -18.03057 
L 63.811055 -18.03057 
L 64.164824 -18.03057 
L 64.518593 -18.03057 
L 64.872362 -18.03057 
L 65.226131 -18.03057 
L 65.579899 -18.03057 
L 65.933668 -18.03057 
L 66.287437 -18.03057 
L 66.641206 -18.03057 
L 66.994975 -18.03057 
L 67.348744 -18.03057 
L 67.702513 -18.03057 
L 68.056281 -18.03057 
L 68.41005 -18.03057 
L 68.763819 -18.03057 
L 69.117588 -18.03057 
L 69.471357 -18.03057 
L 69.825126 -18.03057 
L 70.178894 -18.03057 
L 70.532663 -18.03057 
L 70.886432 -18.03057 
L 71.240201 -18.03057 
L 71.59397 -18.03057 
L 71.947739 -18.03057 
L 72.301508 -18.03057 
L 72.655276 -18.03057 
L 73.009045 -18.03057 
L 73.362814 -18.03057 
L 73.716583 -18.03057 
L 74.070352 -18.03057 
L 74.424121 -18.03057 
L 74.777889 -18.03057 
L 75.131658 -18.03057 
L 75.485427 -18.03057 
L 75.839196 -18.03057 
L 76.192965 -18.03057 
L 76.546734 -18.03057 
L 76.900503 -18.03057 
L 77.254271 -18.03057 
L 77.60804 -18.03057 
L 77.961809 -18.03057 
L 78.315578 -18.03057 
L 78.669347 -18.03057 
L 79.023116 -18.03057 
L 79.376884 -18.03057 
L 79.730653 -18.03057 
L 80.084422 -18.03057 
L 80.438191 -18.03057 
L 80.79196 -18.03057 
L 81.145729 -18.03057 
L 81.499497 -18.03057 
L 81.853266 -18.03057 
L 82.207035 -18.03057 
L 82.560804 -18.03057 
L 82.914573 -18.03057 
L 83.268342 -18.03057 
L 83.622111 -18.03057 
L 83.975879 -18.03057 
L 84.329648 -18.03057 
L 84.683417 -18.03057 
L 85.037186 -18.03057 
L 85.390955 -18.03057 
L 85.744724 -18.03057 
L 86.098492 -18.03057 
L 86.452261 -18.03057 
L 86.80603 -18.03057 
L 87.159799 -18.03057 
L 87.513568 -18.03057 
L 87.867337 -18.03057 
L 88.221106 -18.03057 
L 88.574874 -18.03057 
L 88.928643 -18.03057 
L 89.282412 -18.03057 
L 89.636181 -18.03057 
L 89.98995 -18.03057 
L 90.343719 -18.03057 
L 90.697487 -18.03057 
L 91.051256 -18.03057 
L 91.405025 -18.03057 
L 91.758794 -18.03057 
L 92.112563 -18.03057 
L 92.466332 -18.03057 
L 92.820101 -18.03057 
L 93.173869 -18.03057 
L 93.527638 -18.03057 
L 93.881407 -18.03057 
L 94.235176 -18.03057 
L 94.588945 -18.03057 
L 94.942714 -18.03057 
L 95.296482 -18.03057 
L 95.650251 -18.03057 
L 96.00402 -18.03057 
L 96.357789 -18.03057 
L 96.711558 -18.03057 
L 97.065327 -18.03057 
L 97.419095 -18.03057 
L 97.772864 -18.03057 
L 98.126633 -18.03057 
L 98.480402 -18.03057 
L 98.834171 -18.03057 
L 99.18794 -18.03057 
L 99.541709 -18.03057 
L 99.895477 -18.03057 
L 100.249246 -18.03057 
L 100.603015 -18.03057 
L 100.956784 -18.03057 
L 101.310553 -18.03057 
L 101.664322 -18.03057 
L 102.01809 -18.03057 
L 102.371859 -18.03057 
L 102.725628 -18.03057 
L 103.079397 -18.03057 
L 103.433166 -18.03057 
L 103.786935 -18.03057 
L 104.140704 -18.03057 
L 104.494472 -18.03057 
L 104.848241 -18.03057 
L 105.20201 -18.03057 
L 105.555779 -18.03057 
L 105.909548 -18.03057 
L 106.263317 -18.03057 
L 106.617085 -18.03057 
L 106.970854 -18.03057 
L 107.324623 -18.03057 
L 107.678392 -18.03057 
L 108.032161 -18.03057 
L 108.38593 -18.03057 
L 108.739698 -18.03057 
L 109.093467 -18.03057 
L 109.447236 -18.03057 
L 109.801005 -18.03057 
L 110.154774 -18.03057 
L 110.508543 -18.03057 
L 110.862312 -18.03057 
L 111.21608 -18.03057 
L 111.569849 -18.03057 
L 111.923618 -18.03057 
L 112.277387 -18.03057 
L 112.631156 -18.03057 
L 112.984925 -18.03057 
L 113.338693 -18.03057 
L 113.692462 -18.03057 
L 114.046231 -18.03057 
L 114.4 -18.03057 
L 114.4 -15.148199 
L 114.4 -15.148199 
L 114.046231 -15.705696 
L 113.692462 -16.212073 
L 113.338693 -16.669063 
L 112.984925 -17.078399 
L 112.631156 -17.441815 
L 112.277387 -17.761044 
L 111.923618 -18.037819 
L 111.569849 -18.273874 
L 111.21608 -18.470942 
L 110.862312 -18.630757 
L 110.508543 -18.755052 
L 110.154774 -18.84556 
L 109.801005 -18.904015 
L 109.447236 -18.93215 
L 109.093467 -18.931698 
L 108.739698 -18.904393 
L 108.38593 -18.851968 
L 108.032161 -18.776157 
L 107.678392 -18.678692 
L 107.324623 -18.561308 
L 106.970854 -18.425738 
L 106.617085 -18.273714 
L 106.263317 -18.106971 
L 105.909548 -17.927242 
L 105.555779 -17.73626 
L 105.20201 -17.535759 
L 104.848241 -17.327471 
L 104.494472 -17.11313 
L 104.140704 -16.894471 
L 103.786935 -16.673225 
L 103.433166 -16.451127 
L 103.079397 -16.229909 
L 102.725628 -16.011305 
L 102.371859 -15.797049 
L 102.01809 -15.588874 
L 101.664322 -15.388514 
L 101.310553 -15.1977 
L 100.956784 -15.018168 
L 100.603015 -14.85165 
L 100.249246 -14.69988 
L 99.895477 -14.564591 
L 99.541709 -14.447517 
L 99.18794 -14.35039 
L 98.834171 -14.274944 
L 98.480402 -14.222914 
L 98.126633 -14.196031 
L 97.772864 -14.196029 
L 97.419095 -14.224642 
L 97.065327 -14.283604 
L 96.711558 -14.374638 
L 96.357789 -14.498386 
L 96.00402 -14.653391 
L 95.650251 -14.837951 
L 95.296482 -15.050367 
L 94.942714 -15.288937 
L 94.588945 -15.551961 
L 94.235176 -15.837739 
L 93.881407 -16.14457 
L 93.527638 -16.470754 
L 93.173869 -16.81459 
L 92.820101 -17.174379 
L 92.466332 -17.548419 
L 92.112563 -17.93501 
L 91.758794 -18.332451 
L 91.405025 -18.739043 
L 91.051256 -19.153085 
L 90.697487 -19.572876 
L 90.343719 -19.996715 
L 89.98995 -20.422904 
L 89.636181 -20.84974 
L 89.282412 -21.275524 
L 88.928643 -21.698555 
L 88.574874 -22.117132 
L 88.221106 -22.529556 
L 87.867337 -22.934134 
L 87.513568 -23.329586 
L 87.159799 -23.7152 
L 86.80603 -24.090304 
L 86.452261 -24.454228 
L 86.098492 -24.806303 
L 85.744724 -25.145857 
L 85.390955 -25.47222 
L 85.037186 -25.784722 
L 84.683417 -26.082693 
L 84.329648 -26.365461 
L 83.975879 -26.632357 
L 83.622111 -26.88271 
L 83.268342 -27.11585 
L 82.914573 -27.331107 
L 82.560804 -27.527809 
L 82.207035 -27.705287 
L 81.853266 -27.86287 
L 81.499497 -27.999887 
L 81.145729 -28.11567 
L 80.79196 -28.209546 
L 80.438191 -28.280845 
L 80.084422 -28.328898 
L 79.730653 -28.353034 
L 79.376884 -28.352582 
L 79.023116 -28.326918 
L 78.669347 -28.276498 
L 78.315578 -28.202851 
L 77.961809 -28.107556 
L 77.60804 -27.992191 
L 77.254271 -27.858334 
L 76.900503 -27.707563 
L 76.546734 -27.541456 
L 76.192965 -27.361592 
L 75.839196 -27.169547 
L 75.485427 -26.966901 
L 75.131658 -26.755232 
L 74.777889 -26.536116 
L 74.424121 -26.311134 
L 74.070352 -26.081862 
L 73.716583 -25.849878 
L 73.362814 -25.616761 
L 73.009045 -25.384089 
L 72.655276 -25.153439 
L 72.301508 -24.926391 
L 71.947739 -24.704521 
L 71.59397 -24.489408 
L 71.240201 -24.282631 
L 70.886432 -24.085766 
L 70.532663 -23.900393 
L 70.178894 -23.727982 
L 69.825126 -23.568563 
L 69.471357 -23.421125 
L 69.117588 -23.284633 
L 68.763819 -23.158053 
L 68.41005 -23.040352 
L 68.056281 -22.930495 
L 67.702513 -22.827448 
L 67.348744 -22.730176 
L 66.994975 -22.637647 
L 66.641206 -22.548825 
L 66.287437 -22.462677 
L 65.933668 -22.378168 
L 65.579899 -22.294265 
L 65.226131 -22.209932 
L 64.872362 -22.124137 
L 64.518593 -22.035845 
L 64.164824 -21.944022 
L 63.811055 -21.847634 
L 63.457286 -21.745647 
L 63.103518 -21.637026 
L 62.749749 -21.520737 
L 62.39598 -21.395747 
L 62.042211 -21.261022 
L 61.688442 -21.115526 
L 61.334673 -20.958335 
L 60.980905 -20.789464 
L 60.627136 -20.609413 
L 60.273367 -20.418689 
L 59.919598 -20.217794 
L 59.565829 -20.007235 
L 59.21206 -19.787515 
L 58.858291 -19.559141 
L 58.504523 -19.322615 
L 58.150754 -19.078443 
L 57.796985 -18.827131 
L 57.443216 -18.569181 
L 57.089447 -18.3051 
L 56.735678 -18.035393 
L 56.38191 -17.760562 
L 56.028141 -17.481115 
L 55.674372 -17.197554 
L 55.320603 -16.910386 
L 54.966834 -16.620114 
L 54.613065 -16.327244 
L 54.259296 -16.03228 
L 53.905528 -15.735728 
L 53.551759 -15.43809 
L 53.19799 -15.139874 
L 52.844221 -14.841582 
L 52.490452 -14.543721 
L 52.136683 -14.246794 
L 51.782915 -13.951306 
L 51.429146 -13.657763 
L 51.075377 -13.366669 
L 50.721608 -13.078528 
L 50.367839 -12.793846 
L 50.01407 -12.513127 
L 49.660302 -12.236876 
L 49.306533 -11.965597 
L 48.952764 -11.699796 
L 48.598995 -11.439977 
L 48.245226 -11.186645 
L 47.891457 -10.940305 
L 47.537688 -10.701461 
L 47.18392 -10.470618 
L 46.830151 -10.248281 
L 46.476382 -10.034954 
L 46.122613 -9.831143 
L 45.768844 -9.637352 
L 45.415075 -9.454085 
L 45.061307 -9.281849 
L 44.707538 -9.121146 
L 44.353769 -8.972483 
L 44 -8.836364 
z
" style="stroke: #999999; stroke-opacity: 0.3"/>
    </defs>
    <g clip-path="url(#p7488965cc9)">
     <use xlink:href="#me4eba5ba12" x="0" y="194.4" style="fill: #999999; fill-opacity: 0.3; stroke: #999999; stroke-opacity: 0.3"/>
    </g>
   </g>
   <g id="line2d_3">
    <path d="M 0 176.36943 
L 158.4 176.36943 
" clip-path="url(#p7488965cc9)" style="fill: none; stroke: #000000; stroke-width: 0.5; stroke-linecap: square"/>
   </g>
   <g id="matplotlib.axis_1"/>
   <g id="matplotlib.axis_2"/>
   <g id="line2d_4">
    <path d="M 44 64.301128 
L 45.061307 62.696132 
L 46.122613 61.438805 
L 47.18392 60.519061 
L 48.245226 59.926811 
L 49.306533 59.651967 
L 50.367839 59.684441 
L 51.429146 60.014146 
L 52.490452 60.630993 
L 53.551759 61.524895 
L 54.613065 62.685764 
L 56.028141 64.631435 
L 57.443216 67.009867 
L 58.858291 69.797149 
L 60.627136 73.819766 
L 62.749749 79.308515 
L 64.164824 82.743616 
L 65.226131 84.670035 
L 65.933668 85.464708 
L 66.287437 85.679137 
L 66.641206 85.755616 
L 66.994975 85.682137 
L 67.348744 85.446692 
L 67.702513 85.037271 
L 68.41005 83.648469 
L 69.117588 81.419665 
L 69.825126 78.25479 
L 70.532663 74.058143 
L 71.59397 65.883941 
L 73.009045 52.640104 
L 75.839196 25.235467 
L 76.900503 17.09195 
L 77.60804 12.952391 
L 78.315578 10.121388 
L 78.669347 9.27079 
L 79.023116 8.836364 
L 79.376884 8.846548 
L 79.730653 9.301255 
L 80.084422 10.171871 
L 80.79196 13.041416 
L 81.499497 17.216355 
L 82.560804 25.403938 
L 83.975879 38.660525 
L 86.80603 66.031045 
L 87.867337 74.126781 
L 88.574874 78.250416 
L 89.282412 81.32844 
L 89.98995 83.461021 
L 90.697487 84.7487 
L 91.051256 85.10712 
L 91.405025 85.292018 
L 91.758794 85.315961 
L 92.112563 85.191516 
L 92.820101 84.547736 
L 93.527638 83.461217 
L 94.588945 81.22124 
L 96.711558 75.788761 
L 98.126633 72.436845 
L 99.541709 69.55272 
L 100.956784 67.111463 
L 102.371859 65.088118 
L 103.786935 63.457727 
L 105.20201 62.195334 
L 106.617085 61.275982 
L 108.032161 60.674713 
L 109.447236 60.366571 
L 110.862312 60.326599 
L 112.277387 60.529841 
L 113.692462 60.951339 
L 114.4 61.236135 
L 114.4 61.236135 
" clip-path="url(#p7488965cc9)" style="fill: none; stroke: #333333; stroke-width: 1.5; stroke-linecap: square"/>
   </g>
   <g id="line2d_5">
    <defs>
     <path id="m0bba4e4ca9" d="M 0 1 
C 0.265203 1 0.51958 0.894634 0.707107 0.707107 
C 0.894634 0.51958 1 0.265203 1 0 
C 1 -0.265203 0.894634 -0.51958 0.707107 -0.707107 
C 0.51958 -0.894634 0.265203 -1 0 -1 
C -0.265203 -1 -0.51958 -0.894634 -0.707107 -0.707107 
C -0.894634 -0.51958 -1 -0.265203 -1 0 
C -1 0.265203 -0.894634 0.51958 -0.707107 0.707107 
C -0.51958 0.894634 -0.265203 1 0 1 
z
" style="stroke: #333333"/>
    </defs>
    <g clip-path="url(#p7488965cc9)">
     <use xlink:href="#m0bba4e4ca9" x="30.8" y="54.862935" style="fill: #333333; stroke: #333333"/>
    </g>
   </g>
   <g id="line2d_6">
    <g clip-path="url(#p7488965cc9)">
     <use xlink:href="#m0bba4e4ca9" x="22" y="54.862935" style="fill: #333333; stroke: #333333"/>
    </g>
   </g>
   <g id="line2d_7">
    <g clip-path="url(#p7488965cc9)">
     <use xlink:href="#m0bba4e4ca9" x="13.2" y="54.862935" style="fill: #333333; stroke: #333333"/>
    </g>
   </g>
   <g id="line2d_8">
    <g clip-path="url(#p7488965cc9)">
     <use xlink:href="#m0bba4e4ca9" x="127.6" y="54.862935" style="fill: #333333; stroke: #333333"/>
    </g>
   </g>
   <g id="line2d_9">
    <g clip-path="url(#p7488965cc9)">
     <use xlink:href="#m0bba4e4ca9" x="136.4" y="54.862935" style="fill: #333333; stroke: #333333"/>
    </g>
   </g>
   <g id="line2d_10">
    <g clip-path="url(#p7488965cc9)">
     <use xlink:href="#m0bba4e4ca9" x="145.2" y="54.862935" style="fill: #333333; stroke: #333333"/>
    </g>
   </g>
   <g id="line2d_11">
    <path d="M 44 124.219046 
L 45.061307 122.476035 
L 46.122613 121.100978 
L 47.18392 120.068815 
L 48.245226 119.354489 
L 49.306533 118.932939 
L 50.367839 118.779108 
L 51.429146 118.867935 
L 52.490452 119.174363 
L 53.905528 119.878111 
L 55.320603 120.864754 
L 57.089447 122.405391 
L 59.565829 124.928073 
L 63.457286 128.941676 
L 64.518593 129.650665 
L 65.226131 129.89615 
L 65.933668 129.909285 
L 66.641206 129.646688 
L 67.348744 129.064979 
L 68.056281 128.120776 
L 68.763819 126.770697 
L 69.471357 124.971362 
L 70.178894 122.679389 
L 71.240201 118.269702 
L 72.655276 111.057978 
L 75.839196 94.11718 
L 76.900503 89.744823 
L 77.60804 87.547188 
L 78.315578 86.068658 
L 78.669347 85.637974 
L 79.023116 85.433765 
L 79.376884 85.470951 
L 79.730653 85.749537 
L 80.084422 86.254618 
L 80.79196 87.882041 
L 81.499497 90.228784 
L 82.560804 94.825414 
L 83.975879 102.310455 
L 87.159799 119.965713 
L 88.221106 124.608822 
L 89.282412 128.09245 
L 89.98995 129.812458 
L 90.697487 131.097647 
L 91.405025 131.988399 
L 92.112563 132.525095 
L 92.820101 132.748114 
L 93.527638 132.697837 
L 94.235176 132.414645 
L 95.296482 131.641473 
L 96.711558 130.17226 
L 98.834171 127.557037 
L 105.555779 118.923151 
L 107.324623 117.160405 
L 108.739698 116.070541 
L 109.801005 115.481887 
L 110.862312 115.119217 
L 111.923618 115.009454 
L 112.984925 115.179526 
L 114.046231 115.656355 
L 114.4 115.888121 
L 114.4 115.888121 
" clip-path="url(#p7488965cc9)" style="fill: none; stroke: #666666; stroke-width: 1.5; stroke-linecap: square"/>
   </g>
   <g id="line2d_12">
    <defs>
     <path id="mb13e6fddd4" d="M 0 1 
C 0.265203 1 0.51958 0.894634 0.707107 0.707107 
C 0.894634 0.51958 1 0.265203 1 0 
C 1 -0.265203 0.894634 -0.51958 0.707107 -0.707107 
C 0.51958 -0.894634 0.265203 -1 0 -1 
C -0.265203 -1 -0.51958 -0.894634 -0.707107 -0.707107 
C -0.894634 -0.51958 -1 -0.265203 -1 0 
C -1 0.265203 -0.894634 0.51958 -0.707107 0.707107 
C -0.51958 0.894634 -0.265203 1 0 1 
z
" style="stroke: #666666"/>
    </defs>
    <g clip-path="url(#p7488965cc9)">
     <use xlink:href="#mb13e6fddd4" x="30.8" y="112.723171" style="fill: #666666; stroke: #666666"/>
    </g>
   </g>
   <g id="line2d_13">
    <g clip-path="url(#p7488965cc9)">
     <use xlink:href="#mb13e6fddd4" x="22" y="112.723171" style="fill: #666666; stroke: #666666"/>
    </g>
   </g>
   <g id="line2d_14">
    <g clip-path="url(#p7488965cc9)">
     <use xlink:href="#mb13e6fddd4" x="13.2" y="112.723171" style="fill: #666666; stroke: #666666"/>
    </g>
   </g>
   <g id="line2d_15">
    <g clip-path="url(#p7488965cc9)">
     <use xlink:href="#mb13e6fddd4" x="127.6" y="112.723171" style="fill: #666666; stroke: #666666"/>
    </g>
   </g>
   <g id="line2d_16">
    <g clip-path="url(#p7488965cc9)">
     <use xlink:href="#mb13e6fddd4" x="136.4" y="112.723171" style="fill: #666666; stroke: #666666"/>
    </g>
   </g>
   <g id="line2d_17">
    <g clip-path="url(#p7488965cc9)">
     <use xlink:href="#mb13e6fddd4" x="145.2" y="112.723171" style="fill: #666666; stroke: #666666"/>
    </g>
   </g>
   <g id="line2d_18">
    <path d="M 44 185.563636 
L 45.415075 184.945915 
L 47.18392 183.929382 
L 49.306533 182.434403 
L 52.490452 179.856279 
L 57.443216 175.830819 
L 59.565829 174.392765 
L 61.334673 173.441665 
L 63.103518 172.762974 
L 65.579899 172.105735 
L 68.763819 171.241947 
L 70.532663 170.499607 
L 72.301508 169.473609 
L 76.546734 166.858544 
L 77.961809 166.292444 
L 79.023116 166.073082 
L 80.084422 166.071102 
L 81.145729 166.28433 
L 82.207035 166.694713 
L 83.622111 167.51729 
L 85.037186 168.615278 
L 86.80603 170.309696 
L 88.928643 172.701445 
L 92.820101 177.225621 
L 94.235176 178.562261 
L 95.296482 179.349633 
L 96.357789 179.901614 
L 97.419095 180.175358 
L 98.480402 180.177086 
L 99.541709 179.952483 
L 100.956784 179.381832 
L 102.725628 178.388695 
L 106.263317 176.293029 
L 107.678392 175.721308 
L 108.739698 175.495607 
L 109.801005 175.495985 
L 110.862312 175.769243 
L 111.923618 176.362181 
L 112.984925 177.321601 
L 114.046231 178.694304 
L 114.4 179.251801 
L 114.4 179.251801 
" clip-path="url(#p7488965cc9)" style="fill: none; stroke: #999999; stroke-width: 1.5; stroke-linecap: square"/>
   </g>
   <g id="line2d_19">
    <defs>
     <path id="m6ab4a34216" d="M 0 1 
C 0.265203 1 0.51958 0.894634 0.707107 0.707107 
C 0.894634 0.51958 1 0.265203 1 0 
C 1 -0.265203 0.894634 -0.51958 0.707107 -0.707107 
C 0.51958 -0.894634 0.265203 -1 0 -1 
C -0.265203 -1 -0.51958 -0.894634 -0.707107 -0.707107 
C -0.894634 -0.51958 -1 -0.265203 -1 0 
C -1 0.265203 -0.894634 0.51958 -0.707107 0.707107 
C -0.51958 0.894634 -0.265203 1 0 1 
z
" style="stroke: #999999"/>
    </defs>
    <g clip-path="url(#p7488965cc9)">
     <use xlink:href="#m6ab4a34216" x="30.8" y="170.583406" style="fill: #999999; stroke: #999999"/>
    </g>
   </g>
   <g id="line2d_20">
    <g clip-path="url(#p7488965cc9)">
     <use xlink:href="#m6ab4a34216" x="22" y="170.583406" style="fill: #999999; stroke: #999999"/>
    </g>
   </g>
   <g id="line2d_21">
    <g clip-path="url(#p7488965cc9)">
     <use xlink:href="#m6ab4a34216" x="13.2" y="170.583406" style="fill: #999999; stroke: #999999"/>
    </g>
   </g>
   <g id="line2d_22">
    <g clip-path="url(#p7488965cc9)">
     <use xlink:href="#m6ab4a34216" x="127.6" y="170.583406" style="fill: #999999; stroke: #999999"/>
    </g>
   </g>
   <g id="line2d_23">
    <g clip-path="url(#p7488965cc9)">
     <use xlink:href="#m6ab4a34216" x="136.4" y="170.583406" style="fill: #999999; stroke: #999999"/>
    </g>
   </g>
   <g id="line2d_24">
    <g clip-path="url(#p7488965cc9)">
     <use xlink:href="#m6ab4a34216" x="145.2" y="170.583406" style="fill: #999999; stroke: #999999"/>
    </g>
   </g>
   <g id="patch_3">
    <path d="M 0 194.4 
L 158.4 194.4 
" style="fill: none; stroke: #000000; stroke-width: 0.8; stroke-linejoin: miter; stroke-linecap: square"/>
   </g>
  </g>
 </g>
 <defs>
  <clipPath id="p7488965cc9">
   <rect x="0" y="-0" width="158.4" height="194.4"/>
  </clipPath>
 </defs>
</svg>
