<?xml version="1.0" encoding="utf-8" standalone="no"?>
<!DOCTYPE svg PUBLIC "-//W3C//DTD SVG 1.1//EN"
  "http://www.w3.org/Graphics/SVG/1.1/DTD/svg11.dtd">
<svg xmlns:xlink="http://www.w3.org/1999/xlink" width="108pt" height="72pt" viewBox="0 0 108 72" xmlns="http://www.w3.org/2000/svg" version="1.1">
 <metadata>
  <rdf:RDF xmlns:dc="http://purl.org/dc/elements/1.1/" xmlns:cc="http://creativecommons.org/ns#" xmlns:rdf="http://www.w3.org/1999/02/22-rdf-syntax-ns#">
   <cc:Work>
    <dc:type rdf:resource="http://purl.org/dc/dcmitype/StillImage"/>
    <dc:date>2026-05-09T22:43:35.445855</dc:date>
    <dc:format>image/svg+xml</dc:format>
    <dc:creator>
     <cc:Agent>
      <dc:title>Matplotlib v3.8.0, https://matplotlib.org/</dc:title>
     </cc:Agent>
    </dc:creator>
   </cc:Work>
  </rdf:RDF>
 </metadata>
 <defs>
  <style type="text/css">*{stroke-linejoin: round; stroke-linecap: butt}</style>
 </defs>
 <g id="figure_1">
  <g id="patch_1">
   <path d="M 0 72 
L 108 72 
L 108 -0 
L 0 -0 
L 0 72 
z
" style="fill: none"/>
  </g>
  <g id="axes_1">
   <g id="patch_2">
    <path d="M 0 72 
L 108 72 
L 108 0 
L 0 0 
L 0 72 
z
" style="fill: none"/>
   </g>
   <g id="PolyCollection_1">
    <defs>
     <path id="mc3fe4ee7fe" d="M 27 -39.60307 
L 27 -41.520802 
L 27.217085 -41.520802 
L 27.434171 -41.520802 
L 27.651256 -41.520802 
L 27.868342 -41.520802 
L 28.085427 -41.520802 
L 28.302513 -41.520802 
L 28.519598 -41.520802 
L 28.736683 -41.520802 
L 28.953769 -41.520802 
L 29.170854 -41.520802 
L 29.38794 -41.520802 
L 29.605025 -41.520802 
L 29.822111 -41.520802 
L 30.039196 -41.520802 
L 30.256281 -41.520802 
L 30.473367 -41.520802 
L 30.690452 -41.520802 
L 30.907538 -41.520802 
L 31.124623 -41.520802 
L 31.341709 -41.520802 
L 31.558794 -41.520802 
L 31.775879 -41.520802 
L 31.992965 -41.520802 
L 32.21005 -41.520802 
L 32.427136 -41.520802 
L 32.644221 -41.520802 
L 32.861307 -41.520802 
L 33.078392 -41.520802 
L 33.295477 -41.520802 
L 33.512563 -41.520802 
L 33.729648 -41.520802 
L 33.946734 -41.520802 
L 34.163819 -41.520802 
L 34.380905 -41.520802 
L 34.59799 -41.520802 
L 34.815075 -41.520802 
L 35.032161 -41.520802 
L 35.249246 -41.520802 
L 35.466332 -41.520802 
L 35.683417 -41.520802 
L 35.900503 -41.520802 
L 36.117588 -41.520802 
L 36.334673 -41.520802 
L 36.551759 -41.520802 
L 36.768844 -41.520802 
L 36.98593 -41.520802 
L 37.203015 -41.520802 
L 37.420101 -41.520802 
L 37.637186 -41.520802 
L 37.854271 -41.520802 
L 38.071357 -41.520802 
L 38.288442 -41.520802 
L 38.505528 -41.520802 
L 38.722613 -41.520802 
L 38.939698 -41.520802 
L 39.156784 -41.520802 
L 39.373869 -41.520802 
L 39.590955 -41.520802 
L 39.80804 -41.520802 
L 40.025126 -41.520802 
L 40.242211 -41.520802 
L 40.459296 -41.520802 
L 40.676382 -41.520802 
L 40.893467 -41.520802 
L 41.110553 -41.520802 
L 41.327638 -41.520802 
L 41.544724 -41.520802 
L 41.761809 -41.520802 
L 41.978894 -41.520802 
L 42.19598 -41.520802 
L 42.413065 -41.520802 
L 42.630151 -41.520802 
L 42.847236 -41.520802 
L 43.064322 -41.520802 
L 43.281407 -41.520802 
L 43.498492 -41.520802 
L 43.715578 -41.520802 
L 43.932663 -41.520802 
L 44.149749 -41.520802 
L 44.366834 -41.520802 
L 44.58392 -41.520802 
L 44.801005 -41.520802 
L 45.01809 -41.520802 
L 45.235176 -41.520802 
L 45.452261 -41.520802 
L 45.669347 -41.520802 
L 45.886432 -41.520802 
L 46.103518 -41.520802 
L 46.320603 -41.520802 
L 46.537688 -41.520802 
L 46.754774 -41.520802 
L 46.971859 -41.520802 
L 47.188945 -41.520802 
L 47.40603 -41.520802 
L 47.623116 -41.520802 
L 47.840201 -41.520802 
L 48.057286 -41.520802 
L 48.274372 -41.520802 
L 48.491457 -41.520802 
L 48.708543 -41.520802 
L 48.925628 -41.520802 
L 49.142714 -41.520802 
L 49.359799 -41.520802 
L 49.576884 -41.520802 
L 49.79397 -41.520802 
L 50.011055 -41.520802 
L 50.228141 -41.520802 
L 50.445226 -41.520802 
L 50.662312 -41.520802 
L 50.879397 -41.520802 
L 51.096482 -41.520802 
L 51.313568 -41.520802 
L 51.530653 -41.520802 
L 51.747739 -41.520802 
L 51.964824 -41.520802 
L 52.18191 -41.520802 
L 52.398995 -41.520802 
L 52.61608 -41.520802 
L 52.833166 -41.520802 
L 53.050251 -41.520802 
L 53.267337 -41.520802 
L 53.484422 -41.520802 
L 53.701508 -41.520802 
L 53.918593 -41.520802 
L 54.135678 -41.520802 
L 54.352764 -41.520802 
L 54.569849 -41.520802 
L 54.786935 -41.520802 
L 55.00402 -41.520802 
L 55.221106 -41.520802 
L 55.438191 -41.520802 
L 55.655276 -41.520802 
L 55.872362 -41.520802 
L 56.089447 -41.520802 
L 56.306533 -41.520802 
L 56.523618 -41.520802 
L 56.740704 -41.520802 
L 56.957789 -41.520802 
L 57.174874 -41.520802 
L 57.39196 -41.520802 
L 57.609045 -41.520802 
L 57.826131 -41.520802 
L 58.043216 -41.520802 
L 58.260302 -41.520802 
L 58.477387 -41.520802 
L 58.694472 -41.520802 
L 58.911558 -41.520802 
L 59.128643 -41.520802 
L 59.345729 -41.520802 
L 59.562814 -41.520802 
L 59.779899 -41.520802 
L 59.996985 -41.520802 
L 60.21407 -41.520802 
L 60.431156 -41.520802 
L 60.648241 -41.520802 
L 60.865327 -41.520802 
L 61.082412 -41.520802 
L 61.299497 -41.520802 
L 61.516583 -41.520802 
L 61.733668 -41.520802 
L 61.950754 -41.520802 
L 62.167839 -41.520802 
L 62.384925 -41.520802 
L 62.60201 -41.520802 
L 62.819095 -41.520802 
L 63.036181 -41.520802 
L 63.253266 -41.520802 
L 63.470352 -41.520802 
L 63.687437 -41.520802 
L 63.904523 -41.520802 
L 64.121608 -41.520802 
L 64.338693 -41.520802 
L 64.555779 -41.520802 
L 64.772864 -41.520802 
L 64.98995 -41.520802 
L 65.207035 -41.520802 
L 65.424121 -41.520802 
L 65.641206 -41.520802 
L 65.858291 -41.520802 
L 66.075377 -41.520802 
L 66.292462 -41.520802 
L 66.509548 -41.520802 
L 66.726633 -41.520802 
L 66.943719 -41.520802 
L 67.160804 -41.520802 
L 67.377889 -41.520802 
L 67.594975 -41.520802 
L 67.81206 -41.520802 
L 68.029146 -41.520802 
L 68.246231 -41.520802 
L 68.463317 -41.520802 
L 68.680402 -41.520802 
L 68.897487 -41.520802 
L 69.114573 -41.520802 
L 69.331658 -41.520802 
L 69.548744 -41.520802 
L 69.765829 -41.520802 
L 69.982915 -41.520802 
L 70.2 -41.520802 
L 70.2 -41.212479 
L 70.2 -41.212479 
L 69.982915 -41.290321 
L 69.765829 -41.362024 
L 69.548744 -41.427383 
L 69.331658 -41.486193 
L 69.114573 -41.538251 
L 68.897487 -41.58335 
L 68.680402 -41.621286 
L 68.463317 -41.651855 
L 68.246231 -41.674851 
L 68.029146 -41.690071 
L 67.81206 -41.697308 
L 67.594975 -41.696359 
L 67.377889 -41.687018 
L 67.160804 -41.669082 
L 66.943719 -41.642344 
L 66.726633 -41.606601 
L 66.509548 -41.561647 
L 66.292462 -41.507279 
L 66.075377 -41.44329 
L 65.858291 -41.369476 
L 65.641206 -41.285633 
L 65.424121 -41.191556 
L 65.207035 -41.08704 
L 64.98995 -40.97188 
L 64.772864 -40.845872 
L 64.555779 -40.70881 
L 64.338693 -40.56049 
L 64.121608 -40.400708 
L 63.904523 -40.229257 
L 63.687437 -40.045935 
L 63.470352 -39.850536 
L 63.253266 -39.642854 
L 63.036181 -39.422686 
L 62.819095 -39.189827 
L 62.60201 -38.944072 
L 62.384925 -38.685215 
L 62.167839 -38.413053 
L 61.950754 -38.127381 
L 61.733668 -37.827993 
L 61.516583 -37.514686 
L 61.299497 -37.187254 
L 61.082412 -36.845492 
L 60.865327 -36.489196 
L 60.648241 -36.118162 
L 60.431156 -35.732183 
L 60.21407 -35.331056 
L 59.996985 -34.914576 
L 59.779899 -34.482538 
L 59.562814 -34.034737 
L 59.345729 -33.570986 
L 59.128643 -33.093242 
L 58.911558 -32.607626 
L 58.694472 -32.120737 
L 58.477387 -31.639175 
L 58.260302 -31.169538 
L 58.043216 -30.718425 
L 57.826131 -30.292436 
L 57.609045 -29.898171 
L 57.39196 -29.542227 
L 57.174874 -29.231205 
L 56.957789 -28.971703 
L 56.740704 -28.770321 
L 56.523618 -28.633658 
L 56.306533 -28.568313 
L 56.089447 -28.580885 
L 55.872362 -28.677974 
L 55.655276 -28.866178 
L 55.438191 -29.152097 
L 55.221106 -29.54233 
L 55.00402 -30.043477 
L 54.786935 -30.662135 
L 54.569849 -31.404905 
L 54.352764 -32.278386 
L 54.135678 -33.289177 
L 53.918593 -34.443682 
L 53.701508 -35.739435 
L 53.484422 -37.161667 
L 53.267337 -38.694702 
L 53.050251 -40.322865 
L 52.833166 -42.030479 
L 52.61608 -43.801869 
L 52.398995 -45.621358 
L 52.18191 -47.473271 
L 51.964824 -49.341931 
L 51.747739 -51.211663 
L 51.530653 -53.066791 
L 51.313568 -54.891639 
L 51.096482 -56.670531 
L 50.879397 -58.387791 
L 50.662312 -60.027743 
L 50.445226 -61.574711 
L 50.228141 -63.013019 
L 50.011055 -64.326991 
L 49.79397 -65.500952 
L 49.576884 -66.519226 
L 49.359799 -67.366136 
L 49.142714 -68.026006 
L 48.925628 -68.483161 
L 48.708543 -68.721925 
L 48.491457 -68.727273 
L 48.274372 -68.499158 
L 48.057286 -68.052514 
L 47.840201 -67.402924 
L 47.623116 -66.565972 
L 47.40603 -65.557241 
L 47.188945 -64.392316 
L 46.971859 -63.086779 
L 46.754774 -61.656214 
L 46.537688 -60.116206 
L 46.320603 -58.482337 
L 46.103518 -56.770192 
L 45.886432 -54.995354 
L 45.669347 -53.173407 
L 45.452261 -51.319935 
L 45.235176 -49.45052 
L 45.01809 -47.580748 
L 44.801005 -45.726202 
L 44.58392 -43.902464 
L 44.366834 -42.12512 
L 44.149749 -40.409753 
L 43.932663 -38.771945 
L 43.715578 -37.227282 
L 43.498492 -35.791347 
L 43.281407 -34.479723 
L 43.064322 -33.307103 
L 42.847236 -32.276089 
L 42.630151 -31.380568 
L 42.413065 -30.614233 
L 42.19598 -29.97078 
L 41.978894 -29.443902 
L 41.761809 -29.027294 
L 41.544724 -28.714651 
L 41.327638 -28.499667 
L 41.110553 -28.376036 
L 40.893467 -28.337452 
L 40.676382 -28.377611 
L 40.459296 -28.490206 
L 40.242211 -28.668933 
L 40.025126 -28.907484 
L 39.80804 -29.199556 
L 39.590955 -29.538841 
L 39.373869 -29.919035 
L 39.156784 -30.333832 
L 38.939698 -30.776926 
L 38.722613 -31.242013 
L 38.505528 -31.722785 
L 38.288442 -32.212938 
L 38.071357 -32.706166 
L 37.854271 -33.196164 
L 37.637186 -33.677054 
L 37.420101 -34.146702 
L 37.203015 -34.604893 
L 36.98593 -35.051432 
L 36.768844 -35.486123 
L 36.551759 -35.908769 
L 36.334673 -36.319175 
L 36.117588 -36.717144 
L 35.900503 -37.10248 
L 35.683417 -37.474987 
L 35.466332 -37.834469 
L 35.249246 -38.180728 
L 35.032161 -38.513571 
L 34.815075 -38.832799 
L 34.59799 -39.138217 
L 34.380905 -39.429628 
L 34.163819 -39.706838 
L 33.946734 -39.969648 
L 33.729648 -40.217864 
L 33.512563 -40.451288 
L 33.295477 -40.669725 
L 33.078392 -40.872979 
L 32.861307 -41.060853 
L 32.644221 -41.233151 
L 32.427136 -41.389677 
L 32.21005 -41.530235 
L 31.992965 -41.654629 
L 31.775879 -41.762662 
L 31.558794 -41.854138 
L 31.341709 -41.928861 
L 31.124623 -41.986635 
L 30.907538 -42.027264 
L 30.690452 -42.050551 
L 30.473367 -42.056301 
L 30.256281 -42.044316 
L 30.039196 -42.014402 
L 29.822111 -41.966361 
L 29.605025 -41.899997 
L 29.38794 -41.815115 
L 29.170854 -41.711518 
L 28.953769 -41.58901 
L 28.736683 -41.447395 
L 28.519598 -41.286477 
L 28.302513 -41.106058 
L 28.085427 -40.905944 
L 27.868342 -40.685938 
L 27.651256 -40.445844 
L 27.434171 -40.185466 
L 27.217085 -39.904606 
L 27 -39.60307 
z
" style="stroke: #333333; stroke-opacity: 0.3"/>
    </defs>
    <g clip-path="url(#p35f65c5a23)">
     <use xlink:href="#mc3fe4ee7fe" x="0" y="72" style="fill: #333333; fill-opacity: 0.3; stroke: #333333; stroke-opacity: 0.3"/>
    </g>
   </g>
   <g id="line2d_1">
    <path d="M 0 30.479198 
L 108 30.479198 
" clip-path="url(#p35f65c5a23)" style="fill: none; stroke: #000000; stroke-width: 0.5; stroke-linecap: square"/>
   </g>
   <g id="PolyCollection_2">
    <defs>
     <path id="ma212594c50" d="M 27 -3.272727 
L 27 -8.100548 
L 27.217085 -8.100548 
L 27.434171 -8.100548 
L 27.651256 -8.100548 
L 27.868342 -8.100548 
L 28.085427 -8.100548 
L 28.302513 -8.100548 
L 28.519598 -8.100548 
L 28.736683 -8.100548 
L 28.953769 -8.100548 
L 29.170854 -8.100548 
L 29.38794 -8.100548 
L 29.605025 -8.100548 
L 29.822111 -8.100548 
L 30.039196 -8.100548 
L 30.256281 -8.100548 
L 30.473367 -8.100548 
L 30.690452 -8.100548 
L 30.907538 -8.100548 
L 31.124623 -8.100548 
L 31.341709 -8.100548 
L 31.558794 -8.100548 
L 31.775879 -8.100548 
L 31.992965 -8.100548 
L 32.21005 -8.100548 
L 32.427136 -8.100548 
L 32.644221 -8.100548 
L 32.861307 -8.100548 
L 33.078392 -8.100548 
L 33.295477 -8.100548 
L 33.512563 -8.100548 
L 33.729648 -8.100548 
L 33.946734 -8.100548 
L 34.163819 -8.100548 
L 34.380905 -8.100548 
L 34.59799 -8.100548 
L 34.815075 -8.100548 
L 35.032161 -8.100548 
L 35.249246 -8.100548 
L 35.466332 -8.100548 
L 35.683417 -8.100548 
L 35.900503 -8.100548 
L 36.117588 -8.100548 
L 36.334673 -8.100548 
L 36.551759 -8.100548 
L 36.768844 -8.100548 
L 36.98593 -8.100548 
L 37.203015 -8.100548 
L 37.420101 -8.100548 
L 37.637186 -8.100548 
L 37.854271 -8.100548 
L 38.071357 -8.100548 
L 38.288442 -8.100548 
L 38.505528 -8.100548 
L 38.722613 -8.100548 
L 38.939698 -8.100548 
L 39.156784 -8.100548 
L 39.373869 -8.100548 
L 39.590955 -8.100548 
L 39.80804 -8.100548 
L 40.025126 -8.100548 
L 40.242211 -8.100548 
L 40.459296 -8.100548 
L 40.676382 -8.100548 
L 40.893467 -8.100548 
L 41.110553 -8.100548 
L 41.327638 -8.100548 
L 41.544724 -8.100548 
L 41.761809 -8.100548 
L 41.978894 -8.100548 
L 42.19598 -8.100548 
L 42.413065 -8.100548 
L 42.630151 -8.100548 
L 42.847236 -8.100548 
L 43.064322 -8.100548 
L 43.281407 -8.100548 
L 43.498492 -8.100548 
L 43.715578 -8.100548 
L 43.932663 -8.100548 
L 44.149749 -8.100548 
L 44.366834 -8.100548 
L 44.58392 -8.100548 
L 44.801005 -8.100548 
L 45.01809 -8.100548 
L 45.235176 -8.100548 
L 45.452261 -8.100548 
L 45.669347 -8.100548 
L 45.886432 -8.100548 
L 46.103518 -8.100548 
L 46.320603 -8.100548 
L 46.537688 -8.100548 
L 46.754774 -8.100548 
L 46.971859 -8.100548 
L 47.188945 -8.100548 
L 47.40603 -8.100548 
L 47.623116 -8.100548 
L 47.840201 -8.100548 
L 48.057286 -8.100548 
L 48.274372 -8.100548 
L 48.491457 -8.100548 
L 48.708543 -8.100548 
L 48.925628 -8.100548 
L 49.142714 -8.100548 
L 49.359799 -8.100548 
L 49.576884 -8.100548 
L 49.79397 -8.100548 
L 50.011055 -8.100548 
L 50.228141 -8.100548 
L 50.445226 -8.100548 
L 50.662312 -8.100548 
L 50.879397 -8.100548 
L 51.096482 -8.100548 
L 51.313568 -8.100548 
L 51.530653 -8.100548 
L 51.747739 -8.100548 
L 51.964824 -8.100548 
L 52.18191 -8.100548 
L 52.398995 -8.100548 
L 52.61608 -8.100548 
L 52.833166 -8.100548 
L 53.050251 -8.100548 
L 53.267337 -8.100548 
L 53.484422 -8.100548 
L 53.701508 -8.100548 
L 53.918593 -8.100548 
L 54.135678 -8.100548 
L 54.352764 -8.100548 
L 54.569849 -8.100548 
L 54.786935 -8.100548 
L 55.00402 -8.100548 
L 55.221106 -8.100548 
L 55.438191 -8.100548 
L 55.655276 -8.100548 
L 55.872362 -8.100548 
L 56.089447 -8.100548 
L 56.306533 -8.100548 
L 56.523618 -8.100548 
L 56.740704 -8.100548 
L 56.957789 -8.100548 
L 57.174874 -8.100548 
L 57.39196 -8.100548 
L 57.609045 -8.100548 
L 57.826131 -8.100548 
L 58.043216 -8.100548 
L 58.260302 -8.100548 
L 58.477387 -8.100548 
L 58.694472 -8.100548 
L 58.911558 -8.100548 
L 59.128643 -8.100548 
L 59.345729 -8.100548 
L 59.562814 -8.100548 
L 59.779899 -8.100548 
L 59.996985 -8.100548 
L 60.21407 -8.100548 
L 60.431156 -8.100548 
L 60.648241 -8.100548 
L 60.865327 -8.100548 
L 61.082412 -8.100548 
L 61.299497 -8.100548 
L 61.516583 -8.100548 
L 61.733668 -8.100548 
L 61.950754 -8.100548 
L 62.167839 -8.100548 
L 62.384925 -8.100548 
L 62.60201 -8.100548 
L 62.819095 -8.100548 
L 63.036181 -8.100548 
L 63.253266 -8.100548 
L 63.470352 -8.100548 
L 63.687437 -8.100548 
L 63.904523 -8.100548 
L 64.121608 -8.100548 
L 64.338693 -8.100548 
L 64.555779 -8.100548 
L 64.772864 -8.100548 
L 64.98995 -8.100548 
L 65.207035 -8.100548 
L 65.424121 -8.100548 
L 65.641206 -8.100548 
L 65.858291 -8.100548 
L 66.075377 -8.100548 
L 66.292462 -8.100548 
L 66.509548 -8.100548 
L 66.726633 -8.100548 
L 66.943719 -8.100548 
L 67.160804 -8.100548 
L 67.377889 -8.100548 
L 67.594975 -8.100548 
L 67.81206 -8.100548 
L 68.029146 -8.100548 
L 68.246231 -8.100548 
L 68.463317 -8.100548 
L 68.680402 -8.100548 
L 68.897487 -8.100548 
L 69.114573 -8.100548 
L 69.331658 -8.100548 
L 69.548744 -8.100548 
L 69.765829 -8.100548 
L 69.982915 -8.100548 
L 70.2 -8.100548 
L 70.2 -6.587033 
L 70.2 -6.587033 
L 69.982915 -6.879771 
L 69.765829 -7.145666 
L 69.548744 -7.385629 
L 69.331658 -7.600569 
L 69.114573 -7.791396 
L 68.897487 -7.959021 
L 68.680402 -8.104354 
L 68.463317 -8.228305 
L 68.246231 -8.331785 
L 68.029146 -8.415702 
L 67.81206 -8.480969 
L 67.594975 -8.528494 
L 67.377889 -8.559188 
L 67.160804 -8.573962 
L 66.943719 -8.573724 
L 66.726633 -8.559387 
L 66.509548 -8.531859 
L 66.292462 -8.492051 
L 66.075377 -8.440873 
L 65.858291 -8.379235 
L 65.641206 -8.308048 
L 65.424121 -8.228221 
L 65.207035 -8.140666 
L 64.98995 -8.046291 
L 64.772864 -7.946007 
L 64.555779 -7.840725 
L 64.338693 -7.731355 
L 64.121608 -7.618806 
L 63.904523 -7.503989 
L 63.687437 -7.387814 
L 63.470352 -7.271192 
L 63.253266 -7.155032 
L 63.036181 -7.040245 
L 62.819095 -6.92774 
L 62.60201 -6.818429 
L 62.384925 -6.71322 
L 62.167839 -6.613026 
L 61.950754 -6.518754 
L 61.733668 -6.431317 
L 61.516583 -6.351623 
L 61.299497 -6.280584 
L 61.082412 -6.219109 
L 60.865327 -6.168108 
L 60.648241 -6.128492 
L 60.431156 -6.101171 
L 60.21407 -6.087055 
L 59.996985 -6.087054 
L 59.779899 -6.102079 
L 59.562814 -6.133039 
L 59.345729 -6.18084 
L 59.128643 -6.24582 
L 58.911558 -6.327212 
L 58.694472 -6.424124 
L 58.477387 -6.535662 
L 58.260302 -6.660933 
L 58.043216 -6.799046 
L 57.826131 -6.949106 
L 57.609045 -7.110221 
L 57.39196 -7.281498 
L 57.174874 -7.462044 
L 56.957789 -7.650967 
L 56.740704 -7.847373 
L 56.523618 -8.05037 
L 56.306533 -8.259064 
L 56.089447 -8.472563 
L 55.872362 -8.689973 
L 55.655276 -8.910403 
L 55.438191 -9.132958 
L 55.221106 -9.356747 
L 55.00402 -9.580876 
L 54.786935 -9.804453 
L 54.569849 -10.026584 
L 54.352764 -10.246376 
L 54.135678 -10.462937 
L 53.918593 -10.675379 
L 53.701508 -10.883028 
L 53.484422 -11.085511 
L 53.267337 -11.282476 
L 53.050251 -11.473571 
L 52.833166 -11.658443 
L 52.61608 -11.836741 
L 52.398995 -12.008112 
L 52.18191 -12.172205 
L 51.964824 -12.328667 
L 51.747739 -12.477147 
L 51.530653 -12.617293 
L 51.313568 -12.748751 
L 51.096482 -12.871172 
L 50.879397 -12.984202 
L 50.662312 -13.087489 
L 50.445226 -13.180681 
L 50.228141 -13.263427 
L 50.011055 -13.335374 
L 49.79397 -13.396171 
L 49.576884 -13.445464 
L 49.359799 -13.482903 
L 49.142714 -13.508136 
L 48.925628 -13.520809 
L 48.708543 -13.520572 
L 48.491457 -13.507096 
L 48.274372 -13.480621 
L 48.057286 -13.441949 
L 47.840201 -13.39191 
L 47.623116 -13.331333 
L 47.40603 -13.261045 
L 47.188945 -13.181877 
L 46.971859 -13.094655 
L 46.754774 -13.000209 
L 46.537688 -12.899368 
L 46.320603 -12.79296 
L 46.103518 -12.681813 
L 45.886432 -12.566757 
L 45.669347 -12.44862 
L 45.452261 -12.328231 
L 45.235176 -12.206418 
L 45.01809 -12.084009 
L 44.801005 -11.961835 
L 44.58392 -11.840722 
L 44.366834 -11.7215 
L 44.149749 -11.604998 
L 43.932663 -11.492044 
L 43.715578 -11.383466 
L 43.498492 -11.280094 
L 43.281407 -11.182755 
L 43.064322 -11.092223 
L 42.847236 -11.008514 
L 42.630151 -10.931095 
L 42.413065 -10.859424 
L 42.19598 -10.792957 
L 41.978894 -10.731153 
L 41.761809 -10.673468 
L 41.544724 -10.619358 
L 41.327638 -10.568282 
L 41.110553 -10.519695 
L 40.893467 -10.473055 
L 40.676382 -10.427819 
L 40.459296 -10.383444 
L 40.242211 -10.339387 
L 40.025126 -10.295105 
L 39.80804 -10.250054 
L 39.590955 -10.203693 
L 39.373869 -10.155477 
L 39.156784 -10.104864 
L 38.939698 -10.051311 
L 38.722613 -9.994275 
L 38.505528 -9.933213 
L 38.288442 -9.867581 
L 38.071357 -9.796838 
L 37.854271 -9.720439 
L 37.637186 -9.637899 
L 37.420101 -9.549226 
L 37.203015 -9.454682 
L 36.98593 -9.354534 
L 36.768844 -9.249046 
L 36.551759 -9.138482 
L 36.334673 -9.023109 
L 36.117588 -8.903191 
L 35.900503 -8.778992 
L 35.683417 -8.65078 
L 35.466332 -8.518817 
L 35.249246 -8.383369 
L 35.032161 -8.244702 
L 34.815075 -8.10308 
L 34.59799 -7.958768 
L 34.380905 -7.812032 
L 34.163819 -7.663136 
L 33.946734 -7.512346 
L 33.729648 -7.359926 
L 33.512563 -7.206142 
L 33.295477 -7.051258 
L 33.078392 -6.89554 
L 32.861307 -6.739253 
L 32.644221 -6.582661 
L 32.427136 -6.42603 
L 32.21005 -6.269625 
L 31.992965 -6.11371 
L 31.775879 -5.958552 
L 31.558794 -5.804414 
L 31.341709 -5.651562 
L 31.124623 -5.500261 
L 30.907538 -5.350777 
L 30.690452 -5.203373 
L 30.473367 -5.058315 
L 30.256281 -4.915868 
L 30.039196 -4.776298 
L 29.822111 -4.639869 
L 29.605025 -4.506845 
L 29.38794 -4.377494 
L 29.170854 -4.252078 
L 28.953769 -4.130864 
L 28.736683 -4.014116 
L 28.519598 -3.9021 
L 28.302513 -3.79508 
L 28.085427 -3.693321 
L 27.868342 -3.597089 
L 27.651256 -3.506649 
L 27.434171 -3.422265 
L 27.217085 -3.344203 
L 27 -3.272727 
z
" style="stroke: #999999; stroke-opacity: 0.3"/>
    </defs>
    <g clip-path="url(#p35f65c5a23)">
     <use xlink:href="#ma212594c50" x="0" y="72" style="fill: #999999; fill-opacity: 0.3; stroke: #999999; stroke-opacity: 0.3"/>
    </g>
   </g>
   <g id="line2d_2">
    <path d="M 0 63.899452 
L 108 63.899452 
" clip-path="url(#p35f65c5a23)" style="fill: none; stroke: #000000; stroke-width: 0.5; stroke-linecap: square"/>
   </g>
   <g id="matplotlib.axis_1"/>
   <g id="matplotlib.axis_2"/>
   <g id="line2d_3">
    <path d="M 27 32.39693 
L 27.868342 31.314062 
L 28.736683 30.552605 
L 29.605025 30.100003 
L 30.473367 29.943699 
L 31.341709 30.071139 
L 32.21005 30.469765 
L 33.078392 31.127021 
L 34.163819 32.293162 
L 35.249246 33.819272 
L 36.551759 36.091231 
L 37.854271 38.803836 
L 39.590955 42.461159 
L 40.242211 43.331067 
L 40.676382 43.622389 
L 41.110553 43.623964 
L 41.544724 43.285349 
L 41.978894 42.556098 
L 42.413065 41.385767 
L 43.064322 38.692897 
L 43.715578 34.772718 
L 44.801005 26.273798 
L 46.754774 10.343786 
L 47.40603 6.442759 
L 47.840201 4.597076 
L 48.274372 3.500842 
L 48.491457 3.272727 
L 48.708543 3.278075 
L 48.925628 3.516839 
L 49.359799 4.633864 
L 49.79397 6.499048 
L 50.445226 10.425289 
L 51.530653 18.933209 
L 53.484422 34.838333 
L 54.135678 38.710823 
L 54.786935 41.337865 
L 55.221106 42.45767 
L 55.655276 43.133822 
L 56.089447 43.419115 
L 56.523618 43.366342 
L 56.957789 43.028297 
L 57.609045 42.101829 
L 58.477387 40.360825 
L 60.431156 36.267817 
L 61.733668 34.172007 
L 62.819095 32.810173 
L 63.904523 31.770743 
L 64.98995 31.02812 
L 66.075377 30.55671 
L 67.160804 30.330918 
L 68.246231 30.325149 
L 69.548744 30.572617 
L 70.2 30.787521 
L 70.2 30.787521 
" clip-path="url(#p35f65c5a23)" style="fill: none; stroke: #333333; stroke-width: 1.5; stroke-linecap: square"/>
   </g>
   <g id="line2d_4">
    <path d="M 0 16.807276 
L 108 16.807276 
" clip-path="url(#p35f65c5a23)" style="fill: none; stroke-dasharray: 5.55,2.4; stroke-dashoffset: 0; stroke: #dc143c; stroke-opacity: 0.8; stroke-width: 1.5"/>
   </g>
   <g id="line2d_5">
    <defs>
     <path id="mb3129b7f0e" d="M 0 0.5 
C 0.132602 0.5 0.25979 0.447317 0.353553 0.353553 
C 0.447317 0.25979 0.5 0.132602 0.5 0 
C 0.5 -0.132602 0.447317 -0.25979 0.353553 -0.353553 
C 0.25979 -0.447317 0.132602 -0.5 0 -0.5 
C -0.132602 -0.5 -0.25979 -0.447317 -0.353553 -0.353553 
C -0.447317 -0.25979 -0.5 -0.132602 -0.5 0 
C -0.5 0.132602 -0.447317 0.25979 -0.353553 0.353553 
C -0.25979 0.447317 -0.132602 0.5 0 0.5 
z
" style="stroke: #333333"/>
    </defs>
    <g clip-path="url(#p35f65c5a23)">
     <use xlink:href="#mb3129b7f0e" x="18.9" y="27.137172" style="fill: #333333; stroke: #333333"/>
    </g>
   </g>
   <g id="line2d_6">
    <g clip-path="url(#p35f65c5a23)">
     <use xlink:href="#mb3129b7f0e" x="13.5" y="27.137172" style="fill: #333333; stroke: #333333"/>
    </g>
   </g>
   <g id="line2d_7">
    <g clip-path="url(#p35f65c5a23)">
     <use xlink:href="#mb3129b7f0e" x="8.1" y="27.137172" style="fill: #333333; stroke: #333333"/>
    </g>
   </g>
   <g id="line2d_8">
    <g clip-path="url(#p35f65c5a23)">
     <use xlink:href="#mb3129b7f0e" x="78.3" y="27.137172" style="fill: #333333; stroke: #333333"/>
    </g>
   </g>
   <g id="line2d_9">
    <g clip-path="url(#p35f65c5a23)">
     <use xlink:href="#mb3129b7f0e" x="83.7" y="27.137172" style="fill: #333333; stroke: #333333"/>
    </g>
   </g>
   <g id="line2d_10">
    <g clip-path="url(#p35f65c5a23)">
     <use xlink:href="#mb3129b7f0e" x="89.1" y="27.137172" style="fill: #333333; stroke: #333333"/>
    </g>
   </g>
   <g id="line2d_11">
    <path d="M 27 68.727273 
L 28.302513 68.20492 
L 29.822111 67.360131 
L 32.21005 65.730375 
L 35.683417 63.34922 
L 37.420101 62.450774 
L 38.939698 61.948689 
L 43.498492 60.719906 
L 45.452261 59.671769 
L 47.188945 58.818123 
L 48.274372 58.519379 
L 49.142714 58.491864 
L 50.011055 58.664626 
L 51.096482 59.128828 
L 52.18191 59.827795 
L 53.484422 60.914489 
L 55.655276 63.089597 
L 57.39196 64.718502 
L 58.477387 65.464338 
L 59.345729 65.81916 
L 60.21407 65.912945 
L 61.082412 65.780891 
L 62.167839 65.386974 
L 64.338693 64.268645 
L 65.858291 63.620765 
L 66.943719 63.426276 
L 67.81206 63.519031 
L 68.680402 63.895646 
L 69.331658 64.399431 
L 70.2 65.412967 
L 70.2 65.412967 
" clip-path="url(#p35f65c5a23)" style="fill: none; stroke: #999999; stroke-width: 1.5; stroke-linecap: square"/>
   </g>
   <g id="line2d_12">
    <path d="M 0 50.22753 
L 108 50.22753 
" clip-path="url(#p35f65c5a23)" style="fill: none; stroke-dasharray: 5.55,2.4; stroke-dashoffset: 0; stroke: #dc143c; stroke-opacity: 0.8; stroke-width: 1.5"/>
   </g>
   <g id="line2d_13">
    <defs>
     <path id="mfb1b4d1519" d="M 0 0.5 
C 0.132602 0.5 0.25979 0.447317 0.353553 0.353553 
C 0.447317 0.25979 0.5 0.132602 0.5 0 
C 0.5 -0.132602 0.447317 -0.25979 0.353553 -0.353553 
C 0.25979 -0.447317 0.132602 -0.5 0 -0.5 
C -0.132602 -0.5 -0.25979 -0.447317 -0.353553 -0.353553 
C -0.447317 -0.25979 -0.5 -0.132602 -0.5 0 
C -0.5 0.132602 -0.447317 0.25979 -0.353553 0.353553 
C -0.25979 0.447317 -0.132602 0.5 0 0.5 
z
" style="stroke: #999999"/>
    </defs>
    <g clip-path="url(#p35f65c5a23)">
     <use xlink:href="#mfb1b4d1519" x="18.9" y="60.557427" style="fill: #999999; stroke: #999999"/>
    </g>
   </g>
   <g id="line2d_14">
    <g clip-path="url(#p35f65c5a23)">
     <use xlink:href="#mfb1b4d1519" x="13.5" y="60.557427" style="fill: #999999; stroke: #999999"/>
    </g>
   </g>
   <g id="line2d_15">
    <g clip-path="url(#p35f65c5a23)">
     <use xlink:href="#mfb1b4d1519" x="8.1" y="60.557427" style="fill: #999999; stroke: #999999"/>
    </g>
   </g>
   <g id="line2d_16">
    <g clip-path="url(#p35f65c5a23)">
     <use xlink:href="#mfb1b4d1519" x="78.3" y="60.557427" style="fill: #999999; stroke: #999999"/>
    </g>
   </g>
   <g id="line2d_17">
    <g clip-path="url(#p35f65c5a23)">
     <use xlink:href="#mfb1b4d1519" x="83.7" y="60.557427" style="fill: #999999; stroke: #999999"/>
    </g>
   </g>
   <g id="line2d_18">
    <g clip-path="url(#p35f65c5a23)">
     <use xlink:href="#mfb1b4d1519" x="89.1" y="60.557427" style="fill: #999999; stroke: #999999"/>
    </g>
   </g>
   <g id="patch_3">
    <path d="M 0 72 
L 108 72 
" style="fill: none; stroke: #000000; stroke-width: 0.8; stroke-linejoin: miter; stroke-linecap: square"/>
   </g>
  </g>
 </g>
 <defs>
  <clipPath id="p35f65c5a23">
   <rect x="0" y="0" width="108" height="72"/>
  </clipPath>
 </defs>
</svg>
