<?xml version="1.0" encoding="utf-8" standalone="no"?>
<!DOCTYPE svg PUBLIC "-//W3C//DTD SVG 1.1//EN"
  "http://www.w3.org/Graphics/SVG/1.1/DTD/svg11.dtd">
<svg xmlns:xlink="http://www.w3.org/1999/xlink" width="93.6pt" height="14.4pt" viewBox="0 0 93.6 14.4" xmlns="http://www.w3.org/2000/svg" version="1.1">
 <metadata>
  <rdf:RDF xmlns:dc="http://purl.org/dc/elements/1.1/" xmlns:cc="http://creativecommons.org/ns#" xmlns:rdf="http://www.w3.org/1999/02/22-rdf-syntax-ns#">
   <cc:Work>
    <dc:type rdf:resource="http://purl.org/dc/dcmitype/StillImage"/>
    <dc:date>2026-05-09T23:02:09.692215</dc:date>
    <dc:format>image/svg+xml</dc:format>
    <dc:creator>
     <cc:Agent>
      <dc:title>Matplotlib v3.8.0, https://matplotlib.org/</dc:title>
     </cc:Agent>
    </dc:creator>
   </cc:Work>
  </rdf:RDF>
 </metadata>
 <defs>
  <style type="text/css">*{stroke-linejoin: round; stroke-linecap: butt}</style>
 </defs>
 <g id="figure_1">
  <g id="patch_1">
   <path d="M 0 14.4 
L 93.6 14.4 
L 93.6 0 
L 0 0 
L 0 14.4 
z
" style="fill: none"/>
  </g>
  <g id="axes_1">
   <g id="line2d_1">
    <path d="M 4.254545 6.559617 
L 7.188715 4.484076 
L 10.122884 3.492874 
L 13.057053 3.263782 
L 15.991223 11.513384 
L 18.925392 6.149644 
L 21.859561 5.068836 
L 24.79373 9.126073 
L 27.7279 7.897925 
L 30.662069 6.952296 
L 33.596238 3.19626 
L 36.530408 9.453596 
L 39.464577 0.654545 
L 42.398746 2.652755 
L 45.332915 8.604395 
L 48.267085 6.432753 
L 51.201254 5.831875 
L 54.135423 9.299877 
L 57.069592 13.745455 
L 60.003762 6.506055 
L 62.937931 3.311984 
L 65.8721 4.130235 
L 68.80627 6.254841 
L 71.740439 7.191726 
L 74.674608 11.286361 
L 77.608777 6.477628 
L 80.542947 8.756757 
L 83.477116 5.5491 
L 86.411285 13.114799 
L 89.345455 6.620992 
" clip-path="url(#p3eeae0cf17)" style="fill: none; stroke: #666666; stroke-opacity: 0.7; stroke-width: 3; stroke-linecap: square"/>
   </g>
  </g>
 </g>
 <defs>
  <clipPath id="p3eeae0cf17">
   <rect x="0" y="-0" width="93.6" height="14.4"/>
  </clipPath>
 </defs>
</svg>
