<?xml version="1.0" encoding="utf-8" standalone="no"?>
<!DOCTYPE svg PUBLIC "-//W3C//DTD SVG 1.1//EN"
  "http://www.w3.org/Graphics/SVG/1.1/DTD/svg11.dtd">
<svg xmlns:xlink="http://www.w3.org/1999/xlink" width="72pt" height="36pt" viewBox="0 0 72 36" xmlns="http://www.w3.org/2000/svg" version="1.1">
 <metadata>
  <rdf:RDF xmlns:dc="http://purl.org/dc/elements/1.1/" xmlns:cc="http://creativecommons.org/ns#" xmlns:rdf="http://www.w3.org/1999/02/22-rdf-syntax-ns#">
   <cc:Work>
    <dc:type rdf:resource="http://purl.org/dc/dcmitype/StillImage"/>
    <dc:date>2026-05-09T22:36:23.911105</dc:date>
    <dc:format>image/svg+xml</dc:format>
    <dc:creator>
     <cc:Agent>
      <dc:title>Matplotlib v3.8.0, https://matplotlib.org/</dc:title>
     </cc:Agent>
    </dc:creator>
   </cc:Work>
  </rdf:RDF>
 </metadata>
 <defs>
  <style type="text/css">*{stroke-linejoin: round; stroke-linecap: butt}</style>
 </defs>
 <g id="figure_1">
  <g id="patch_1">
   <path d="M 0 36 
L 72 36 
L 72 0 
L 0 0 
L 0 36 
z
" style="fill: none"/>
  </g>
  <g id="axes_1">
   <g id="line2d_1">
    <path d="M 3.272727 8.859344 
L 4.951049 22.569492 
L 6.629371 1.636364 
L 8.307692 4.271873 
L 9.986014 8.169839 
L 11.664336 28.00132 
L 13.342657 18.757905 
L 15.020979 33.125614 
L 16.699301 29.372098 
L 18.377622 11.408626 
L 20.055944 9.312052 
L 21.734266 1.744679 
L 23.412587 23.544534 
L 25.090909 22.028177 
L 26.769231 18.661599 
L 28.447552 28.176869 
L 30.125874 30.199948 
L 31.804196 18.452696 
L 33.482517 26.904994 
L 35.160839 11.858255 
L 36.839161 19.762452 
L 38.517483 6.325292 
L 40.195804 10.823744 
L 41.874126 24.001765 
L 43.552448 6.339506 
L 45.230769 7.273605 
L 46.909091 21.450004 
L 48.587413 24.818423 
L 50.265734 11.427428 
L 51.944056 29.865962 
L 53.622378 27.8223 
L 55.300699 34.363636 
L 56.979021 7.87968 
L 58.657343 12.026867 
L 60.335664 10.657268 
L 62.013986 8.090154 
L 63.692308 19.023071 
L 65.370629 15.291988 
L 67.048951 29.86445 
L 68.727273 30.722839 
" clip-path="url(#p496a2cbb4b)" style="fill: none; stroke: #cc8844; stroke-opacity: 0.9; stroke-width: 3; stroke-linecap: square"/>
   </g>
  </g>
 </g>
 <defs>
  <clipPath id="p496a2cbb4b">
   <rect x="0" y="0" width="72" height="36"/>
  </clipPath>
 </defs>
</svg>
