<?xml version="1.0" encoding="utf-8" standalone="no"?>
<!DOCTYPE svg PUBLIC "-//W3C//DTD SVG 1.1//EN"
  "http://www.w3.org/Graphics/SVG/1.1/DTD/svg11.dtd">
<svg xmlns:xlink="http://www.w3.org/1999/xlink" width="93.6pt" height="14.4pt" viewBox="0 0 93.6 14.4" xmlns="http://www.w3.org/2000/svg" version="1.1">
 <metadata>
  <rdf:RDF xmlns:dc="http://purl.org/dc/elements/1.1/" xmlns:cc="http://creativecommons.org/ns#" xmlns:rdf="http://www.w3.org/1999/02/22-rdf-syntax-ns#">
   <cc:Work>
    <dc:type rdf:resource="http://purl.org/dc/dcmitype/StillImage"/>
    <dc:date>2026-05-09T23:01:01.310185</dc:date>
    <dc:format>image/svg+xml</dc:format>
    <dc:creator>
     <cc:Agent>
      <dc:title>Matplotlib v3.8.0, https://matplotlib.org/</dc:title>
     </cc:Agent>
    </dc:creator>
   </cc:Work>
  </rdf:RDF>
 </metadata>
 <defs>
  <style type="text/css">*{stroke-linejoin: round; stroke-linecap: butt}</style>
 </defs>
 <g id="figure_1">
  <g id="patch_1">
   <path d="M 0 14.4 
L 93.6 14.4 
L 93.6 0 
L 0 0 
L 0 14.4 
z
" style="fill: none"/>
  </g>
  <g id="axes_1">
   <g id="line2d_1">
    <path d="M 4.254545 3.480519 
L 7.188715 7.605837 
L 10.122884 1.695728 
L 13.057053 3.839888 
L 15.991223 13.745087 
L 18.925392 0.654545 
L 21.859561 3.346395 
L 24.79373 3.846747 
L 27.7279 12.536031 
L 30.662069 7.959913 
L 33.596238 2.784888 
L 36.530408 8.633665 
L 39.464577 1.108687 
L 42.398746 3.713512 
L 45.332915 13.143432 
L 48.267085 0.7131 
L 51.201254 3.504211 
L 54.135423 3.882694 
L 57.069592 13.745455 
L 60.003762 7.867619 
L 62.937931 2.808823 
L 65.8721 7.532654 
L 68.80627 2.266976 
L 71.740439 4.652291 
L 74.674608 13.698133 
L 77.608777 0.722381 
L 80.542947 4.109154 
L 83.477116 3.106934 
L 86.411285 13.615018 
L 89.345455 7.891391 
" clip-path="url(#p599fba3214)" style="fill: none; stroke: #333333; stroke-opacity: 0.7; stroke-width: 3; stroke-linecap: square"/>
   </g>
  </g>
 </g>
 <defs>
  <clipPath id="p599fba3214">
   <rect x="0" y="-0" width="93.6" height="14.4"/>
  </clipPath>
 </defs>
</svg>
