<?xml version="1.0" encoding="utf-8" standalone="no"?>
<!DOCTYPE svg PUBLIC "-//W3C//DTD SVG 1.1//EN"
  "http://www.w3.org/Graphics/SVG/1.1/DTD/svg11.dtd">
<svg xmlns:xlink="http://www.w3.org/1999/xlink" width="280.8pt" height="72pt" viewBox="0 0 280.8 72" xmlns="http://www.w3.org/2000/svg" version="1.1">
 <metadata>
  <rdf:RDF xmlns:dc="http://purl.org/dc/elements/1.1/" xmlns:cc="http://creativecommons.org/ns#" xmlns:rdf="http://www.w3.org/1999/02/22-rdf-syntax-ns#">
   <cc:Work>
    <dc:type rdf:resource="http://purl.org/dc/dcmitype/StillImage"/>
    <dc:date>2026-05-09T22:17:39.689670</dc:date>
    <dc:format>image/svg+xml</dc:format>
    <dc:creator>
     <cc:Agent>
      <dc:title>Matplotlib v3.8.0, https://matplotlib.org/</dc:title>
     </cc:Agent>
    </dc:creator>
   </cc:Work>
  </rdf:RDF>
 </metadata>
 <defs>
  <style type="text/css">*{stroke-linejoin: round; stroke-linecap: butt}</style>
 </defs>
 <g id="figure_1">
  <g id="patch_1">
   <path d="M 0 72 
L 280.8 72 
L 280.8 -0 
L 0 -0 
L 0 72 
z
" style="fill: none"/>
  </g>
  <g id="axes_1">
   <g id="patch_2">
    <path d="M 0 72 
L 86.4 72 
L 86.4 0 
L 0 0 
L 0 72 
z
" style="fill: none"/>
   </g>
   <g id="matplotlib.axis_1"/>
   <g id="matplotlib.axis_2"/>
   <g id="line2d_1">
    <path d="M 3.927273 68.727273 
L 4.720661 67.77821 
L 5.51405 66.838591 
L 6.307438 65.908229 
L 7.100826 64.986944 
L 7.894215 64.074561 
L 8.687603 63.170909 
L 9.480992 62.275822 
L 10.27438 61.38914 
L 11.067769 60.510706 
L 11.861157 59.640368 
L 12.654545 58.777979 
L 13.447934 57.923395 
L 14.241322 57.076475 
L 15.034711 56.237083 
L 15.828099 55.405087 
L 16.621488 54.580357 
L 17.414876 53.762768 
L 18.208264 52.952197 
L 19.001653 52.148525 
L 19.795041 51.351634 
L 20.58843 50.561413 
L 21.381818 49.777749 
L 22.175207 49.000535 
L 22.968595 48.229666 
L 23.761983 47.465038 
L 24.555372 46.706553 
L 25.34876 45.954111 
L 26.142149 45.207617 
L 26.935537 44.466979 
L 27.728926 43.732104 
L 28.522314 43.002904 
L 29.315702 42.279291 
L 30.109091 41.561182 
L 30.902479 40.848492 
L 31.695868 40.141141 
L 32.489256 39.439049 
L 33.282645 38.742138 
L 34.076033 38.050333 
L 34.869421 37.36356 
L 35.66281 36.681745 
L 36.456198 36.004818 
L 37.249587 35.332708 
L 38.042975 34.665349 
L 38.836364 34.002673 
L 39.629752 33.344615 
L 40.42314 32.691111 
L 41.216529 32.042099 
L 42.009917 31.397516 
L 42.803306 30.757304 
L 43.596694 30.121403 
L 44.390083 29.489755 
L 45.183471 28.862305 
L 45.97686 28.238996 
L 46.770248 27.619775 
L 47.563636 27.004587 
L 48.357025 26.393381 
L 49.150413 25.786106 
L 49.943802 25.182712 
L 50.73719 24.583148 
L 51.530579 23.987367 
L 52.323967 23.395322 
L 53.117355 22.806965 
L 53.910744 22.222251 
L 54.704132 21.641136 
L 55.497521 21.063575 
L 56.290909 20.489525 
L 57.084298 19.918943 
L 57.877686 19.351789 
L 58.671074 18.78802 
L 59.464463 18.227597 
L 60.257851 17.670481 
L 61.05124 17.116632 
L 61.844628 16.566013 
L 62.638017 16.018586 
L 63.431405 15.474314 
L 64.224793 14.933161 
L 65.018182 14.395091 
L 65.81157 13.86007 
L 66.604959 13.328063 
L 67.398347 12.799037 
L 68.191736 12.272958 
L 68.985124 11.749793 
L 69.778512 11.229511 
L 70.571901 10.71208 
L 71.365289 10.197469 
L 72.158678 9.685647 
L 72.952066 9.176584 
L 73.745455 8.67025 
L 74.538843 8.166618 
L 75.332231 7.665656 
L 76.12562 7.167339 
L 76.919008 6.671637 
L 77.712397 6.178524 
L 78.505785 5.687973 
L 79.299174 5.199956 
L 80.092562 4.714449 
L 80.88595 4.231425 
L 81.679339 3.75086 
L 82.472727 3.272727 
" clip-path="url(#pc3bada0159)" style="fill: none; stroke: #808080; stroke-opacity: 0.7; stroke-width: 1.3; stroke-linecap: square"/>
   </g>
   <g id="patch_3">
    <path d="M 0 72 
L 0 0 
" style="fill: none; stroke: #000000; stroke-width: 0.8; stroke-linejoin: miter; stroke-linecap: square"/>
   </g>
   <g id="patch_4">
    <path d="M 0 72 
L 86.4 72 
" style="fill: none; stroke: #000000; stroke-width: 0.8; stroke-linejoin: miter; stroke-linecap: square"/>
   </g>
   <g id="line2d_2">
    <defs>
     <path id="m88d2a3e0f1" d="M 0 3 
C 0.795609 3 1.55874 2.683901 2.12132 2.12132 
C 2.683901 1.55874 3 0.795609 3 0 
C 3 -0.795609 2.683901 -1.55874 2.12132 -2.12132 
C 1.55874 -2.683901 0.795609 -3 0 -3 
C -0.795609 -3 -1.55874 -2.683901 -2.12132 -2.12132 
C -2.683901 -1.55874 -3 -0.795609 -3 0 
C -3 0.795609 -2.683901 1.55874 -2.12132 2.12132 
C -1.55874 2.683901 -0.795609 3 0 3 
z
" style="stroke: #000000"/>
    </defs>
    <g clip-path="url(#pc3bada0159)">
     <use xlink:href="#m88d2a3e0f1" x="3.927273" y="68.727273" style="fill: #069af3; stroke: #000000"/>
    </g>
   </g>
   <g id="line2d_3">
    <defs>
     <path id="mc4c1a0dd94" d="M 0 3 
C 0.795609 3 1.55874 2.683901 2.12132 2.12132 
C 2.683901 1.55874 3 0.795609 3 0 
C 3 -0.795609 2.683901 -1.55874 2.12132 -2.12132 
C 1.55874 -2.683901 0.795609 -3 0 -3 
C -0.795609 -3 -1.55874 -2.683901 -2.12132 -2.12132 
C -2.683901 -1.55874 -3 -0.795609 -3 0 
C -3 0.795609 -2.683901 1.55874 -2.12132 2.12132 
C -1.55874 2.683901 -0.795609 3 0 3 
z
" style="stroke: #000000"/>
    </defs>
    <g clip-path="url(#pc3bada0159)">
     <use xlink:href="#mc4c1a0dd94" x="35.345455" y="36.95388" style="fill: #006400; stroke: #000000"/>
    </g>
   </g>
   <g id="line2d_4">
    <defs>
     <path id="m1e9676e3b9" d="M 0 3 
C 0.795609 3 1.55874 2.683901 2.12132 2.12132 
C 2.683901 1.55874 3 0.795609 3 0 
C 3 -0.795609 2.683901 -1.55874 2.12132 -2.12132 
C 1.55874 -2.683901 0.795609 -3 0 -3 
C -0.795609 -3 -1.55874 -2.683901 -2.12132 -2.12132 
C -2.683901 -1.55874 -3 -0.795609 -3 0 
C -3 0.795609 -2.683901 1.55874 -2.12132 2.12132 
C -1.55874 2.683901 -0.795609 3 0 3 
z
" style="stroke: #000000"/>
    </defs>
    <g clip-path="url(#pc3bada0159)">
     <use xlink:href="#m1e9676e3b9" x="78.545455" y="5.663512" style="fill: #dc143c; stroke: #000000"/>
    </g>
   </g>
  </g>
  <g id="axes_2">
   <g id="patch_5">
    <path d="M 97.2 72 
L 183.6 72 
L 183.6 0 
L 97.2 0 
L 97.2 72 
z
" style="fill: none"/>
   </g>
   <g id="matplotlib.axis_3"/>
   <g id="matplotlib.axis_4"/>
   <g id="line2d_5">
    <path d="M 101.127273 66.315482 
L 103.483636 66.388566 
L 106.625455 66.827074 
L 108.981818 66.710138 
L 112.123636 66.680905 
L 114.48 66.812457 
L 117.621818 66.461651 
L 119.978182 66.490885 
L 123.12 66.023143 
L 125.476364 64.678387 
L 127.832727 63.625969 
L 130.974545 58.758537 
L 133.330909 51.274676 
L 136.472727 38.908766 
L 138.829091 28.004547 
L 141.970909 17.319583 
L 144.327273 13.25608 
L 147.469091 9.148727 
L 149.825455 7.657802 
L 152.967273 5.742986 
L 155.323636 4.705185 
L 157.68 4.383613 
L 160.821818 3.857404 
L 163.178182 3.535832 
L 166.32 3.301961 
L 168.676364 3.345812 
L 171.818182 3.331195 
L 174.174545 3.287344 
L 177.316364 3.272727 
L 179.672727 3.287344 
" clip-path="url(#p50c66b5738)" style="fill: none; stroke: #069af3; stroke-width: 1.3; stroke-linecap: square"/>
    <defs>
     <path id="md134d83b86" d="M 0 1 
C 0.265203 1 0.51958 0.894634 0.707107 0.707107 
C 0.894634 0.51958 1 0.265203 1 0 
C 1 -0.265203 0.894634 -0.51958 0.707107 -0.707107 
C 0.51958 -0.894634 0.265203 -1 0 -1 
C -0.265203 -1 -0.51958 -0.894634 -0.707107 -0.707107 
C -0.894634 -0.51958 -1 -0.265203 -1 0 
C -1 0.265203 -0.894634 0.51958 -0.707107 0.707107 
C -0.51958 0.894634 -0.265203 1 0 1 
z
" style="stroke: #069af3"/>
    </defs>
    <g clip-path="url(#p50c66b5738)">
     <use xlink:href="#md134d83b86" x="101.127273" y="66.315482" style="fill: #069af3; stroke: #069af3"/>
     <use xlink:href="#md134d83b86" x="103.483636" y="66.388566" style="fill: #069af3; stroke: #069af3"/>
     <use xlink:href="#md134d83b86" x="106.625455" y="66.827074" style="fill: #069af3; stroke: #069af3"/>
     <use xlink:href="#md134d83b86" x="108.981818" y="66.710138" style="fill: #069af3; stroke: #069af3"/>
     <use xlink:href="#md134d83b86" x="112.123636" y="66.680905" style="fill: #069af3; stroke: #069af3"/>
     <use xlink:href="#md134d83b86" x="114.48" y="66.812457" style="fill: #069af3; stroke: #069af3"/>
     <use xlink:href="#md134d83b86" x="117.621818" y="66.461651" style="fill: #069af3; stroke: #069af3"/>
     <use xlink:href="#md134d83b86" x="119.978182" y="66.490885" style="fill: #069af3; stroke: #069af3"/>
     <use xlink:href="#md134d83b86" x="123.12" y="66.023143" style="fill: #069af3; stroke: #069af3"/>
     <use xlink:href="#md134d83b86" x="125.476364" y="64.678387" style="fill: #069af3; stroke: #069af3"/>
     <use xlink:href="#md134d83b86" x="127.832727" y="63.625969" style="fill: #069af3; stroke: #069af3"/>
     <use xlink:href="#md134d83b86" x="130.974545" y="58.758537" style="fill: #069af3; stroke: #069af3"/>
     <use xlink:href="#md134d83b86" x="133.330909" y="51.274676" style="fill: #069af3; stroke: #069af3"/>
     <use xlink:href="#md134d83b86" x="136.472727" y="38.908766" style="fill: #069af3; stroke: #069af3"/>
     <use xlink:href="#md134d83b86" x="138.829091" y="28.004547" style="fill: #069af3; stroke: #069af3"/>
     <use xlink:href="#md134d83b86" x="141.970909" y="17.319583" style="fill: #069af3; stroke: #069af3"/>
     <use xlink:href="#md134d83b86" x="144.327273" y="13.25608" style="fill: #069af3; stroke: #069af3"/>
     <use xlink:href="#md134d83b86" x="147.469091" y="9.148727" style="fill: #069af3; stroke: #069af3"/>
     <use xlink:href="#md134d83b86" x="149.825455" y="7.657802" style="fill: #069af3; stroke: #069af3"/>
     <use xlink:href="#md134d83b86" x="152.967273" y="5.742986" style="fill: #069af3; stroke: #069af3"/>
     <use xlink:href="#md134d83b86" x="155.323636" y="4.705185" style="fill: #069af3; stroke: #069af3"/>
     <use xlink:href="#md134d83b86" x="157.68" y="4.383613" style="fill: #069af3; stroke: #069af3"/>
     <use xlink:href="#md134d83b86" x="160.821818" y="3.857404" style="fill: #069af3; stroke: #069af3"/>
     <use xlink:href="#md134d83b86" x="163.178182" y="3.535832" style="fill: #069af3; stroke: #069af3"/>
     <use xlink:href="#md134d83b86" x="166.32" y="3.301961" style="fill: #069af3; stroke: #069af3"/>
     <use xlink:href="#md134d83b86" x="168.676364" y="3.345812" style="fill: #069af3; stroke: #069af3"/>
     <use xlink:href="#md134d83b86" x="171.818182" y="3.331195" style="fill: #069af3; stroke: #069af3"/>
     <use xlink:href="#md134d83b86" x="174.174545" y="3.287344" style="fill: #069af3; stroke: #069af3"/>
     <use xlink:href="#md134d83b86" x="177.316364" y="3.272727" style="fill: #069af3; stroke: #069af3"/>
     <use xlink:href="#md134d83b86" x="179.672727" y="3.287344" style="fill: #069af3; stroke: #069af3"/>
    </g>
   </g>
   <g id="line2d_6">
    <path d="M 101.127273 68.712656 
L 103.483636 68.712656 
L 106.625455 68.712656 
L 108.981818 68.727273 
L 112.123636 68.727273 
L 114.48 68.683422 
L 117.621818 68.698039 
L 119.978182 68.712656 
L 123.12 68.668805 
L 125.476364 68.698039 
L 127.832727 68.668805 
L 130.974545 68.522636 
L 133.330909 68.025661 
L 136.472727 65.716188 
L 138.829091 60.424865 
L 141.970909 47.605831 
L 144.327273 36.38004 
L 147.469091 23.604856 
L 149.825455 18.181981 
L 152.967273 14.323115 
L 155.323636 12.013642 
L 157.68 10.464249 
L 160.821818 9.689553 
L 163.178182 8.973324 
L 166.32 7.964757 
L 168.676364 7.5701 
L 171.818182 7.482399 
L 174.174545 7.160827 
L 177.316364 7.014658 
L 179.672727 6.941573 
" clip-path="url(#p50c66b5738)" style="fill: none; stroke: #006400; stroke-width: 1.3; stroke-linecap: square"/>
    <defs>
     <path id="mdf3075bff3" d="M 0 1 
C 0.265203 1 0.51958 0.894634 0.707107 0.707107 
C 0.894634 0.51958 1 0.265203 1 0 
C 1 -0.265203 0.894634 -0.51958 0.707107 -0.707107 
C 0.51958 -0.894634 0.265203 -1 0 -1 
C -0.265203 -1 -0.51958 -0.894634 -0.707107 -0.707107 
C -0.894634 -0.51958 -1 -0.265203 -1 0 
C -1 0.265203 -0.894634 0.51958 -0.707107 0.707107 
C -0.51958 0.894634 -0.265203 1 0 1 
z
" style="stroke: #006400"/>
    </defs>
    <g clip-path="url(#p50c66b5738)">
     <use xlink:href="#mdf3075bff3" x="101.127273" y="68.712656" style="fill: #006400; stroke: #006400"/>
     <use xlink:href="#mdf3075bff3" x="103.483636" y="68.712656" style="fill: #006400; stroke: #006400"/>
     <use xlink:href="#mdf3075bff3" x="106.625455" y="68.712656" style="fill: #006400; stroke: #006400"/>
     <use xlink:href="#mdf3075bff3" x="108.981818" y="68.727273" style="fill: #006400; stroke: #006400"/>
     <use xlink:href="#mdf3075bff3" x="112.123636" y="68.727273" style="fill: #006400; stroke: #006400"/>
     <use xlink:href="#mdf3075bff3" x="114.48" y="68.683422" style="fill: #006400; stroke: #006400"/>
     <use xlink:href="#mdf3075bff3" x="117.621818" y="68.698039" style="fill: #006400; stroke: #006400"/>
     <use xlink:href="#mdf3075bff3" x="119.978182" y="68.712656" style="fill: #006400; stroke: #006400"/>
     <use xlink:href="#mdf3075bff3" x="123.12" y="68.668805" style="fill: #006400; stroke: #006400"/>
     <use xlink:href="#mdf3075bff3" x="125.476364" y="68.698039" style="fill: #006400; stroke: #006400"/>
     <use xlink:href="#mdf3075bff3" x="127.832727" y="68.668805" style="fill: #006400; stroke: #006400"/>
     <use xlink:href="#mdf3075bff3" x="130.974545" y="68.522636" style="fill: #006400; stroke: #006400"/>
     <use xlink:href="#mdf3075bff3" x="133.330909" y="68.025661" style="fill: #006400; stroke: #006400"/>
     <use xlink:href="#mdf3075bff3" x="136.472727" y="65.716188" style="fill: #006400; stroke: #006400"/>
     <use xlink:href="#mdf3075bff3" x="138.829091" y="60.424865" style="fill: #006400; stroke: #006400"/>
     <use xlink:href="#mdf3075bff3" x="141.970909" y="47.605831" style="fill: #006400; stroke: #006400"/>
     <use xlink:href="#mdf3075bff3" x="144.327273" y="36.38004" style="fill: #006400; stroke: #006400"/>
     <use xlink:href="#mdf3075bff3" x="147.469091" y="23.604856" style="fill: #006400; stroke: #006400"/>
     <use xlink:href="#mdf3075bff3" x="149.825455" y="18.181981" style="fill: #006400; stroke: #006400"/>
     <use xlink:href="#mdf3075bff3" x="152.967273" y="14.323115" style="fill: #006400; stroke: #006400"/>
     <use xlink:href="#mdf3075bff3" x="155.323636" y="12.013642" style="fill: #006400; stroke: #006400"/>
     <use xlink:href="#mdf3075bff3" x="157.68" y="10.464249" style="fill: #006400; stroke: #006400"/>
     <use xlink:href="#mdf3075bff3" x="160.821818" y="9.689553" style="fill: #006400; stroke: #006400"/>
     <use xlink:href="#mdf3075bff3" x="163.178182" y="8.973324" style="fill: #006400; stroke: #006400"/>
     <use xlink:href="#mdf3075bff3" x="166.32" y="7.964757" style="fill: #006400; stroke: #006400"/>
     <use xlink:href="#mdf3075bff3" x="168.676364" y="7.5701" style="fill: #006400; stroke: #006400"/>
     <use xlink:href="#mdf3075bff3" x="171.818182" y="7.482399" style="fill: #006400; stroke: #006400"/>
     <use xlink:href="#mdf3075bff3" x="174.174545" y="7.160827" style="fill: #006400; stroke: #006400"/>
     <use xlink:href="#mdf3075bff3" x="177.316364" y="7.014658" style="fill: #006400; stroke: #006400"/>
     <use xlink:href="#mdf3075bff3" x="179.672727" y="6.941573" style="fill: #006400; stroke: #006400"/>
    </g>
   </g>
   <g id="line2d_7">
    <path d="M 101.127273 68.727273 
L 103.483636 68.727273 
L 106.625455 68.727273 
L 108.981818 68.727273 
L 112.123636 68.727273 
L 114.48 68.727273 
L 117.621818 68.727273 
L 119.978182 68.727273 
L 123.12 68.727273 
L 125.476364 68.727273 
L 127.832727 68.727273 
L 130.974545 68.727273 
L 133.330909 68.712656 
L 136.472727 68.712656 
L 138.829091 68.566487 
L 141.970909 67.119412 
L 144.327273 63.742905 
L 147.469091 53.408746 
L 149.825455 43.103821 
L 152.967273 31.936498 
L 155.323636 26.601324 
L 157.68 22.669374 
L 160.821818 19.117463 
L 163.178182 17.290349 
L 166.32 16.19408 
L 168.676364 15.463234 
L 171.818182 14.703155 
L 174.174545 14.176946 
L 177.316364 14.118478 
L 179.672727 14.220797 
" clip-path="url(#p50c66b5738)" style="fill: none; stroke: #dc143c; stroke-width: 1.3; stroke-linecap: square"/>
    <defs>
     <path id="m02d0907152" d="M 0 1 
C 0.265203 1 0.51958 0.894634 0.707107 0.707107 
C 0.894634 0.51958 1 0.265203 1 0 
C 1 -0.265203 0.894634 -0.51958 0.707107 -0.707107 
C 0.51958 -0.894634 0.265203 -1 0 -1 
C -0.265203 -1 -0.51958 -0.894634 -0.707107 -0.707107 
C -0.894634 -0.51958 -1 -0.265203 -1 0 
C -1 0.265203 -0.894634 0.51958 -0.707107 0.707107 
C -0.51958 0.894634 -0.265203 1 0 1 
z
" style="stroke: #dc143c"/>
    </defs>
    <g clip-path="url(#p50c66b5738)">
     <use xlink:href="#m02d0907152" x="101.127273" y="68.727273" style="fill: #dc143c; stroke: #dc143c"/>
     <use xlink:href="#m02d0907152" x="103.483636" y="68.727273" style="fill: #dc143c; stroke: #dc143c"/>
     <use xlink:href="#m02d0907152" x="106.625455" y="68.727273" style="fill: #dc143c; stroke: #dc143c"/>
     <use xlink:href="#m02d0907152" x="108.981818" y="68.727273" style="fill: #dc143c; stroke: #dc143c"/>
     <use xlink:href="#m02d0907152" x="112.123636" y="68.727273" style="fill: #dc143c; stroke: #dc143c"/>
     <use xlink:href="#m02d0907152" x="114.48" y="68.727273" style="fill: #dc143c; stroke: #dc143c"/>
     <use xlink:href="#m02d0907152" x="117.621818" y="68.727273" style="fill: #dc143c; stroke: #dc143c"/>
     <use xlink:href="#m02d0907152" x="119.978182" y="68.727273" style="fill: #dc143c; stroke: #dc143c"/>
     <use xlink:href="#m02d0907152" x="123.12" y="68.727273" style="fill: #dc143c; stroke: #dc143c"/>
     <use xlink:href="#m02d0907152" x="125.476364" y="68.727273" style="fill: #dc143c; stroke: #dc143c"/>
     <use xlink:href="#m02d0907152" x="127.832727" y="68.727273" style="fill: #dc143c; stroke: #dc143c"/>
     <use xlink:href="#m02d0907152" x="130.974545" y="68.727273" style="fill: #dc143c; stroke: #dc143c"/>
     <use xlink:href="#m02d0907152" x="133.330909" y="68.712656" style="fill: #dc143c; stroke: #dc143c"/>
     <use xlink:href="#m02d0907152" x="136.472727" y="68.712656" style="fill: #dc143c; stroke: #dc143c"/>
     <use xlink:href="#m02d0907152" x="138.829091" y="68.566487" style="fill: #dc143c; stroke: #dc143c"/>
     <use xlink:href="#m02d0907152" x="141.970909" y="67.119412" style="fill: #dc143c; stroke: #dc143c"/>
     <use xlink:href="#m02d0907152" x="144.327273" y="63.742905" style="fill: #dc143c; stroke: #dc143c"/>
     <use xlink:href="#m02d0907152" x="147.469091" y="53.408746" style="fill: #dc143c; stroke: #dc143c"/>
     <use xlink:href="#m02d0907152" x="149.825455" y="43.103821" style="fill: #dc143c; stroke: #dc143c"/>
     <use xlink:href="#m02d0907152" x="152.967273" y="31.936498" style="fill: #dc143c; stroke: #dc143c"/>
     <use xlink:href="#m02d0907152" x="155.323636" y="26.601324" style="fill: #dc143c; stroke: #dc143c"/>
     <use xlink:href="#m02d0907152" x="157.68" y="22.669374" style="fill: #dc143c; stroke: #dc143c"/>
     <use xlink:href="#m02d0907152" x="160.821818" y="19.117463" style="fill: #dc143c; stroke: #dc143c"/>
     <use xlink:href="#m02d0907152" x="163.178182" y="17.290349" style="fill: #dc143c; stroke: #dc143c"/>
     <use xlink:href="#m02d0907152" x="166.32" y="16.19408" style="fill: #dc143c; stroke: #dc143c"/>
     <use xlink:href="#m02d0907152" x="168.676364" y="15.463234" style="fill: #dc143c; stroke: #dc143c"/>
     <use xlink:href="#m02d0907152" x="171.818182" y="14.703155" style="fill: #dc143c; stroke: #dc143c"/>
     <use xlink:href="#m02d0907152" x="174.174545" y="14.176946" style="fill: #dc143c; stroke: #dc143c"/>
     <use xlink:href="#m02d0907152" x="177.316364" y="14.118478" style="fill: #dc143c; stroke: #dc143c"/>
     <use xlink:href="#m02d0907152" x="179.672727" y="14.220797" style="fill: #dc143c; stroke: #dc143c"/>
    </g>
   </g>
   <g id="patch_6">
    <path d="M 97.2 72 
L 97.2 -0 
" style="fill: none; stroke: #000000; stroke-width: 0.8; stroke-linejoin: miter; stroke-linecap: square"/>
   </g>
   <g id="patch_7">
    <path d="M 97.2 72 
L 183.6 72 
" style="fill: none; stroke: #000000; stroke-width: 0.8; stroke-linejoin: miter; stroke-linecap: square"/>
   </g>
  </g>
  <g id="axes_3">
   <g id="patch_8">
    <path d="M 194.4 72 
L 280.8 72 
L 280.8 0 
L 194.4 0 
L 194.4 72 
z
" style="fill: none"/>
   </g>
   <g id="matplotlib.axis_5"/>
   <g id="matplotlib.axis_6"/>
   <g id="line2d_8">
    <path d="M 198.327273 23.936315 
L 200.683636 25.544145 
" clip-path="url(#p519333253f)" style="fill: none; stroke: #069af3; stroke-opacity: 0.308; stroke-width: 2; stroke-linecap: square"/>
   </g>
   <g id="line2d_9">
    <path d="M 200.683636 25.544145 
L 203.825455 22.576608 
" clip-path="url(#p519333253f)" style="fill: none; stroke: #069af3; stroke-opacity: 0.332; stroke-width: 2; stroke-linecap: square"/>
   </g>
   <g id="line2d_10">
    <path d="M 203.825455 22.576608 
L 206.181818 24.105038 
" clip-path="url(#p519333253f)" style="fill: none; stroke: #069af3; stroke-opacity: 0.29; stroke-width: 2; stroke-linecap: square"/>
   </g>
   <g id="line2d_11">
    <path d="M 206.181818 24.105038 
L 209.323636 23.062926 
" clip-path="url(#p519333253f)" style="fill: none; stroke: #069af3; stroke-opacity: 0.312; stroke-width: 2; stroke-linecap: square"/>
   </g>
   <g id="line2d_12">
    <path d="M 209.323636 23.062926 
L 211.68 24.571507 
" clip-path="url(#p519333253f)" style="fill: none; stroke: #069af3; stroke-opacity: 0.296; stroke-width: 2; stroke-linecap: square"/>
   </g>
   <g id="line2d_13">
    <path d="M 211.68 24.571507 
L 214.821818 24.442484 
" clip-path="url(#p519333253f)" style="fill: none; stroke: #069af3; stroke-opacity: 0.318; stroke-width: 2; stroke-linecap: square"/>
   </g>
   <g id="line2d_14">
    <path d="M 214.821818 24.442484 
L 217.178182 23.19195 
" clip-path="url(#p519333253f)" style="fill: none; stroke: #069af3; stroke-opacity: 0.32; stroke-width: 2; stroke-linecap: square"/>
   </g>
   <g id="line2d_15">
    <path d="M 217.178182 23.19195 
L 220.32 23.489696 
" clip-path="url(#p519333253f)" style="fill: none; stroke: #069af3; stroke-opacity: 0.296; stroke-width: 2; stroke-linecap: square"/>
   </g>
   <g id="line2d_16">
    <path d="M 220.32 23.489696 
L 222.676364 26.655731 
" clip-path="url(#p519333253f)" style="fill: none; stroke: #069af3; stroke-opacity: 0.314; stroke-width: 2; stroke-linecap: square"/>
   </g>
   <g id="line2d_17">
    <path d="M 222.676364 26.655731 
L 225.032727 26.635881 
" clip-path="url(#p519333253f)" style="fill: none; stroke: #069af3; stroke-opacity: 0.362; stroke-width: 2; stroke-linecap: square"/>
   </g>
   <g id="line2d_18">
    <path d="M 225.032727 26.635881 
L 228.174545 30.982976 
" clip-path="url(#p519333253f)" style="fill: none; stroke: #069af3; stroke-opacity: 0.394; stroke-width: 2; stroke-linecap: square"/>
   </g>
   <g id="line2d_19">
    <path d="M 228.174545 30.982976 
L 230.530909 36.937901 
" clip-path="url(#p519333253f)" style="fill: none; stroke: #069af3; stroke-opacity: 0.522; stroke-width: 2; stroke-linecap: square"/>
   </g>
   <g id="line2d_20">
    <path d="M 230.530909 36.937901 
L 233.672727 48.520229 
" clip-path="url(#p519333253f)" style="fill: none; stroke: #069af3; stroke-opacity: 0.658; stroke-width: 2; stroke-linecap: square"/>
   </g>
   <g id="line2d_21">
    <path d="M 233.672727 48.520229 
L 236.029091 54.068234 
" clip-path="url(#p519333253f)" style="fill: none; stroke: #069af3; stroke-opacity: 0.87; stroke-width: 2; stroke-linecap: square"/>
   </g>
   <g id="line2d_22">
    <path d="M 236.029091 54.068234 
L 239.170909 61.283617 
" clip-path="url(#p519333253f)" style="fill: none; stroke: #069af3; stroke-opacity: 0.938; stroke-width: 2; stroke-linecap: square"/>
   </g>
   <g id="line2d_23">
    <path d="M 239.170909 61.283617 
L 241.527273 62.732649 
" clip-path="url(#p519333253f)" style="fill: none; stroke: #069af3; stroke-opacity: 0.99; stroke-width: 2; stroke-linecap: square"/>
   </g>
   <g id="line2d_24">
    <path d="M 241.527273 62.732649 
L 244.669091 65.055069 
" clip-path="url(#p519333253f)" style="fill: none; stroke: #069af3; stroke-opacity: 0.998; stroke-width: 2; stroke-linecap: square"/>
   </g>
   <g id="line2d_25">
    <path d="M 244.669091 65.055069 
L 247.025455 65.958233 
" clip-path="url(#p519333253f)" style="fill: none; stroke: #069af3; stroke-width: 2; stroke-linecap: square"/>
   </g>
   <g id="line2d_26">
    <path d="M 247.025455 65.958233 
L 250.167273 67.33779 
" clip-path="url(#p519333253f)" style="fill: none; stroke: #069af3; stroke-width: 2; stroke-linecap: square"/>
   </g>
   <g id="line2d_27">
    <path d="M 250.167273 67.33779 
L 252.523636 67.496588 
" clip-path="url(#p519333253f)" style="fill: none; stroke: #069af3; stroke-width: 2; stroke-linecap: square"/>
   </g>
   <g id="line2d_28">
    <path d="M 252.523636 67.496588 
L 254.88 67.804259 
" clip-path="url(#p519333253f)" style="fill: none; stroke: #069af3; stroke-width: 2; stroke-linecap: square"/>
   </g>
   <g id="line2d_29">
    <path d="M 254.88 67.804259 
L 258.021818 68.201254 
" clip-path="url(#p519333253f)" style="fill: none; stroke: #069af3; stroke-width: 2; stroke-linecap: square"/>
   </g>
   <g id="line2d_30">
    <path d="M 258.021818 68.201254 
L 260.378182 68.360052 
" clip-path="url(#p519333253f)" style="fill: none; stroke: #069af3; stroke-width: 2; stroke-linecap: square"/>
   </g>
   <g id="line2d_31">
    <path d="M 260.378182 68.360052 
L 263.52 68.598249 
" clip-path="url(#p519333253f)" style="fill: none; stroke: #069af3; stroke-width: 2; stroke-linecap: square"/>
   </g>
   <g id="line2d_32">
    <path d="M 263.52 68.598249 
L 265.876364 68.588324 
" clip-path="url(#p519333253f)" style="fill: none; stroke: #069af3; stroke-width: 2; stroke-linecap: square"/>
   </g>
   <g id="line2d_33">
    <path d="M 265.876364 68.588324 
L 269.018182 68.628024 
" clip-path="url(#p519333253f)" style="fill: none; stroke: #069af3; stroke-width: 2; stroke-linecap: square"/>
   </g>
   <g id="line2d_34">
    <path d="M 269.018182 68.628024 
L 271.374545 68.707423 
" clip-path="url(#p519333253f)" style="fill: none; stroke: #069af3; stroke-width: 2; stroke-linecap: square"/>
   </g>
   <g id="line2d_35">
    <path d="M 271.374545 68.707423 
L 274.516364 68.647874 
" clip-path="url(#p519333253f)" style="fill: none; stroke: #069af3; stroke-width: 2; stroke-linecap: square"/>
   </g>
   <g id="line2d_36">
    <path d="M 274.516364 68.647874 
L 276.872727 68.727273 
" clip-path="url(#p519333253f)" style="fill: none; stroke: #069af3; stroke-width: 2; stroke-linecap: square"/>
   </g>
   <g id="line2d_37">
    <path d="M 198.327273 4.870632 
L 200.683636 5.059205 
" clip-path="url(#p519333253f)" style="fill: none; stroke: #006400; stroke-opacity: 0.024; stroke-width: 2; stroke-linecap: square"/>
   </g>
   <g id="line2d_38">
    <path d="M 200.683636 5.059205 
L 203.825455 4.384313 
" clip-path="url(#p519333253f)" style="fill: none; stroke: #006400; stroke-opacity: 0.026; stroke-width: 2; stroke-linecap: square"/>
   </g>
   <g id="line2d_39">
    <path d="M 203.825455 4.384313 
L 206.181818 4.384313 
" clip-path="url(#p519333253f)" style="fill: none; stroke: #006400; stroke-opacity: 0.016; stroke-width: 2; stroke-linecap: square"/>
   </g>
   <g id="line2d_40">
    <path d="M 206.181818 4.384313 
L 209.323636 4.374388 
" clip-path="url(#p519333253f)" style="fill: none; stroke: #006400; stroke-opacity: 0.016; stroke-width: 2; stroke-linecap: square"/>
   </g>
   <g id="line2d_41">
    <path d="M 209.323636 4.374388 
L 211.68 4.344614 
" clip-path="url(#p519333253f)" style="fill: none; stroke: #006400; stroke-opacity: 0.016; stroke-width: 2; stroke-linecap: square"/>
   </g>
   <g id="line2d_42">
    <path d="M 211.68 4.344614 
L 214.821818 3.947619 
" clip-path="url(#p519333253f)" style="fill: none; stroke: #006400; stroke-opacity: 0.016; stroke-width: 2; stroke-linecap: square"/>
   </g>
   <g id="line2d_43">
    <path d="M 214.821818 3.947619 
L 217.178182 4.21559 
" clip-path="url(#p519333253f)" style="fill: none; stroke: #006400; stroke-opacity: 0.01; stroke-width: 2; stroke-linecap: square"/>
   </g>
   <g id="line2d_44">
    <path d="M 217.178182 4.21559 
L 220.32 4.791233 
" clip-path="url(#p519333253f)" style="fill: none; stroke: #006400; stroke-opacity: 0.014; stroke-width: 2; stroke-linecap: square"/>
   </g>
   <g id="line2d_45">
    <path d="M 220.32 4.791233 
L 222.676364 4.493487 
" clip-path="url(#p519333253f)" style="fill: none; stroke: #006400; stroke-opacity: 0.022; stroke-width: 2; stroke-linecap: square"/>
   </g>
   <g id="line2d_46">
    <path d="M 222.676364 4.493487 
L 225.032727 4.473637 
" clip-path="url(#p519333253f)" style="fill: none; stroke: #006400; stroke-opacity: 0.018; stroke-width: 2; stroke-linecap: square"/>
   </g>
   <g id="line2d_47">
    <path d="M 225.032727 4.473637 
L 228.174545 6.23034 
" clip-path="url(#p519333253f)" style="fill: none; stroke: #006400; stroke-opacity: 0.02; stroke-width: 2; stroke-linecap: square"/>
   </g>
   <g id="line2d_48">
    <path d="M 228.174545 6.23034 
L 230.530909 6.150941 
" clip-path="url(#p519333253f)" style="fill: none; stroke: #006400; stroke-opacity: 0.06; stroke-width: 2; stroke-linecap: square"/>
   </g>
   <g id="line2d_49">
    <path d="M 230.530909 6.150941 
L 233.672727 10.230064 
" clip-path="url(#p519333253f)" style="fill: none; stroke: #006400; stroke-opacity: 0.072; stroke-width: 2; stroke-linecap: square"/>
   </g>
   <g id="line2d_50">
    <path d="M 233.672727 10.230064 
L 236.029091 16.175064 
" clip-path="url(#p519333253f)" style="fill: none; stroke: #006400; stroke-opacity: 0.186; stroke-width: 2; stroke-linecap: square"/>
   </g>
   <g id="line2d_51">
    <path d="M 236.029091 16.175064 
L 239.170909 30.397409 
" clip-path="url(#p519333253f)" style="fill: none; stroke: #006400; stroke-opacity: 0.37; stroke-width: 2; stroke-linecap: square"/>
   </g>
   <g id="line2d_52">
    <path d="M 239.170909 30.397409 
L 241.527273 41.066648 
" clip-path="url(#p519333253f)" style="fill: none; stroke: #006400; stroke-opacity: 0.684; stroke-width: 2; stroke-linecap: square"/>
   </g>
   <g id="line2d_53">
    <path d="M 241.527273 41.066648 
L 244.669091 51.319043 
" clip-path="url(#p519333253f)" style="fill: none; stroke: #006400; stroke-opacity: 0.86; stroke-width: 2; stroke-linecap: square"/>
   </g>
   <g id="line2d_54">
    <path d="M 244.669091 51.319043 
L 247.025455 56.132607 
" clip-path="url(#p519333253f)" style="fill: none; stroke: #006400; stroke-opacity: 0.97; stroke-width: 2; stroke-linecap: square"/>
   </g>
   <g id="line2d_55">
    <path d="M 247.025455 56.132607 
L 250.167273 60.152181 
" clip-path="url(#p519333253f)" style="fill: none; stroke: #006400; stroke-opacity: 0.992; stroke-width: 2; stroke-linecap: square"/>
   </g>
   <g id="line2d_56">
    <path d="M 250.167273 60.152181 
L 252.523636 61.521814 
" clip-path="url(#p519333253f)" style="fill: none; stroke: #006400; stroke-opacity: 0.998; stroke-width: 2; stroke-linecap: square"/>
   </g>
   <g id="line2d_57">
    <path d="M 252.523636 61.521814 
L 254.88 62.802123 
" clip-path="url(#p519333253f)" style="fill: none; stroke: #006400; stroke-opacity: 0.998; stroke-width: 2; stroke-linecap: square"/>
   </g>
   <g id="line2d_58">
    <path d="M 254.88 62.802123 
L 258.021818 63.606038 
" clip-path="url(#p519333253f)" style="fill: none; stroke: #006400; stroke-width: 2; stroke-linecap: square"/>
   </g>
   <g id="line2d_59">
    <path d="M 258.021818 63.606038 
L 260.378182 63.824385 
" clip-path="url(#p519333253f)" style="fill: none; stroke: #006400; stroke-width: 2; stroke-linecap: square"/>
   </g>
   <g id="line2d_60">
    <path d="M 260.378182 63.824385 
L 263.52 64.280929 
" clip-path="url(#p519333253f)" style="fill: none; stroke: #006400; stroke-width: 2; stroke-linecap: square"/>
   </g>
   <g id="line2d_61">
    <path d="M 263.52 64.280929 
L 265.876364 64.826797 
" clip-path="url(#p519333253f)" style="fill: none; stroke: #006400; stroke-width: 2; stroke-linecap: square"/>
   </g>
   <g id="line2d_62">
    <path d="M 265.876364 64.826797 
L 269.018182 64.99552 
" clip-path="url(#p519333253f)" style="fill: none; stroke: #006400; stroke-width: 2; stroke-linecap: square"/>
   </g>
   <g id="line2d_63">
    <path d="M 269.018182 64.99552 
L 271.374545 65.124543 
" clip-path="url(#p519333253f)" style="fill: none; stroke: #006400; stroke-width: 2; stroke-linecap: square"/>
   </g>
   <g id="line2d_64">
    <path d="M 271.374545 65.124543 
L 274.516364 65.233717 
" clip-path="url(#p519333253f)" style="fill: none; stroke: #006400; stroke-width: 2; stroke-linecap: square"/>
   </g>
   <g id="line2d_65">
    <path d="M 274.516364 65.233717 
L 276.872727 65.064994 
" clip-path="url(#p519333253f)" style="fill: none; stroke: #006400; stroke-width: 2; stroke-linecap: square"/>
   </g>
   <g id="line2d_66">
    <path d="M 198.327273 3.272727 
L 200.683636 3.272727 
" clip-path="url(#p519333253f)" style="fill: none; stroke: #dc143c; stroke-opacity: 0; stroke-width: 2; stroke-linecap: square"/>
   </g>
   <g id="line2d_67">
    <path d="M 200.683636 3.272727 
L 203.825455 3.272727 
" clip-path="url(#p519333253f)" style="fill: none; stroke: #dc143c; stroke-opacity: 0; stroke-width: 2; stroke-linecap: square"/>
   </g>
   <g id="line2d_68">
    <path d="M 203.825455 3.272727 
L 206.181818 3.272727 
" clip-path="url(#p519333253f)" style="fill: none; stroke: #dc143c; stroke-opacity: 0; stroke-width: 2; stroke-linecap: square"/>
   </g>
   <g id="line2d_69">
    <path d="M 206.181818 3.272727 
L 209.323636 3.272727 
" clip-path="url(#p519333253f)" style="fill: none; stroke: #dc143c; stroke-opacity: 0; stroke-width: 2; stroke-linecap: square"/>
   </g>
   <g id="line2d_70">
    <path d="M 209.323636 3.272727 
L 211.68 3.272727 
" clip-path="url(#p519333253f)" style="fill: none; stroke: #dc143c; stroke-opacity: 0; stroke-width: 2; stroke-linecap: square"/>
   </g>
   <g id="line2d_71">
    <path d="M 211.68 3.272727 
L 214.821818 3.272727 
" clip-path="url(#p519333253f)" style="fill: none; stroke: #dc143c; stroke-opacity: 0; stroke-width: 2; stroke-linecap: square"/>
   </g>
   <g id="line2d_72">
    <path d="M 214.821818 3.272727 
L 217.178182 3.272727 
" clip-path="url(#p519333253f)" style="fill: none; stroke: #dc143c; stroke-opacity: 0; stroke-width: 2; stroke-linecap: square"/>
   </g>
   <g id="line2d_73">
    <path d="M 217.178182 3.272727 
L 220.32 3.272727 
" clip-path="url(#p519333253f)" style="fill: none; stroke: #dc143c; stroke-opacity: 0; stroke-width: 2; stroke-linecap: square"/>
   </g>
   <g id="line2d_74">
    <path d="M 220.32 3.272727 
L 222.676364 3.272727 
" clip-path="url(#p519333253f)" style="fill: none; stroke: #dc143c; stroke-opacity: 0; stroke-width: 2; stroke-linecap: square"/>
   </g>
   <g id="line2d_75">
    <path d="M 222.676364 3.272727 
L 225.032727 3.272727 
" clip-path="url(#p519333253f)" style="fill: none; stroke: #dc143c; stroke-opacity: 0; stroke-width: 2; stroke-linecap: square"/>
   </g>
   <g id="line2d_76">
    <path d="M 225.032727 3.272727 
L 228.174545 3.272727 
" clip-path="url(#p519333253f)" style="fill: none; stroke: #dc143c; stroke-opacity: 0; stroke-width: 2; stroke-linecap: square"/>
   </g>
   <g id="line2d_77">
    <path d="M 228.174545 3.272727 
L 230.530909 3.272727 
" clip-path="url(#p519333253f)" style="fill: none; stroke: #dc143c; stroke-opacity: 0; stroke-width: 2; stroke-linecap: square"/>
   </g>
   <g id="line2d_78">
    <path d="M 230.530909 3.272727 
L 233.672727 3.272727 
" clip-path="url(#p519333253f)" style="fill: none; stroke: #dc143c; stroke-opacity: 0; stroke-width: 2; stroke-linecap: square"/>
   </g>
   <g id="line2d_79">
    <path d="M 233.672727 3.272727 
L 236.029091 3.570473 
" clip-path="url(#p519333253f)" style="fill: none; stroke: #dc143c; stroke-opacity: 0; stroke-width: 2; stroke-linecap: square"/>
   </g>
   <g id="line2d_80">
    <path d="M 236.029091 3.570473 
L 239.170909 5.446275 
" clip-path="url(#p519333253f)" style="fill: none; stroke: #dc143c; stroke-opacity: 0.012; stroke-width: 2; stroke-linecap: square"/>
   </g>
   <g id="line2d_81">
    <path d="M 239.170909 5.446275 
L 241.527273 8.61231 
" clip-path="url(#p519333253f)" style="fill: none; stroke: #dc143c; stroke-opacity: 0.076; stroke-width: 2; stroke-linecap: square"/>
   </g>
   <g id="line2d_82">
    <path d="M 241.527273 8.61231 
L 244.669091 19.638845 
" clip-path="url(#p519333253f)" style="fill: none; stroke: #dc143c; stroke-opacity: 0.194; stroke-width: 2; stroke-linecap: square"/>
   </g>
   <g id="line2d_83">
    <path d="M 244.669091 19.638845 
L 247.025455 29.196499 
" clip-path="url(#p519333253f)" style="fill: none; stroke: #dc143c; stroke-opacity: 0.504; stroke-width: 2; stroke-linecap: square"/>
   </g>
   <g id="line2d_84">
    <path d="M 247.025455 29.196499 
L 250.167273 39.587842 
" clip-path="url(#p519333253f)" style="fill: none; stroke: #dc143c; stroke-opacity: 0.706; stroke-width: 2; stroke-linecap: square"/>
   </g>
   <g id="line2d_85">
    <path d="M 250.167273 39.587842 
L 252.523636 47.914811 
" clip-path="url(#p519333253f)" style="fill: none; stroke: #dc143c; stroke-opacity: 0.868; stroke-width: 2; stroke-linecap: square"/>
   </g>
   <g id="line2d_86">
    <path d="M 252.523636 47.914811 
L 254.88 51.408367 
" clip-path="url(#p519333253f)" style="fill: none; stroke: #dc143c; stroke-opacity: 0.964; stroke-width: 2; stroke-linecap: square"/>
   </g>
   <g id="line2d_87">
    <path d="M 254.88 51.408367 
L 258.021818 55.388242 
" clip-path="url(#p519333253f)" style="fill: none; stroke: #dc143c; stroke-opacity: 0.972; stroke-width: 2; stroke-linecap: square"/>
   </g>
   <g id="line2d_88">
    <path d="M 258.021818 55.388242 
L 260.378182 56.738025 
" clip-path="url(#p519333253f)" style="fill: none; stroke: #dc143c; stroke-opacity: 0.996; stroke-width: 2; stroke-linecap: square"/>
   </g>
   <g id="line2d_89">
    <path d="M 260.378182 56.738025 
L 263.52 58.484803 
" clip-path="url(#p519333253f)" style="fill: none; stroke: #dc143c; stroke-opacity: 0.998; stroke-width: 2; stroke-linecap: square"/>
   </g>
   <g id="line2d_90">
    <path d="M 263.52 58.484803 
L 265.876364 58.871873 
" clip-path="url(#p519333253f)" style="fill: none; stroke: #dc143c; stroke-width: 2; stroke-linecap: square"/>
   </g>
   <g id="line2d_91">
    <path d="M 265.876364 58.871873 
L 269.018182 59.149769 
" clip-path="url(#p519333253f)" style="fill: none; stroke: #dc143c; stroke-opacity: 0.998; stroke-width: 2; stroke-linecap: square"/>
   </g>
   <g id="line2d_92">
    <path d="M 269.018182 59.149769 
L 271.374545 60.181956 
" clip-path="url(#p519333253f)" style="fill: none; stroke: #dc143c; stroke-width: 2; stroke-linecap: square"/>
   </g>
   <g id="line2d_93">
    <path d="M 271.374545 60.181956 
L 274.516364 59.923909 
" clip-path="url(#p519333253f)" style="fill: none; stroke: #dc143c; stroke-width: 2; stroke-linecap: square"/>
   </g>
   <g id="line2d_94">
    <path d="M 274.516364 59.923909 
L 276.872727 60.102557 
" clip-path="url(#p519333253f)" style="fill: none; stroke: #dc143c; stroke-width: 2; stroke-linecap: square"/>
   </g>
   <g id="patch_9">
    <path d="M 194.4 72 
L 194.4 0 
" style="fill: none; stroke: #000000; stroke-width: 0.8; stroke-linejoin: miter; stroke-linecap: square"/>
   </g>
   <g id="patch_10">
    <path d="M 194.4 72 
L 280.8 72 
" style="fill: none; stroke: #000000; stroke-width: 0.8; stroke-linejoin: miter; stroke-linecap: square"/>
   </g>
  </g>
 </g>
 <defs>
  <clipPath id="pc3bada0159">
   <rect x="0" y="0" width="86.4" height="72"/>
  </clipPath>
  <clipPath id="p50c66b5738">
   <rect x="97.2" y="0" width="86.4" height="72"/>
  </clipPath>
  <clipPath id="p519333253f">
   <rect x="194.4" y="0" width="86.4" height="72"/>
  </clipPath>
 </defs>
</svg>
