<?xml version="1.0" encoding="utf-8" standalone="no"?>
<!DOCTYPE svg PUBLIC "-//W3C//DTD SVG 1.1//EN"
  "http://www.w3.org/Graphics/SVG/1.1/DTD/svg11.dtd">
<svg xmlns:xlink="http://www.w3.org/1999/xlink" width="108pt" height="72pt" viewBox="0 0 108 72" xmlns="http://www.w3.org/2000/svg" version="1.1">
 <metadata>
  <rdf:RDF xmlns:dc="http://purl.org/dc/elements/1.1/" xmlns:cc="http://creativecommons.org/ns#" xmlns:rdf="http://www.w3.org/1999/02/22-rdf-syntax-ns#">
   <cc:Work>
    <dc:type rdf:resource="http://purl.org/dc/dcmitype/StillImage"/>
    <dc:date>2026-05-09T22:49:41.496928</dc:date>
    <dc:format>image/svg+xml</dc:format>
    <dc:creator>
     <cc:Agent>
      <dc:title>Matplotlib v3.8.0, https://matplotlib.org/</dc:title>
     </cc:Agent>
    </dc:creator>
   </cc:Work>
  </rdf:RDF>
 </metadata>
 <defs>
  <style type="text/css">*{stroke-linejoin: round; stroke-linecap: butt}</style>
 </defs>
 <g id="figure_1">
  <g id="patch_1">
   <path d="M 0 72 
L 108 72 
L 108 -0 
L 0 -0 
L 0 72 
z
" style="fill: none"/>
  </g>
  <g id="axes_1">
   <g id="patch_2">
    <path d="M 0 72 
L 108 72 
L 108 0 
L 0 0 
L 0 72 
z
" style="fill: none"/>
   </g>
   <g id="PolyCollection_1">
    <defs>
     <path id="me8b90a2918" d="M 27 -39.587958 
L 27 -41.504892 
L 27.217085 -41.504892 
L 27.434171 -41.504892 
L 27.651256 -41.504892 
L 27.868342 -41.504892 
L 28.085427 -41.504892 
L 28.302513 -41.504892 
L 28.519598 -41.504892 
L 28.736683 -41.504892 
L 28.953769 -41.504892 
L 29.170854 -41.504892 
L 29.38794 -41.504892 
L 29.605025 -41.504892 
L 29.822111 -41.504892 
L 30.039196 -41.504892 
L 30.256281 -41.504892 
L 30.473367 -41.504892 
L 30.690452 -41.504892 
L 30.907538 -41.504892 
L 31.124623 -41.504892 
L 31.341709 -41.504892 
L 31.558794 -41.504892 
L 31.775879 -41.504892 
L 31.992965 -41.504892 
L 32.21005 -41.504892 
L 32.427136 -41.504892 
L 32.644221 -41.504892 
L 32.861307 -41.504892 
L 33.078392 -41.504892 
L 33.295477 -41.504892 
L 33.512563 -41.504892 
L 33.729648 -41.504892 
L 33.946734 -41.504892 
L 34.163819 -41.504892 
L 34.380905 -41.504892 
L 34.59799 -41.504892 
L 34.815075 -41.504892 
L 35.032161 -41.504892 
L 35.249246 -41.504892 
L 35.466332 -41.504892 
L 35.683417 -41.504892 
L 35.900503 -41.504892 
L 36.117588 -41.504892 
L 36.334673 -41.504892 
L 36.551759 -41.504892 
L 36.768844 -41.504892 
L 36.98593 -41.504892 
L 37.203015 -41.504892 
L 37.420101 -41.504892 
L 37.637186 -41.504892 
L 37.854271 -41.504892 
L 38.071357 -41.504892 
L 38.288442 -41.504892 
L 38.505528 -41.504892 
L 38.722613 -41.504892 
L 38.939698 -41.504892 
L 39.156784 -41.504892 
L 39.373869 -41.504892 
L 39.590955 -41.504892 
L 39.80804 -41.504892 
L 40.025126 -41.504892 
L 40.242211 -41.504892 
L 40.459296 -41.504892 
L 40.676382 -41.504892 
L 40.893467 -41.504892 
L 41.110553 -41.504892 
L 41.327638 -41.504892 
L 41.544724 -41.504892 
L 41.761809 -41.504892 
L 41.978894 -41.504892 
L 42.19598 -41.504892 
L 42.413065 -41.504892 
L 42.630151 -41.504892 
L 42.847236 -41.504892 
L 43.064322 -41.504892 
L 43.281407 -41.504892 
L 43.498492 -41.504892 
L 43.715578 -41.504892 
L 43.932663 -41.504892 
L 44.149749 -41.504892 
L 44.366834 -41.504892 
L 44.58392 -41.504892 
L 44.801005 -41.504892 
L 45.01809 -41.504892 
L 45.235176 -41.504892 
L 45.452261 -41.504892 
L 45.669347 -41.504892 
L 45.886432 -41.504892 
L 46.103518 -41.504892 
L 46.320603 -41.504892 
L 46.537688 -41.504892 
L 46.754774 -41.504892 
L 46.971859 -41.504892 
L 47.188945 -41.504892 
L 47.40603 -41.504892 
L 47.623116 -41.504892 
L 47.840201 -41.504892 
L 48.057286 -41.504892 
L 48.274372 -41.504892 
L 48.491457 -41.504892 
L 48.708543 -41.504892 
L 48.925628 -41.504892 
L 49.142714 -41.504892 
L 49.359799 -41.504892 
L 49.576884 -41.504892 
L 49.79397 -41.504892 
L 50.011055 -41.504892 
L 50.228141 -41.504892 
L 50.445226 -41.504892 
L 50.662312 -41.504892 
L 50.879397 -41.504892 
L 51.096482 -41.504892 
L 51.313568 -41.504892 
L 51.530653 -41.504892 
L 51.747739 -41.504892 
L 51.964824 -41.504892 
L 52.18191 -41.504892 
L 52.398995 -41.504892 
L 52.61608 -41.504892 
L 52.833166 -41.504892 
L 53.050251 -41.504892 
L 53.267337 -41.504892 
L 53.484422 -41.504892 
L 53.701508 -41.504892 
L 53.918593 -41.504892 
L 54.135678 -41.504892 
L 54.352764 -41.504892 
L 54.569849 -41.504892 
L 54.786935 -41.504892 
L 55.00402 -41.504892 
L 55.221106 -41.504892 
L 55.438191 -41.504892 
L 55.655276 -41.504892 
L 55.872362 -41.504892 
L 56.089447 -41.504892 
L 56.306533 -41.504892 
L 56.523618 -41.504892 
L 56.740704 -41.504892 
L 56.957789 -41.504892 
L 57.174874 -41.504892 
L 57.39196 -41.504892 
L 57.609045 -41.504892 
L 57.826131 -41.504892 
L 58.043216 -41.504892 
L 58.260302 -41.504892 
L 58.477387 -41.504892 
L 58.694472 -41.504892 
L 58.911558 -41.504892 
L 59.128643 -41.504892 
L 59.345729 -41.504892 
L 59.562814 -41.504892 
L 59.779899 -41.504892 
L 59.996985 -41.504892 
L 60.21407 -41.504892 
L 60.431156 -41.504892 
L 60.648241 -41.504892 
L 60.865327 -41.504892 
L 61.082412 -41.504892 
L 61.299497 -41.504892 
L 61.516583 -41.504892 
L 61.733668 -41.504892 
L 61.950754 -41.504892 
L 62.167839 -41.504892 
L 62.384925 -41.504892 
L 62.60201 -41.504892 
L 62.819095 -41.504892 
L 63.036181 -41.504892 
L 63.253266 -41.504892 
L 63.470352 -41.504892 
L 63.687437 -41.504892 
L 63.904523 -41.504892 
L 64.121608 -41.504892 
L 64.338693 -41.504892 
L 64.555779 -41.504892 
L 64.772864 -41.504892 
L 64.98995 -41.504892 
L 65.207035 -41.504892 
L 65.424121 -41.504892 
L 65.641206 -41.504892 
L 65.858291 -41.504892 
L 66.075377 -41.504892 
L 66.292462 -41.504892 
L 66.509548 -41.504892 
L 66.726633 -41.504892 
L 66.943719 -41.504892 
L 67.160804 -41.504892 
L 67.377889 -41.504892 
L 67.594975 -41.504892 
L 67.81206 -41.504892 
L 68.029146 -41.504892 
L 68.246231 -41.504892 
L 68.463317 -41.504892 
L 68.680402 -41.504892 
L 68.897487 -41.504892 
L 69.114573 -41.504892 
L 69.331658 -41.504892 
L 69.548744 -41.504892 
L 69.765829 -41.504892 
L 69.982915 -41.504892 
L 70.2 -41.504892 
L 70.2 -41.196697 
L 70.2 -41.196697 
L 69.982915 -41.274507 
L 69.765829 -41.34618 
L 69.548744 -41.411512 
L 69.331658 -41.470298 
L 69.114573 -41.522333 
L 68.897487 -41.567414 
L 68.680402 -41.605334 
L 68.463317 -41.63589 
L 68.246231 -41.658877 
L 68.029146 -41.67409 
L 67.81206 -41.681325 
L 67.594975 -41.680376 
L 67.377889 -41.671039 
L 67.160804 -41.65311 
L 66.943719 -41.626384 
L 66.726633 -41.590655 
L 66.509548 -41.54572 
L 66.292462 -41.491374 
L 66.075377 -41.427412 
L 65.858291 -41.353629 
L 65.641206 -41.269821 
L 65.424121 -41.175783 
L 65.207035 -41.07131 
L 64.98995 -40.956198 
L 64.772864 -40.830242 
L 64.555779 -40.693237 
L 64.338693 -40.544979 
L 64.121608 -40.385263 
L 63.904523 -40.213885 
L 63.687437 -40.030638 
L 63.470352 -39.83532 
L 63.253266 -39.627725 
L 63.036181 -39.407649 
L 62.819095 -39.174886 
L 62.60201 -38.929233 
L 62.384925 -38.670485 
L 62.167839 -38.398436 
L 61.950754 -38.112882 
L 61.733668 -37.813619 
L 61.516583 -37.500442 
L 61.299497 -37.173146 
L 61.082412 -36.831527 
L 60.865327 -36.475379 
L 60.648241 -36.104499 
L 60.431156 -35.718681 
L 60.21407 -35.317721 
L 59.996985 -34.901414 
L 59.779899 -34.469555 
L 59.562814 -34.021941 
L 59.345729 -33.558383 
L 59.128643 -33.080838 
L 58.911558 -32.595424 
L 58.694472 -32.108737 
L 58.477387 -31.627375 
L 58.260302 -31.157933 
L 58.043216 -30.707008 
L 57.826131 -30.281197 
L 57.609045 -29.887095 
L 57.39196 -29.5313 
L 57.174874 -29.220407 
L 56.957789 -28.961013 
L 56.740704 -28.759715 
L 56.523618 -28.623108 
L 56.306533 -28.557791 
L 56.089447 -28.570357 
L 55.872362 -28.667406 
L 55.655276 -28.855532 
L 55.438191 -29.141332 
L 55.221106 -29.531403 
L 55.00402 -30.032341 
L 54.786935 -30.650742 
L 54.569849 -31.393203 
L 54.352764 -32.266321 
L 54.135678 -33.276691 
L 53.918593 -34.430715 
L 53.701508 -35.725929 
L 53.484422 -37.14757 
L 53.267337 -38.679968 
L 53.050251 -40.307453 
L 52.833166 -42.014357 
L 52.61608 -43.78501 
L 52.398995 -45.603742 
L 52.18191 -47.454884 
L 51.964824 -49.322767 
L 51.747739 -51.191722 
L 51.530653 -53.046078 
L 51.313568 -54.870167 
L 51.096482 -56.648319 
L 50.879397 -58.364864 
L 50.662312 -60.004134 
L 50.445226 -61.550459 
L 50.228141 -62.988169 
L 50.011055 -64.301595 
L 49.79397 -65.475067 
L 49.576884 -66.492917 
L 49.359799 -67.339475 
L 49.142714 -67.999071 
L 48.925628 -68.456035 
L 48.708543 -68.6947 
L 48.491457 -68.700045 
L 48.274372 -68.472026 
L 48.057286 -68.025568 
L 47.840201 -67.376248 
L 47.623116 -66.539644 
L 47.40603 -65.531333 
L 47.188945 -64.366891 
L 46.971859 -63.061898 
L 46.754774 -61.631928 
L 46.537688 -60.09256 
L 46.320603 -58.459371 
L 46.103518 -56.747938 
L 45.886432 -54.973839 
L 45.669347 -53.15265 
L 45.452261 -51.299948 
L 45.235176 -49.431312 
L 45.01809 -47.562317 
L 44.801005 -45.708542 
L 44.58392 -43.885563 
L 44.366834 -42.108959 
L 44.149749 -40.394305 
L 43.932663 -38.757179 
L 43.715578 -37.213158 
L 43.498492 -35.77782 
L 43.281407 -34.466742 
L 43.064322 -33.29461 
L 42.847236 -32.264025 
L 42.630151 -31.368876 
L 42.413065 -30.60286 
L 42.19598 -29.959674 
L 41.978894 -29.433016 
L 41.761809 -29.016581 
L 41.544724 -28.704068 
L 41.327638 -28.489173 
L 41.110553 -28.365594 
L 40.893467 -28.327026 
L 40.676382 -28.367168 
L 40.459296 -28.479717 
L 40.242211 -28.658369 
L 40.025126 -28.896821 
L 39.80804 -29.188771 
L 39.590955 -29.527915 
L 39.373869 -29.907951 
L 39.156784 -30.322575 
L 38.939698 -30.765485 
L 38.722613 -31.230378 
L 38.505528 -31.710951 
L 38.288442 -32.2009 
L 38.071357 -32.693923 
L 37.854271 -33.183716 
L 37.637186 -33.664407 
L 37.420101 -34.133859 
L 37.203015 -34.59186 
L 36.98593 -35.038213 
L 36.768844 -35.472723 
L 36.551759 -35.895194 
L 36.334673 -36.305429 
L 36.117588 -36.703232 
L 35.900503 -37.088408 
L 35.683417 -37.46076 
L 35.466332 -37.820092 
L 35.249246 -38.166208 
L 35.032161 -38.498911 
L 34.815075 -38.818007 
L 34.59799 -39.123298 
L 34.380905 -39.414588 
L 34.163819 -39.691682 
L 33.946734 -39.954383 
L 33.729648 -40.202495 
L 33.512563 -40.435823 
L 33.295477 -40.654169 
L 33.078392 -40.857338 
L 32.861307 -41.045134 
L 32.644221 -41.217361 
L 32.427136 -41.373822 
L 32.21005 -41.514321 
L 31.992965 -41.638663 
L 31.775879 -41.746651 
L 31.558794 -41.838089 
L 31.341709 -41.912781 
L 31.124623 -41.970531 
L 30.907538 -42.011143 
L 30.690452 -42.034421 
L 30.473367 -42.040168 
L 30.256281 -42.028188 
L 30.039196 -41.998286 
L 29.822111 -41.950265 
L 29.605025 -41.883929 
L 29.38794 -41.799083 
L 29.170854 -41.695529 
L 28.953769 -41.573072 
L 28.736683 -41.431516 
L 28.519598 -41.270664 
L 28.302513 -41.090321 
L 28.085427 -40.89029 
L 27.868342 -40.670375 
L 27.651256 -40.430381 
L 27.434171 -40.170111 
L 27.217085 -39.889369 
L 27 -39.587958 
z
" style="stroke: #333333; stroke-opacity: 0.3"/>
    </defs>
    <g clip-path="url(#p4860ab59a0)">
     <use xlink:href="#me8b90a2918" x="0" y="72" style="fill: #333333; fill-opacity: 0.3; stroke: #333333; stroke-opacity: 0.3"/>
    </g>
   </g>
   <g id="line2d_1">
    <path d="M 0 30.495108 
L 108 30.495108 
" clip-path="url(#p4860ab59a0)" style="fill: none; stroke: #000000; stroke-width: 0.5; stroke-linecap: square"/>
   </g>
   <g id="PolyCollection_2">
    <defs>
     <path id="m9e63a93983" d="M 27 -3.272727 
L 27 -8.09854 
L 27.217085 -8.09854 
L 27.434171 -8.09854 
L 27.651256 -8.09854 
L 27.868342 -8.09854 
L 28.085427 -8.09854 
L 28.302513 -8.09854 
L 28.519598 -8.09854 
L 28.736683 -8.09854 
L 28.953769 -8.09854 
L 29.170854 -8.09854 
L 29.38794 -8.09854 
L 29.605025 -8.09854 
L 29.822111 -8.09854 
L 30.039196 -8.09854 
L 30.256281 -8.09854 
L 30.473367 -8.09854 
L 30.690452 -8.09854 
L 30.907538 -8.09854 
L 31.124623 -8.09854 
L 31.341709 -8.09854 
L 31.558794 -8.09854 
L 31.775879 -8.09854 
L 31.992965 -8.09854 
L 32.21005 -8.09854 
L 32.427136 -8.09854 
L 32.644221 -8.09854 
L 32.861307 -8.09854 
L 33.078392 -8.09854 
L 33.295477 -8.09854 
L 33.512563 -8.09854 
L 33.729648 -8.09854 
L 33.946734 -8.09854 
L 34.163819 -8.09854 
L 34.380905 -8.09854 
L 34.59799 -8.09854 
L 34.815075 -8.09854 
L 35.032161 -8.09854 
L 35.249246 -8.09854 
L 35.466332 -8.09854 
L 35.683417 -8.09854 
L 35.900503 -8.09854 
L 36.117588 -8.09854 
L 36.334673 -8.09854 
L 36.551759 -8.09854 
L 36.768844 -8.09854 
L 36.98593 -8.09854 
L 37.203015 -8.09854 
L 37.420101 -8.09854 
L 37.637186 -8.09854 
L 37.854271 -8.09854 
L 38.071357 -8.09854 
L 38.288442 -8.09854 
L 38.505528 -8.09854 
L 38.722613 -8.09854 
L 38.939698 -8.09854 
L 39.156784 -8.09854 
L 39.373869 -8.09854 
L 39.590955 -8.09854 
L 39.80804 -8.09854 
L 40.025126 -8.09854 
L 40.242211 -8.09854 
L 40.459296 -8.09854 
L 40.676382 -8.09854 
L 40.893467 -8.09854 
L 41.110553 -8.09854 
L 41.327638 -8.09854 
L 41.544724 -8.09854 
L 41.761809 -8.09854 
L 41.978894 -8.09854 
L 42.19598 -8.09854 
L 42.413065 -8.09854 
L 42.630151 -8.09854 
L 42.847236 -8.09854 
L 43.064322 -8.09854 
L 43.281407 -8.09854 
L 43.498492 -8.09854 
L 43.715578 -8.09854 
L 43.932663 -8.09854 
L 44.149749 -8.09854 
L 44.366834 -8.09854 
L 44.58392 -8.09854 
L 44.801005 -8.09854 
L 45.01809 -8.09854 
L 45.235176 -8.09854 
L 45.452261 -8.09854 
L 45.669347 -8.09854 
L 45.886432 -8.09854 
L 46.103518 -8.09854 
L 46.320603 -8.09854 
L 46.537688 -8.09854 
L 46.754774 -8.09854 
L 46.971859 -8.09854 
L 47.188945 -8.09854 
L 47.40603 -8.09854 
L 47.623116 -8.09854 
L 47.840201 -8.09854 
L 48.057286 -8.09854 
L 48.274372 -8.09854 
L 48.491457 -8.09854 
L 48.708543 -8.09854 
L 48.925628 -8.09854 
L 49.142714 -8.09854 
L 49.359799 -8.09854 
L 49.576884 -8.09854 
L 49.79397 -8.09854 
L 50.011055 -8.09854 
L 50.228141 -8.09854 
L 50.445226 -8.09854 
L 50.662312 -8.09854 
L 50.879397 -8.09854 
L 51.096482 -8.09854 
L 51.313568 -8.09854 
L 51.530653 -8.09854 
L 51.747739 -8.09854 
L 51.964824 -8.09854 
L 52.18191 -8.09854 
L 52.398995 -8.09854 
L 52.61608 -8.09854 
L 52.833166 -8.09854 
L 53.050251 -8.09854 
L 53.267337 -8.09854 
L 53.484422 -8.09854 
L 53.701508 -8.09854 
L 53.918593 -8.09854 
L 54.135678 -8.09854 
L 54.352764 -8.09854 
L 54.569849 -8.09854 
L 54.786935 -8.09854 
L 55.00402 -8.09854 
L 55.221106 -8.09854 
L 55.438191 -8.09854 
L 55.655276 -8.09854 
L 55.872362 -8.09854 
L 56.089447 -8.09854 
L 56.306533 -8.09854 
L 56.523618 -8.09854 
L 56.740704 -8.09854 
L 56.957789 -8.09854 
L 57.174874 -8.09854 
L 57.39196 -8.09854 
L 57.609045 -8.09854 
L 57.826131 -8.09854 
L 58.043216 -8.09854 
L 58.260302 -8.09854 
L 58.477387 -8.09854 
L 58.694472 -8.09854 
L 58.911558 -8.09854 
L 59.128643 -8.09854 
L 59.345729 -8.09854 
L 59.562814 -8.09854 
L 59.779899 -8.09854 
L 59.996985 -8.09854 
L 60.21407 -8.09854 
L 60.431156 -8.09854 
L 60.648241 -8.09854 
L 60.865327 -8.09854 
L 61.082412 -8.09854 
L 61.299497 -8.09854 
L 61.516583 -8.09854 
L 61.733668 -8.09854 
L 61.950754 -8.09854 
L 62.167839 -8.09854 
L 62.384925 -8.09854 
L 62.60201 -8.09854 
L 62.819095 -8.09854 
L 63.036181 -8.09854 
L 63.253266 -8.09854 
L 63.470352 -8.09854 
L 63.687437 -8.09854 
L 63.904523 -8.09854 
L 64.121608 -8.09854 
L 64.338693 -8.09854 
L 64.555779 -8.09854 
L 64.772864 -8.09854 
L 64.98995 -8.09854 
L 65.207035 -8.09854 
L 65.424121 -8.09854 
L 65.641206 -8.09854 
L 65.858291 -8.09854 
L 66.075377 -8.09854 
L 66.292462 -8.09854 
L 66.509548 -8.09854 
L 66.726633 -8.09854 
L 66.943719 -8.09854 
L 67.160804 -8.09854 
L 67.377889 -8.09854 
L 67.594975 -8.09854 
L 67.81206 -8.09854 
L 68.029146 -8.09854 
L 68.246231 -8.09854 
L 68.463317 -8.09854 
L 68.680402 -8.09854 
L 68.897487 -8.09854 
L 69.114573 -8.09854 
L 69.331658 -8.09854 
L 69.548744 -8.09854 
L 69.765829 -8.09854 
L 69.982915 -8.09854 
L 70.2 -8.09854 
L 70.2 -6.585654 
L 70.2 -6.585654 
L 69.982915 -6.878271 
L 69.765829 -7.144055 
L 69.548744 -7.383918 
L 69.331658 -7.598768 
L 69.114573 -7.789516 
L 68.897487 -7.957072 
L 68.680402 -8.102344 
L 68.463317 -8.226244 
L 68.246231 -8.32968 
L 68.029146 -8.413563 
L 67.81206 -8.478802 
L 67.594975 -8.526308 
L 67.377889 -8.556989 
L 67.160804 -8.571756 
L 66.943719 -8.571519 
L 66.726633 -8.557188 
L 66.509548 -8.529671 
L 66.292462 -8.48988 
L 66.075377 -8.438723 
L 65.858291 -8.377111 
L 65.641206 -8.305953 
L 65.424121 -8.22616 
L 65.207035 -8.138641 
L 64.98995 -8.044305 
L 64.772864 -7.944064 
L 64.555779 -7.838825 
L 64.338693 -7.7295 
L 64.121608 -7.616998 
L 63.904523 -7.502229 
L 63.687437 -7.386103 
L 63.470352 -7.269529 
L 63.253266 -7.153417 
L 63.036181 -7.038677 
L 62.819095 -6.92622 
L 62.60201 -6.816954 
L 62.384925 -6.711789 
L 62.167839 -6.611636 
L 61.950754 -6.517404 
L 61.733668 -6.430003 
L 61.516583 -6.350342 
L 61.299497 -6.279333 
L 61.082412 -6.217883 
L 60.865327 -6.166904 
L 60.648241 -6.127304 
L 60.431156 -6.099995 
L 60.21407 -6.085884 
L 59.996985 -6.085884 
L 59.779899 -6.100902 
L 59.562814 -6.131849 
L 59.345729 -6.179631 
L 59.128643 -6.244583 
L 58.911558 -6.325942 
L 58.694472 -6.422813 
L 58.477387 -6.534304 
L 58.260302 -6.659524 
L 58.043216 -6.797579 
L 57.826131 -6.947576 
L 57.609045 -7.108625 
L 57.39196 -7.279831 
L 57.174874 -7.460302 
L 56.957789 -7.649146 
L 56.740704 -7.84547 
L 56.523618 -8.048382 
L 56.306533 -8.25699 
L 56.089447 -8.4704 
L 55.872362 -8.68772 
L 55.655276 -8.908058 
L 55.438191 -9.130521 
L 55.221106 -9.354216 
L 55.00402 -9.578252 
L 54.786935 -9.801736 
L 54.569849 -10.023774 
L 54.352764 -10.243475 
L 54.135678 -10.459946 
L 53.918593 -10.6723 
L 53.701508 -10.879863 
L 53.484422 -11.082262 
L 53.267337 -11.279144 
L 53.050251 -11.470159 
L 52.833166 -11.654955 
L 52.61608 -11.833178 
L 52.398995 -12.004478 
L 52.18191 -12.168503 
L 51.964824 -12.3249 
L 51.747739 -12.473318 
L 51.530653 -12.613405 
L 51.313568 -12.74481 
L 51.096482 -12.867179 
L 50.879397 -12.980162 
L 50.662312 -13.083406 
L 50.445226 -13.17656 
L 50.228141 -13.259271 
L 50.011055 -13.331188 
L 49.79397 -13.39196 
L 49.576884 -13.441233 
L 49.359799 -13.478656 
L 49.142714 -13.503878 
L 48.925628 -13.516546 
L 48.708543 -13.516309 
L 48.491457 -13.502839 
L 48.274372 -13.476374 
L 48.057286 -13.437719 
L 47.840201 -13.387701 
L 47.623116 -13.327149 
L 47.40603 -13.256891 
L 47.188945 -13.177755 
L 46.971859 -13.090569 
L 46.754774 -12.996163 
L 46.537688 -12.895363 
L 46.320603 -12.789 
L 46.103518 -12.677899 
L 45.886432 -12.562891 
L 45.669347 -12.444803 
L 45.452261 -12.324464 
L 45.235176 -12.202701 
L 45.01809 -12.080344 
L 44.801005 -11.95822 
L 44.58392 -11.837158 
L 44.366834 -11.717986 
L 44.149749 -11.601532 
L 43.932663 -11.488625 
L 43.715578 -11.380092 
L 43.498492 -11.276763 
L 43.281407 -11.179465 
L 43.064322 -11.088971 
L 42.847236 -11.005296 
L 42.630151 -10.927909 
L 42.413065 -10.856268 
L 42.19598 -10.789829 
L 41.978894 -10.728051 
L 41.761809 -10.670389 
L 41.544724 -10.616302 
L 41.327638 -10.565247 
L 41.110553 -10.516681 
L 40.893467 -10.47006 
L 40.676382 -10.424843 
L 40.459296 -10.380487 
L 40.242211 -10.336448 
L 40.025126 -10.292184 
L 39.80804 -10.247152 
L 39.590955 -10.20081 
L 39.373869 -10.152614 
L 39.156784 -10.102022 
L 38.939698 -10.048492 
L 38.722613 -9.991479 
L 38.505528 -9.930442 
L 38.288442 -9.864838 
L 38.071357 -9.794124 
L 37.854271 -9.717757 
L 37.637186 -9.635251 
L 37.420101 -9.546615 
L 37.203015 -9.452111 
L 36.98593 -9.352004 
L 36.768844 -9.24656 
L 36.551759 -9.136042 
L 36.334673 -9.020717 
L 36.117588 -8.900848 
L 35.900503 -8.776702 
L 35.683417 -8.648542 
L 35.466332 -8.516635 
L 35.249246 -8.381243 
L 35.032161 -8.242634 
L 34.815075 -8.101071 
L 34.59799 -7.956819 
L 34.380905 -7.810144 
L 34.163819 -7.66131 
L 33.946734 -7.510583 
L 33.729648 -7.358226 
L 33.512563 -7.204506 
L 33.295477 -7.049687 
L 33.078392 -6.894033 
L 32.861307 -6.737811 
L 32.644221 -6.581284 
L 32.427136 -6.424718 
L 32.21005 -6.268378 
L 31.992965 -6.112529 
L 31.775879 -5.957435 
L 31.558794 -5.803361 
L 31.341709 -5.650573 
L 31.124623 -5.499335 
L 30.907538 -5.349912 
L 30.690452 -5.20257 
L 30.473367 -5.057572 
L 30.256281 -4.915185 
L 30.039196 -4.775672 
L 29.822111 -4.6393 
L 29.605025 -4.506332 
L 29.38794 -4.377034 
L 29.170854 -4.251671 
L 28.953769 -4.130507 
L 28.736683 -4.013808 
L 28.519598 -3.901838 
L 28.302513 -3.794862 
L 28.085427 -3.693146 
L 27.868342 -3.596954 
L 27.651256 -3.506551 
L 27.434171 -3.422203 
L 27.217085 -3.344173 
L 27 -3.272727 
z
" style="stroke: #999999; stroke-opacity: 0.3"/>
    </defs>
    <g clip-path="url(#p4860ab59a0)">
     <use xlink:href="#m9e63a93983" x="0" y="72" style="fill: #999999; fill-opacity: 0.3; stroke: #999999; stroke-opacity: 0.3"/>
    </g>
   </g>
   <g id="line2d_2">
    <path d="M 0 63.90146 
L 108 63.90146 
" clip-path="url(#p4860ab59a0)" style="fill: none; stroke: #000000; stroke-width: 0.5; stroke-linecap: square"/>
   </g>
   <g id="matplotlib.axis_1"/>
   <g id="matplotlib.axis_2"/>
   <g id="line2d_3">
    <path d="M 27 32.412042 
L 27.868342 31.329625 
L 28.736683 30.568484 
L 29.605025 30.116071 
L 30.473367 29.959832 
L 31.341709 30.087219 
L 32.21005 30.485679 
L 33.078392 31.142662 
L 34.163819 32.308318 
L 35.249246 33.833792 
L 36.551759 36.104806 
L 37.854271 38.816284 
L 39.590955 42.472085 
L 40.242211 43.341631 
L 40.676382 43.632832 
L 41.110553 43.634406 
L 41.544724 43.295932 
L 41.978894 42.566984 
L 42.413065 41.39714 
L 43.064322 38.70539 
L 43.715578 34.786842 
L 44.801005 26.291458 
L 46.754774 10.368072 
L 47.40603 6.468667 
L 47.840201 4.623752 
L 48.274372 3.527974 
L 48.491457 3.299955 
L 48.708543 3.3053 
L 48.925628 3.543965 
L 49.359799 4.660525 
L 49.79397 6.524933 
L 50.445226 10.449541 
L 51.530653 18.953922 
L 53.484422 34.85243 
L 54.135678 38.723309 
L 54.786935 41.349258 
L 55.221106 42.468597 
L 55.655276 43.144468 
L 56.089447 43.429643 
L 56.523618 43.376892 
L 56.957789 43.038987 
L 57.609045 42.112905 
L 58.477387 40.372625 
L 60.431156 36.281319 
L 61.733668 34.186381 
L 62.819095 32.825114 
L 63.904523 31.786115 
L 64.98995 31.043802 
L 66.075377 30.572588 
L 67.160804 30.34689 
L 68.246231 30.341123 
L 69.548744 30.588488 
L 70.2 30.803303 
L 70.2 30.803303 
" clip-path="url(#p4860ab59a0)" style="fill: none; stroke: #333333; stroke-width: 1.5; stroke-linecap: square"/>
   </g>
   <g id="line2d_4">
    <defs>
     <path id="mfd98c0b8e9" d="M 0 0.5 
C 0.132602 0.5 0.25979 0.447317 0.353553 0.353553 
C 0.447317 0.25979 0.5 0.132602 0.5 0 
C 0.5 -0.132602 0.447317 -0.25979 0.353553 -0.353553 
C 0.25979 -0.447317 0.132602 -0.5 0 -0.5 
C -0.132602 -0.5 -0.25979 -0.447317 -0.353553 -0.353553 
C -0.447317 -0.25979 -0.5 -0.132602 -0.5 0 
C -0.5 0.132602 -0.447317 0.25979 -0.353553 0.353553 
C -0.25979 0.447317 -0.132602 0.5 0 0.5 
z
" style="stroke: #333333"/>
    </defs>
    <g clip-path="url(#p4860ab59a0)">
     <use xlink:href="#mfd98c0b8e9" x="18.9" y="27.154473" style="fill: #333333; stroke: #333333"/>
    </g>
   </g>
   <g id="line2d_5">
    <g clip-path="url(#p4860ab59a0)">
     <use xlink:href="#mfd98c0b8e9" x="13.5" y="27.154473" style="fill: #333333; stroke: #333333"/>
    </g>
   </g>
   <g id="line2d_6">
    <g clip-path="url(#p4860ab59a0)">
     <use xlink:href="#mfd98c0b8e9" x="8.1" y="27.154473" style="fill: #333333; stroke: #333333"/>
    </g>
   </g>
   <g id="line2d_7">
    <g clip-path="url(#p4860ab59a0)">
     <use xlink:href="#mfd98c0b8e9" x="78.3" y="27.154473" style="fill: #333333; stroke: #333333"/>
    </g>
   </g>
   <g id="line2d_8">
    <g clip-path="url(#p4860ab59a0)">
     <use xlink:href="#mfd98c0b8e9" x="83.7" y="27.154473" style="fill: #333333; stroke: #333333"/>
    </g>
   </g>
   <g id="line2d_9">
    <g clip-path="url(#p4860ab59a0)">
     <use xlink:href="#mfd98c0b8e9" x="89.1" y="27.154473" style="fill: #333333; stroke: #333333"/>
    </g>
   </g>
   <g id="line2d_10">
    <path d="M 27 68.727273 
L 28.302513 68.205138 
L 29.822111 67.3607 
L 32.21005 65.731622 
L 35.683417 63.351458 
L 37.420101 62.453385 
L 38.939698 61.951508 
L 43.498492 60.723237 
L 45.452261 59.675536 
L 47.188945 58.822245 
L 48.274372 58.523626 
L 49.142714 58.496122 
L 50.011055 58.668812 
L 51.096482 59.132821 
L 52.18191 59.831497 
L 53.484422 60.917738 
L 55.655276 63.091942 
L 57.39196 64.720169 
L 58.477387 65.465696 
L 59.345729 65.820369 
L 60.21407 65.914116 
L 61.082412 65.782117 
L 62.167839 65.388364 
L 64.338693 64.2705 
L 65.858291 63.622889 
L 66.943719 63.428481 
L 67.81206 63.521198 
L 68.680402 63.897656 
L 69.331658 64.401232 
L 70.2 65.414346 
L 70.2 65.414346 
" clip-path="url(#p4860ab59a0)" style="fill: none; stroke: #999999; stroke-width: 1.5; stroke-linecap: square"/>
   </g>
   <g id="line2d_11">
    <defs>
     <path id="m2c94f28ef1" d="M 0 0.5 
C 0.132602 0.5 0.25979 0.447317 0.353553 0.353553 
C 0.447317 0.25979 0.5 0.132602 0.5 0 
C 0.5 -0.132602 0.447317 -0.25979 0.353553 -0.353553 
C 0.25979 -0.447317 0.132602 -0.5 0 -0.5 
C -0.132602 -0.5 -0.25979 -0.447317 -0.353553 -0.353553 
C -0.447317 -0.25979 -0.5 -0.132602 -0.5 0 
C -0.5 0.132602 -0.447317 0.25979 -0.353553 0.353553 
C -0.25979 0.447317 -0.132602 0.5 0 0.5 
z
" style="stroke: #999999"/>
    </defs>
    <g clip-path="url(#p4860ab59a0)">
     <use xlink:href="#m2c94f28ef1" x="18.9" y="60.560825" style="fill: #999999; stroke: #999999"/>
    </g>
   </g>
   <g id="line2d_12">
    <g clip-path="url(#p4860ab59a0)">
     <use xlink:href="#m2c94f28ef1" x="13.5" y="60.560825" style="fill: #999999; stroke: #999999"/>
    </g>
   </g>
   <g id="line2d_13">
    <g clip-path="url(#p4860ab59a0)">
     <use xlink:href="#m2c94f28ef1" x="8.1" y="60.560825" style="fill: #999999; stroke: #999999"/>
    </g>
   </g>
   <g id="line2d_14">
    <g clip-path="url(#p4860ab59a0)">
     <use xlink:href="#m2c94f28ef1" x="78.3" y="60.560825" style="fill: #999999; stroke: #999999"/>
    </g>
   </g>
   <g id="line2d_15">
    <g clip-path="url(#p4860ab59a0)">
     <use xlink:href="#m2c94f28ef1" x="83.7" y="60.560825" style="fill: #999999; stroke: #999999"/>
    </g>
   </g>
   <g id="line2d_16">
    <g clip-path="url(#p4860ab59a0)">
     <use xlink:href="#m2c94f28ef1" x="89.1" y="60.560825" style="fill: #999999; stroke: #999999"/>
    </g>
   </g>
   <g id="patch_3">
    <path d="M 0 72 
L 0 -0 
" style="fill: none; stroke: #000000; stroke-width: 0.8; stroke-linejoin: miter; stroke-linecap: square"/>
   </g>
   <g id="patch_4">
    <path d="M 0 72 
L 108 72 
" style="fill: none; stroke: #000000; stroke-width: 0.8; stroke-linejoin: miter; stroke-linecap: square"/>
   </g>
   <g id="line2d_17">
    <defs>
     <path id="m573c148bc9" d="M 0 2.5 
C 0.663008 2.5 1.29895 2.236584 1.767767 1.767767 
C 2.236584 1.29895 2.5 0.663008 2.5 0 
C 2.5 -0.663008 2.236584 -1.29895 1.767767 -1.767767 
C 1.29895 -2.236584 0.663008 -2.5 0 -2.5 
C -0.663008 -2.5 -1.29895 -2.236584 -1.767767 -1.767767 
C -2.236584 -1.29895 -2.5 -0.663008 -2.5 0 
C -2.5 0.663008 -2.236584 1.29895 -1.767767 1.767767 
C -1.29895 2.236584 -0.663008 2.5 0 2.5 
z
" style="stroke: #000000; stroke-width: 0.5"/>
    </defs>
    <g clip-path="url(#p4860ab59a0)">
     <use xlink:href="#m573c148bc9" x="48.6" y="3.272727" style="fill: #0a30af; stroke: #000000; stroke-width: 0.5"/>
    </g>
   </g>
   <g id="line2d_18">
    <g clip-path="url(#p4860ab59a0)">
     <use xlink:href="#m573c148bc9" x="48.6" y="58.488759" style="fill: #0a30af; stroke: #000000; stroke-width: 0.5"/>
    </g>
   </g>
  </g>
 </g>
 <defs>
  <clipPath id="p4860ab59a0">
   <rect x="0" y="0" width="108" height="72"/>
  </clipPath>
 </defs>
</svg>
