<?xml version="1.0" encoding="utf-8" standalone="no"?>
<!DOCTYPE svg PUBLIC "-//W3C//DTD SVG 1.1//EN"
  "http://www.w3.org/Graphics/SVG/1.1/DTD/svg11.dtd">
<svg xmlns:xlink="http://www.w3.org/1999/xlink" width="194.4pt" height="14.4pt" viewBox="0 0 194.4 14.4" xmlns="http://www.w3.org/2000/svg" version="1.1">
 <metadata>
  <rdf:RDF xmlns:dc="http://purl.org/dc/elements/1.1/" xmlns:cc="http://creativecommons.org/ns#" xmlns:rdf="http://www.w3.org/1999/02/22-rdf-syntax-ns#">
   <cc:Work>
    <dc:type rdf:resource="http://purl.org/dc/dcmitype/StillImage"/>
    <dc:date>2026-05-19T11:27:48.932847</dc:date>
    <dc:format>image/svg+xml</dc:format>
    <dc:creator>
     <cc:Agent>
      <dc:title>Matplotlib v3.8.0, https://matplotlib.org/</dc:title>
     </cc:Agent>
    </dc:creator>
   </cc:Work>
  </rdf:RDF>
 </metadata>
 <defs>
  <style type="text/css">*{stroke-linejoin: round; stroke-linecap: butt}</style>
 </defs>
 <g id="figure_1">
  <g id="patch_1">
   <path d="M 0 14.4 
L 194.4 14.4 
L 194.4 0 
L 0 0 
L 0 14.4 
z
" style="fill: none"/>
  </g>
  <g id="axes_1">
   <g id="patch_2">
    <path d="M 0 14.4 
L 194.4 14.4 
L 194.4 -0 
L 0 -0 
L 0 14.4 
z
" style="fill: none"/>
   </g>
   <g id="matplotlib.axis_1"/>
   <g id="matplotlib.axis_2"/>
   <g id="line2d_1">
    <path d="M 0 7.2 
L 14.427003 7.132852 
L 14.559564 6.30589 
L 15.200273 1.418268 
L 15.288646 1.507024 
L 15.4433 2.182951 
L 15.730515 4.714992 
L 16.415411 10.911302 
L 16.658438 11.478302 
L 16.768906 11.384318 
L 16.945653 10.838748 
L 17.299148 8.781354 
L 17.939857 5.200311 
L 18.204978 4.750748 
L 18.359632 4.823468 
L 18.580566 5.282235 
L 19.066621 7.033885 
L 19.530583 8.355555 
L 19.795704 8.58617 
L 19.994545 8.494869 
L 20.281759 8.060381 
L 21.209683 6.468499 
L 21.496897 6.435972 
L 21.806205 6.658872 
L 22.888783 7.637259 
L 23.242278 7.57752 
L 23.90508 7.159259 
L 24.435322 6.955852 
L 24.921377 7.015468 
L 26.291169 7.332534 
L 28.655165 7.209649 
L 29.804023 7.223731 
L 31.770338 7.201751 
L 34.841323 7.2 
L 63.231367 7.132852 
L 63.363928 6.30589 
L 64.004637 1.418268 
L 64.093011 1.507024 
L 64.247665 2.182951 
L 64.534879 4.714992 
L 65.219775 10.911302 
L 65.462803 11.478302 
L 65.57327 11.384318 
L 65.750017 10.838748 
L 66.103512 8.781354 
L 66.744221 5.200311 
L 67.009342 4.750748 
L 67.163996 4.823468 
L 67.38493 5.282235 
L 67.870985 7.033885 
L 68.334947 8.355555 
L 68.600068 8.58617 
L 68.798909 8.494869 
L 69.086123 8.060381 
L 70.014047 6.468499 
L 70.301262 6.435972 
L 70.610569 6.658872 
L 71.693147 7.637259 
L 72.046642 7.57752 
L 72.709444 7.159259 
L 73.239686 6.955852 
L 73.725742 7.015468 
L 75.095534 7.332534 
L 77.459529 7.209649 
L 78.608387 7.223731 
L 80.574702 7.201751 
L 83.645687 7.2 
L 110.599659 7.132852 
L 110.73222 6.30589 
L 111.372929 1.418268 
L 111.461302 1.507024 
L 111.615956 2.182951 
L 111.903171 4.714992 
L 112.588067 10.911302 
L 112.831094 11.478302 
L 112.941562 11.384318 
L 113.118309 10.838748 
L 113.471804 8.781354 
L 114.112513 5.200311 
L 114.377634 4.750748 
L 114.532288 4.823468 
L 114.753222 5.282235 
L 115.239277 7.033885 
L 115.703239 8.355555 
L 115.96836 8.58617 
L 116.167201 8.494869 
L 116.454415 8.060381 
L 117.382339 6.468499 
L 117.669553 6.435972 
L 117.978861 6.658872 
L 119.061439 7.637259 
L 119.414934 7.57752 
L 120.077736 7.159259 
L 120.607978 6.955852 
L 121.094033 7.015468 
L 122.463825 7.332534 
L 124.827821 7.209649 
L 125.976679 7.223731 
L 127.942994 7.201751 
L 131.013979 7.2 
L 157.901671 7.132852 
L 158.034231 6.30589 
L 158.67494 1.418268 
L 158.763314 1.507024 
L 158.917968 2.182951 
L 159.205182 4.714992 
L 159.890078 10.911302 
L 160.133106 11.478302 
L 160.243573 11.384318 
L 160.42032 10.838748 
L 160.773815 8.781354 
L 161.414524 5.200311 
L 161.679645 4.750748 
L 161.834299 4.823468 
L 162.055234 5.282235 
L 162.541289 7.033885 
L 163.005251 8.355555 
L 163.270372 8.58617 
L 163.469212 8.494869 
L 163.756427 8.060381 
L 164.68435 6.468499 
L 164.971565 6.435972 
L 165.280873 6.658872 
L 166.36345 7.637259 
L 166.716945 7.57752 
L 167.379748 7.159259 
L 167.90999 6.955852 
L 168.396045 7.015468 
L 169.765837 7.332534 
L 172.129833 7.209649 
L 173.278691 7.223731 
L 175.245005 7.201751 
L 178.31599 7.2 
L 194.4 7.2 
L 194.4 7.2 
" clip-path="url(#p9747757bb3)" style="fill: none; stroke: #222222; stroke-width: 1.2; stroke-linecap: round"/>
   </g>
  </g>
 </g>
 <defs>
  <clipPath id="p9747757bb3">
   <rect x="0" y="-0" width="194.4" height="14.4"/>
  </clipPath>
 </defs>
</svg>
