<?xml version="1.0" encoding="utf-8" standalone="no"?>
<!DOCTYPE svg PUBLIC "-//W3C//DTD SVG 1.1//EN"
  "http://www.w3.org/Graphics/SVG/1.1/DTD/svg11.dtd">
<svg xmlns:xlink="http://www.w3.org/1999/xlink" width="194.4pt" height="14.4pt" viewBox="0 0 194.4 14.4" xmlns="http://www.w3.org/2000/svg" version="1.1">
 <metadata>
  <rdf:RDF xmlns:dc="http://purl.org/dc/elements/1.1/" xmlns:cc="http://creativecommons.org/ns#" xmlns:rdf="http://www.w3.org/1999/02/22-rdf-syntax-ns#">
   <cc:Work>
    <dc:type rdf:resource="http://purl.org/dc/dcmitype/StillImage"/>
    <dc:date>2026-05-19T11:34:54.169539</dc:date>
    <dc:format>image/svg+xml</dc:format>
    <dc:creator>
     <cc:Agent>
      <dc:title>Matplotlib v3.8.0, https://matplotlib.org/</dc:title>
     </cc:Agent>
    </dc:creator>
   </cc:Work>
  </rdf:RDF>
 </metadata>
 <defs>
  <style type="text/css">*{stroke-linejoin: round; stroke-linecap: butt}</style>
 </defs>
 <g id="figure_1">
  <g id="patch_1">
   <path d="M 0 14.4 
L 194.4 14.4 
L 194.4 0 
L 0 0 
L 0 14.4 
z
" style="fill: none"/>
  </g>
  <g id="axes_1">
   <g id="patch_2">
    <path d="M 0 14.4 
L 194.4 14.4 
L 194.4 -0 
L 0 -0 
L 0 14.4 
z
" style="fill: none"/>
   </g>
   <g id="matplotlib.axis_1"/>
   <g id="matplotlib.axis_2"/>
   <g id="line2d_1">
    <path d="M 0 7.2 
L 14.427003 7.132852 
L 14.559564 6.30589 
L 15.200273 1.418268 
L 15.288646 1.507024 
L 15.4433 2.182951 
L 15.730515 4.714992 
L 16.415411 10.911302 
L 16.658438 11.478302 
L 16.768906 11.384318 
L 16.945653 10.838748 
L 17.299148 8.781354 
L 17.939857 5.200311 
L 18.204978 4.750748 
L 18.359632 4.823468 
L 18.580566 5.282235 
L 19.066621 7.033885 
L 19.530583 8.355555 
L 19.795704 8.58617 
L 19.994545 8.494869 
L 20.281759 8.060381 
L 21.209683 6.468499 
L 21.496897 6.435972 
L 21.806205 6.658872 
L 22.888783 7.637259 
L 23.242278 7.57752 
L 23.90508 7.159259 
L 24.435322 6.955852 
L 24.921377 7.015468 
L 26.291169 7.332534 
L 28.655165 7.209649 
L 29.804023 7.223731 
L 31.770338 7.201751 
L 34.841323 7.2 
L 65.043028 7.132852 
L 65.175588 6.30589 
L 65.816297 1.418268 
L 65.904671 1.507024 
L 66.059325 2.182951 
L 66.346539 4.714992 
L 67.031435 10.911302 
L 67.274463 11.478302 
L 67.38493 11.384318 
L 67.561677 10.838748 
L 67.915172 8.781354 
L 68.555881 5.200311 
L 68.821002 4.750748 
L 68.975656 4.823468 
L 69.196591 5.282235 
L 69.682646 7.033885 
L 70.146608 8.355555 
L 70.411729 8.58617 
L 70.610569 8.494869 
L 70.897784 8.060381 
L 71.825707 6.468499 
L 72.112922 6.435972 
L 72.42223 6.658872 
L 73.504807 7.637259 
L 73.858302 7.57752 
L 74.521105 7.159259 
L 75.051347 6.955852 
L 75.537402 7.015468 
L 76.907194 7.332534 
L 79.27119 7.209649 
L 80.420048 7.223731 
L 82.386362 7.201751 
L 85.457347 7.2 
L 108.942653 7.132852 
L 109.075213 6.30589 
L 109.715922 1.418268 
L 109.804296 1.507024 
L 109.95895 2.182951 
L 110.246164 4.714992 
L 110.93106 10.911302 
L 111.174088 11.478302 
L 111.284555 11.384318 
L 111.461302 10.838748 
L 111.814797 8.781354 
L 112.455506 5.200311 
L 112.720627 4.750748 
L 112.875281 4.823468 
L 113.096215 5.282235 
L 113.582271 7.033885 
L 114.046233 8.355555 
L 114.311354 8.58617 
L 114.510194 8.494869 
L 114.797409 8.060381 
L 115.725332 6.468499 
L 116.012547 6.435972 
L 116.321855 6.658872 
L 117.404432 7.637259 
L 117.757927 7.57752 
L 118.42073 7.159259 
L 118.950972 6.955852 
L 119.437027 7.015468 
L 120.806819 7.332534 
L 123.170815 7.209649 
L 124.319673 7.223731 
L 126.285987 7.201751 
L 129.356972 7.2 
L 152.510876 7.132852 
L 152.643437 6.30589 
L 153.284146 1.418268 
L 153.37252 1.507024 
L 153.527174 2.182951 
L 153.814388 4.714992 
L 154.499284 10.911302 
L 154.742312 11.478302 
L 154.852779 11.384318 
L 155.029526 10.838748 
L 155.383021 8.781354 
L 156.02373 5.200311 
L 156.288851 4.750748 
L 156.443505 4.823468 
L 156.664439 5.282235 
L 157.150494 7.033885 
L 157.614456 8.355555 
L 157.879577 8.58617 
L 158.078418 8.494869 
L 158.365632 8.060381 
L 159.293556 6.468499 
L 159.580771 6.435972 
L 159.890078 6.658872 
L 160.972656 7.637259 
L 161.326151 7.57752 
L 161.988953 7.159259 
L 162.519195 6.955852 
L 163.005251 7.015468 
L 164.375043 7.332534 
L 166.739039 7.209649 
L 167.887896 7.223731 
L 169.854211 7.201751 
L 172.925196 7.2 
L 194.4 7.2 
L 194.4 7.2 
" clip-path="url(#pa84c687614)" style="fill: none; stroke: #222222; stroke-width: 1.2; stroke-linecap: round"/>
   </g>
  </g>
 </g>
 <defs>
  <clipPath id="pa84c687614">
   <rect x="0" y="-0" width="194.4" height="14.4"/>
  </clipPath>
 </defs>
</svg>
